G04 #@! TF.GenerationSoftware,KiCad,Pcbnew,5.1.12-84ad8e8a86~92~ubuntu20.04.1*
G04 #@! TF.CreationDate,2021-11-23T01:14:47+00:00*
G04 #@! TF.ProjectId,atmega-demo,61746d65-6761-42d6-9465-6d6f2e6b6963,rev?*
G04 #@! TF.SameCoordinates,Original*
G04 #@! TF.FileFunction,Soldermask,Top*
G04 #@! TF.FilePolarity,Negative*
%FSLAX46Y46*%
G04 Gerber Fmt 4.6, Leading zero omitted, Abs format (unit mm)*
G04 Created by KiCad (PCBNEW 5.1.12-84ad8e8a86~92~ubuntu20.04.1) date 2021-11-23 01:14:47*
%MOMM*%
%LPD*%
G01*
G04 APERTURE LIST*
%ADD10C,3.000000*%
%ADD11R,3.000000X3.000000*%
%ADD12R,0.900000X0.800000*%
%ADD13O,1.700000X1.700000*%
%ADD14R,1.700000X1.700000*%
%ADD15R,1.400000X1.200000*%
%ADD16R,3.400000X1.800000*%
%ADD17O,1.550000X0.890000*%
%ADD18R,1.550000X1.200000*%
%ADD19R,1.550000X1.500000*%
%ADD20O,0.950000X1.250000*%
%ADD21R,1.350000X0.400000*%
%ADD22R,1.400000X1.000000*%
%ADD23R,0.550000X1.600000*%
%ADD24R,1.600000X0.550000*%
%ADD25R,1.050000X0.650000*%
G04 APERTURE END LIST*
G04 #@! TO.C,C5*
G36*
G01*
X177363000Y-81022000D02*
X177363000Y-80522000D01*
G75*
G02*
X177588000Y-80297000I225000J0D01*
G01*
X178038000Y-80297000D01*
G75*
G02*
X178263000Y-80522000I0J-225000D01*
G01*
X178263000Y-81022000D01*
G75*
G02*
X178038000Y-81247000I-225000J0D01*
G01*
X177588000Y-81247000D01*
G75*
G02*
X177363000Y-81022000I0J225000D01*
G01*
G37*
G36*
G01*
X175813000Y-81022000D02*
X175813000Y-80522000D01*
G75*
G02*
X176038000Y-80297000I225000J0D01*
G01*
X176488000Y-80297000D01*
G75*
G02*
X176713000Y-80522000I0J-225000D01*
G01*
X176713000Y-81022000D01*
G75*
G02*
X176488000Y-81247000I-225000J0D01*
G01*
X176038000Y-81247000D01*
G75*
G02*
X175813000Y-81022000I0J225000D01*
G01*
G37*
G04 #@! TD*
D10*
G04 #@! TO.C,J4*
X147828000Y-74930000D03*
D11*
X147828000Y-80010000D03*
G04 #@! TD*
D12*
G04 #@! TO.C,U2*
X165592000Y-78994000D03*
X163592000Y-79944000D03*
X163592000Y-78044000D03*
G04 #@! TD*
G04 #@! TO.C,R3*
G36*
G01*
X164167000Y-82529000D02*
X164167000Y-83079000D01*
G75*
G02*
X163967000Y-83279000I-200000J0D01*
G01*
X163567000Y-83279000D01*
G75*
G02*
X163367000Y-83079000I0J200000D01*
G01*
X163367000Y-82529000D01*
G75*
G02*
X163567000Y-82329000I200000J0D01*
G01*
X163967000Y-82329000D01*
G75*
G02*
X164167000Y-82529000I0J-200000D01*
G01*
G37*
G36*
G01*
X165817000Y-82529000D02*
X165817000Y-83079000D01*
G75*
G02*
X165617000Y-83279000I-200000J0D01*
G01*
X165217000Y-83279000D01*
G75*
G02*
X165017000Y-83079000I0J200000D01*
G01*
X165017000Y-82529000D01*
G75*
G02*
X165217000Y-82329000I200000J0D01*
G01*
X165617000Y-82329000D01*
G75*
G02*
X165817000Y-82529000I0J-200000D01*
G01*
G37*
G04 #@! TD*
G04 #@! TO.C,R2*
G36*
G01*
X164167000Y-85069000D02*
X164167000Y-85619000D01*
G75*
G02*
X163967000Y-85819000I-200000J0D01*
G01*
X163567000Y-85819000D01*
G75*
G02*
X163367000Y-85619000I0J200000D01*
G01*
X163367000Y-85069000D01*
G75*
G02*
X163567000Y-84869000I200000J0D01*
G01*
X163967000Y-84869000D01*
G75*
G02*
X164167000Y-85069000I0J-200000D01*
G01*
G37*
G36*
G01*
X165817000Y-85069000D02*
X165817000Y-85619000D01*
G75*
G02*
X165617000Y-85819000I-200000J0D01*
G01*
X165217000Y-85819000D01*
G75*
G02*
X165017000Y-85619000I0J200000D01*
G01*
X165017000Y-85069000D01*
G75*
G02*
X165217000Y-84869000I200000J0D01*
G01*
X165617000Y-84869000D01*
G75*
G02*
X165817000Y-85069000I0J-200000D01*
G01*
G37*
G04 #@! TD*
D13*
G04 #@! TO.C,J1*
X181356000Y-88138000D03*
X183896000Y-88138000D03*
X186436000Y-88138000D03*
D14*
X188976000Y-88138000D03*
G04 #@! TD*
G04 #@! TO.C,D2*
G36*
G01*
X168752000Y-83060250D02*
X168752000Y-82547750D01*
G75*
G02*
X168970750Y-82329000I218750J0D01*
G01*
X169408250Y-82329000D01*
G75*
G02*
X169627000Y-82547750I0J-218750D01*
G01*
X169627000Y-83060250D01*
G75*
G02*
X169408250Y-83279000I-218750J0D01*
G01*
X168970750Y-83279000D01*
G75*
G02*
X168752000Y-83060250I0J218750D01*
G01*
G37*
G36*
G01*
X167177000Y-83060250D02*
X167177000Y-82547750D01*
G75*
G02*
X167395750Y-82329000I218750J0D01*
G01*
X167833250Y-82329000D01*
G75*
G02*
X168052000Y-82547750I0J-218750D01*
G01*
X168052000Y-83060250D01*
G75*
G02*
X167833250Y-83279000I-218750J0D01*
G01*
X167395750Y-83279000D01*
G75*
G02*
X167177000Y-83060250I0J218750D01*
G01*
G37*
G04 #@! TD*
G04 #@! TO.C,D1*
G36*
G01*
X168752000Y-85600250D02*
X168752000Y-85087750D01*
G75*
G02*
X168970750Y-84869000I218750J0D01*
G01*
X169408250Y-84869000D01*
G75*
G02*
X169627000Y-85087750I0J-218750D01*
G01*
X169627000Y-85600250D01*
G75*
G02*
X169408250Y-85819000I-218750J0D01*
G01*
X168970750Y-85819000D01*
G75*
G02*
X168752000Y-85600250I0J218750D01*
G01*
G37*
G36*
G01*
X167177000Y-85600250D02*
X167177000Y-85087750D01*
G75*
G02*
X167395750Y-84869000I218750J0D01*
G01*
X167833250Y-84869000D01*
G75*
G02*
X168052000Y-85087750I0J-218750D01*
G01*
X168052000Y-85600250D01*
G75*
G02*
X167833250Y-85819000I-218750J0D01*
G01*
X167395750Y-85819000D01*
G75*
G02*
X167177000Y-85600250I0J218750D01*
G01*
G37*
G04 #@! TD*
D15*
G04 #@! TO.C,Y2*
X201846000Y-73064000D03*
X204046000Y-73064000D03*
X204046000Y-74764000D03*
X201846000Y-74764000D03*
G04 #@! TD*
G04 #@! TO.C,Y1*
X177630000Y-84670000D03*
X175430000Y-84670000D03*
X175430000Y-82970000D03*
X177630000Y-82970000D03*
G04 #@! TD*
G04 #@! TO.C,U1*
G36*
G01*
X157456000Y-75969000D02*
X157456000Y-75669000D01*
G75*
G02*
X157606000Y-75519000I150000J0D01*
G01*
X159256000Y-75519000D01*
G75*
G02*
X159406000Y-75669000I0J-150000D01*
G01*
X159406000Y-75969000D01*
G75*
G02*
X159256000Y-76119000I-150000J0D01*
G01*
X157606000Y-76119000D01*
G75*
G02*
X157456000Y-75969000I0J150000D01*
G01*
G37*
G36*
G01*
X157456000Y-77239000D02*
X157456000Y-76939000D01*
G75*
G02*
X157606000Y-76789000I150000J0D01*
G01*
X159256000Y-76789000D01*
G75*
G02*
X159406000Y-76939000I0J-150000D01*
G01*
X159406000Y-77239000D01*
G75*
G02*
X159256000Y-77389000I-150000J0D01*
G01*
X157606000Y-77389000D01*
G75*
G02*
X157456000Y-77239000I0J150000D01*
G01*
G37*
G36*
G01*
X157456000Y-78509000D02*
X157456000Y-78209000D01*
G75*
G02*
X157606000Y-78059000I150000J0D01*
G01*
X159256000Y-78059000D01*
G75*
G02*
X159406000Y-78209000I0J-150000D01*
G01*
X159406000Y-78509000D01*
G75*
G02*
X159256000Y-78659000I-150000J0D01*
G01*
X157606000Y-78659000D01*
G75*
G02*
X157456000Y-78509000I0J150000D01*
G01*
G37*
G36*
G01*
X157456000Y-79779000D02*
X157456000Y-79479000D01*
G75*
G02*
X157606000Y-79329000I150000J0D01*
G01*
X159256000Y-79329000D01*
G75*
G02*
X159406000Y-79479000I0J-150000D01*
G01*
X159406000Y-79779000D01*
G75*
G02*
X159256000Y-79929000I-150000J0D01*
G01*
X157606000Y-79929000D01*
G75*
G02*
X157456000Y-79779000I0J150000D01*
G01*
G37*
G36*
G01*
X152506000Y-79779000D02*
X152506000Y-79479000D01*
G75*
G02*
X152656000Y-79329000I150000J0D01*
G01*
X154306000Y-79329000D01*
G75*
G02*
X154456000Y-79479000I0J-150000D01*
G01*
X154456000Y-79779000D01*
G75*
G02*
X154306000Y-79929000I-150000J0D01*
G01*
X152656000Y-79929000D01*
G75*
G02*
X152506000Y-79779000I0J150000D01*
G01*
G37*
G36*
G01*
X152506000Y-78509000D02*
X152506000Y-78209000D01*
G75*
G02*
X152656000Y-78059000I150000J0D01*
G01*
X154306000Y-78059000D01*
G75*
G02*
X154456000Y-78209000I0J-150000D01*
G01*
X154456000Y-78509000D01*
G75*
G02*
X154306000Y-78659000I-150000J0D01*
G01*
X152656000Y-78659000D01*
G75*
G02*
X152506000Y-78509000I0J150000D01*
G01*
G37*
G36*
G01*
X152506000Y-77239000D02*
X152506000Y-76939000D01*
G75*
G02*
X152656000Y-76789000I150000J0D01*
G01*
X154306000Y-76789000D01*
G75*
G02*
X154456000Y-76939000I0J-150000D01*
G01*
X154456000Y-77239000D01*
G75*
G02*
X154306000Y-77389000I-150000J0D01*
G01*
X152656000Y-77389000D01*
G75*
G02*
X152506000Y-77239000I0J150000D01*
G01*
G37*
G36*
G01*
X152506000Y-75969000D02*
X152506000Y-75669000D01*
G75*
G02*
X152656000Y-75519000I150000J0D01*
G01*
X154306000Y-75519000D01*
G75*
G02*
X154456000Y-75669000I0J-150000D01*
G01*
X154456000Y-75969000D01*
G75*
G02*
X154306000Y-76119000I-150000J0D01*
G01*
X152656000Y-76119000D01*
G75*
G02*
X152506000Y-75969000I0J150000D01*
G01*
G37*
G04 #@! TD*
D16*
G04 #@! TO.C,TP2*
X199390000Y-88392000D03*
G04 #@! TD*
G04 #@! TO.C,TP3*
X193548000Y-88138000D03*
G04 #@! TD*
G04 #@! TO.C,TP1*
X173482000Y-75438000D03*
G04 #@! TD*
G04 #@! TO.C,TP5*
X187452000Y-72898000D03*
G04 #@! TD*
G04 #@! TO.C,TP4*
X182880000Y-72898000D03*
G04 #@! TD*
G04 #@! TO.C,R4*
G36*
G01*
X210841000Y-87459000D02*
X210291000Y-87459000D01*
G75*
G02*
X210091000Y-87259000I0J200000D01*
G01*
X210091000Y-86859000D01*
G75*
G02*
X210291000Y-86659000I200000J0D01*
G01*
X210841000Y-86659000D01*
G75*
G02*
X211041000Y-86859000I0J-200000D01*
G01*
X211041000Y-87259000D01*
G75*
G02*
X210841000Y-87459000I-200000J0D01*
G01*
G37*
G36*
G01*
X210841000Y-89109000D02*
X210291000Y-89109000D01*
G75*
G02*
X210091000Y-88909000I0J200000D01*
G01*
X210091000Y-88509000D01*
G75*
G02*
X210291000Y-88309000I200000J0D01*
G01*
X210841000Y-88309000D01*
G75*
G02*
X211041000Y-88509000I0J-200000D01*
G01*
X211041000Y-88909000D01*
G75*
G02*
X210841000Y-89109000I-200000J0D01*
G01*
G37*
G04 #@! TD*
D17*
G04 #@! TO.C,J3*
X211866000Y-78034000D03*
X211866000Y-85034000D03*
D18*
X211866000Y-78634000D03*
X211866000Y-84434000D03*
D19*
X211866000Y-80534000D03*
X211866000Y-82534000D03*
D20*
X209166000Y-79034000D03*
X209166000Y-84034000D03*
D21*
X209166000Y-80234000D03*
X209166000Y-80884000D03*
X209166000Y-81534000D03*
X209166000Y-82184000D03*
X209166000Y-82834000D03*
G04 #@! TD*
D22*
G04 #@! TO.C,D3*
X208702000Y-73030000D03*
X208702000Y-74930000D03*
X206502000Y-74930000D03*
D15*
X206502000Y-73210000D03*
G04 #@! TD*
G04 #@! TO.C,C1*
G36*
G01*
X161032000Y-78669000D02*
X160532000Y-78669000D01*
G75*
G02*
X160307000Y-78444000I0J225000D01*
G01*
X160307000Y-77994000D01*
G75*
G02*
X160532000Y-77769000I225000J0D01*
G01*
X161032000Y-77769000D01*
G75*
G02*
X161257000Y-77994000I0J-225000D01*
G01*
X161257000Y-78444000D01*
G75*
G02*
X161032000Y-78669000I-225000J0D01*
G01*
G37*
G36*
G01*
X161032000Y-80219000D02*
X160532000Y-80219000D01*
G75*
G02*
X160307000Y-79994000I0J225000D01*
G01*
X160307000Y-79544000D01*
G75*
G02*
X160532000Y-79319000I225000J0D01*
G01*
X161032000Y-79319000D01*
G75*
G02*
X161257000Y-79544000I0J-225000D01*
G01*
X161257000Y-79994000D01*
G75*
G02*
X161032000Y-80219000I-225000J0D01*
G01*
G37*
G04 #@! TD*
G04 #@! TO.C,C2*
G36*
G01*
X177475000Y-76204000D02*
X177475000Y-76704000D01*
G75*
G02*
X177250000Y-76929000I-225000J0D01*
G01*
X176800000Y-76929000D01*
G75*
G02*
X176575000Y-76704000I0J225000D01*
G01*
X176575000Y-76204000D01*
G75*
G02*
X176800000Y-75979000I225000J0D01*
G01*
X177250000Y-75979000D01*
G75*
G02*
X177475000Y-76204000I0J-225000D01*
G01*
G37*
G36*
G01*
X179025000Y-76204000D02*
X179025000Y-76704000D01*
G75*
G02*
X178800000Y-76929000I-225000J0D01*
G01*
X178350000Y-76929000D01*
G75*
G02*
X178125000Y-76704000I0J225000D01*
G01*
X178125000Y-76204000D01*
G75*
G02*
X178350000Y-75979000I225000J0D01*
G01*
X178800000Y-75979000D01*
G75*
G02*
X179025000Y-76204000I0J-225000D01*
G01*
G37*
G04 #@! TD*
G04 #@! TO.C,C7*
G36*
G01*
X209292000Y-87559000D02*
X208792000Y-87559000D01*
G75*
G02*
X208567000Y-87334000I0J225000D01*
G01*
X208567000Y-86884000D01*
G75*
G02*
X208792000Y-86659000I225000J0D01*
G01*
X209292000Y-86659000D01*
G75*
G02*
X209517000Y-86884000I0J-225000D01*
G01*
X209517000Y-87334000D01*
G75*
G02*
X209292000Y-87559000I-225000J0D01*
G01*
G37*
G36*
G01*
X209292000Y-89109000D02*
X208792000Y-89109000D01*
G75*
G02*
X208567000Y-88884000I0J225000D01*
G01*
X208567000Y-88434000D01*
G75*
G02*
X208792000Y-88209000I225000J0D01*
G01*
X209292000Y-88209000D01*
G75*
G02*
X209517000Y-88434000I0J-225000D01*
G01*
X209517000Y-88884000D01*
G75*
G02*
X209292000Y-89109000I-225000J0D01*
G01*
G37*
G04 #@! TD*
G04 #@! TO.C,C8*
G36*
G01*
X194734000Y-76204000D02*
X194734000Y-76704000D01*
G75*
G02*
X194509000Y-76929000I-225000J0D01*
G01*
X194059000Y-76929000D01*
G75*
G02*
X193834000Y-76704000I0J225000D01*
G01*
X193834000Y-76204000D01*
G75*
G02*
X194059000Y-75979000I225000J0D01*
G01*
X194509000Y-75979000D01*
G75*
G02*
X194734000Y-76204000I0J-225000D01*
G01*
G37*
G36*
G01*
X196284000Y-76204000D02*
X196284000Y-76704000D01*
G75*
G02*
X196059000Y-76929000I-225000J0D01*
G01*
X195609000Y-76929000D01*
G75*
G02*
X195384000Y-76704000I0J225000D01*
G01*
X195384000Y-76204000D01*
G75*
G02*
X195609000Y-75979000I225000J0D01*
G01*
X196059000Y-75979000D01*
G75*
G02*
X196284000Y-76204000I0J-225000D01*
G01*
G37*
G04 #@! TD*
G04 #@! TO.C,C3*
G36*
G01*
X205744000Y-88209000D02*
X206244000Y-88209000D01*
G75*
G02*
X206469000Y-88434000I0J-225000D01*
G01*
X206469000Y-88884000D01*
G75*
G02*
X206244000Y-89109000I-225000J0D01*
G01*
X205744000Y-89109000D01*
G75*
G02*
X205519000Y-88884000I0J225000D01*
G01*
X205519000Y-88434000D01*
G75*
G02*
X205744000Y-88209000I225000J0D01*
G01*
G37*
G36*
G01*
X205744000Y-86659000D02*
X206244000Y-86659000D01*
G75*
G02*
X206469000Y-86884000I0J-225000D01*
G01*
X206469000Y-87334000D01*
G75*
G02*
X206244000Y-87559000I-225000J0D01*
G01*
X205744000Y-87559000D01*
G75*
G02*
X205519000Y-87334000I0J225000D01*
G01*
X205519000Y-86884000D01*
G75*
G02*
X205744000Y-86659000I225000J0D01*
G01*
G37*
G04 #@! TD*
G04 #@! TO.C,C11*
G36*
G01*
X204033000Y-87880000D02*
X204033000Y-87380000D01*
G75*
G02*
X204258000Y-87155000I225000J0D01*
G01*
X204708000Y-87155000D01*
G75*
G02*
X204933000Y-87380000I0J-225000D01*
G01*
X204933000Y-87880000D01*
G75*
G02*
X204708000Y-88105000I-225000J0D01*
G01*
X204258000Y-88105000D01*
G75*
G02*
X204033000Y-87880000I0J225000D01*
G01*
G37*
G36*
G01*
X202483000Y-87880000D02*
X202483000Y-87380000D01*
G75*
G02*
X202708000Y-87155000I225000J0D01*
G01*
X203158000Y-87155000D01*
G75*
G02*
X203383000Y-87380000I0J-225000D01*
G01*
X203383000Y-87880000D01*
G75*
G02*
X203158000Y-88105000I-225000J0D01*
G01*
X202708000Y-88105000D01*
G75*
G02*
X202483000Y-87880000I0J225000D01*
G01*
G37*
G04 #@! TD*
G04 #@! TO.C,C12*
G36*
G01*
X207268000Y-88209000D02*
X207768000Y-88209000D01*
G75*
G02*
X207993000Y-88434000I0J-225000D01*
G01*
X207993000Y-88884000D01*
G75*
G02*
X207768000Y-89109000I-225000J0D01*
G01*
X207268000Y-89109000D01*
G75*
G02*
X207043000Y-88884000I0J225000D01*
G01*
X207043000Y-88434000D01*
G75*
G02*
X207268000Y-88209000I225000J0D01*
G01*
G37*
G36*
G01*
X207268000Y-86659000D02*
X207768000Y-86659000D01*
G75*
G02*
X207993000Y-86884000I0J-225000D01*
G01*
X207993000Y-87334000D01*
G75*
G02*
X207768000Y-87559000I-225000J0D01*
G01*
X207268000Y-87559000D01*
G75*
G02*
X207043000Y-87334000I0J225000D01*
G01*
X207043000Y-86884000D01*
G75*
G02*
X207268000Y-86659000I225000J0D01*
G01*
G37*
G04 #@! TD*
G04 #@! TO.C,C10*
G36*
G01*
X198798000Y-72648000D02*
X198798000Y-73148000D01*
G75*
G02*
X198573000Y-73373000I-225000J0D01*
G01*
X198123000Y-73373000D01*
G75*
G02*
X197898000Y-73148000I0J225000D01*
G01*
X197898000Y-72648000D01*
G75*
G02*
X198123000Y-72423000I225000J0D01*
G01*
X198573000Y-72423000D01*
G75*
G02*
X198798000Y-72648000I0J-225000D01*
G01*
G37*
G36*
G01*
X200348000Y-72648000D02*
X200348000Y-73148000D01*
G75*
G02*
X200123000Y-73373000I-225000J0D01*
G01*
X199673000Y-73373000D01*
G75*
G02*
X199448000Y-73148000I0J225000D01*
G01*
X199448000Y-72648000D01*
G75*
G02*
X199673000Y-72423000I225000J0D01*
G01*
X200123000Y-72423000D01*
G75*
G02*
X200348000Y-72648000I0J-225000D01*
G01*
G37*
G04 #@! TD*
G04 #@! TO.C,R1*
G36*
G01*
X173757000Y-78569000D02*
X173207000Y-78569000D01*
G75*
G02*
X173007000Y-78369000I0J200000D01*
G01*
X173007000Y-77969000D01*
G75*
G02*
X173207000Y-77769000I200000J0D01*
G01*
X173757000Y-77769000D01*
G75*
G02*
X173957000Y-77969000I0J-200000D01*
G01*
X173957000Y-78369000D01*
G75*
G02*
X173757000Y-78569000I-200000J0D01*
G01*
G37*
G36*
G01*
X173757000Y-80219000D02*
X173207000Y-80219000D01*
G75*
G02*
X173007000Y-80019000I0J200000D01*
G01*
X173007000Y-79619000D01*
G75*
G02*
X173207000Y-79419000I200000J0D01*
G01*
X173757000Y-79419000D01*
G75*
G02*
X173957000Y-79619000I0J-200000D01*
G01*
X173957000Y-80019000D01*
G75*
G02*
X173757000Y-80219000I-200000J0D01*
G01*
G37*
G04 #@! TD*
G04 #@! TO.C,C9*
G36*
G01*
X198811000Y-74680000D02*
X198811000Y-75180000D01*
G75*
G02*
X198586000Y-75405000I-225000J0D01*
G01*
X198136000Y-75405000D01*
G75*
G02*
X197911000Y-75180000I0J225000D01*
G01*
X197911000Y-74680000D01*
G75*
G02*
X198136000Y-74455000I225000J0D01*
G01*
X198586000Y-74455000D01*
G75*
G02*
X198811000Y-74680000I0J-225000D01*
G01*
G37*
G36*
G01*
X200361000Y-74680000D02*
X200361000Y-75180000D01*
G75*
G02*
X200136000Y-75405000I-225000J0D01*
G01*
X199686000Y-75405000D01*
G75*
G02*
X199461000Y-75180000I0J225000D01*
G01*
X199461000Y-74680000D01*
G75*
G02*
X199686000Y-74455000I225000J0D01*
G01*
X200136000Y-74455000D01*
G75*
G02*
X200361000Y-74680000I0J-225000D01*
G01*
G37*
G04 #@! TD*
G04 #@! TO.C,C6*
G36*
G01*
X176700000Y-86364000D02*
X176700000Y-86864000D01*
G75*
G02*
X176475000Y-87089000I-225000J0D01*
G01*
X176025000Y-87089000D01*
G75*
G02*
X175800000Y-86864000I0J225000D01*
G01*
X175800000Y-86364000D01*
G75*
G02*
X176025000Y-86139000I225000J0D01*
G01*
X176475000Y-86139000D01*
G75*
G02*
X176700000Y-86364000I0J-225000D01*
G01*
G37*
G36*
G01*
X178250000Y-86364000D02*
X178250000Y-86864000D01*
G75*
G02*
X178025000Y-87089000I-225000J0D01*
G01*
X177575000Y-87089000D01*
G75*
G02*
X177350000Y-86864000I0J225000D01*
G01*
X177350000Y-86364000D01*
G75*
G02*
X177575000Y-86139000I225000J0D01*
G01*
X178025000Y-86139000D01*
G75*
G02*
X178250000Y-86364000I0J-225000D01*
G01*
G37*
G04 #@! TD*
G04 #@! TO.C,U4*
G36*
G01*
X199922000Y-85829000D02*
X199922000Y-86129000D01*
G75*
G02*
X199772000Y-86279000I-150000J0D01*
G01*
X198122000Y-86279000D01*
G75*
G02*
X197972000Y-86129000I0J150000D01*
G01*
X197972000Y-85829000D01*
G75*
G02*
X198122000Y-85679000I150000J0D01*
G01*
X199772000Y-85679000D01*
G75*
G02*
X199922000Y-85829000I0J-150000D01*
G01*
G37*
G36*
G01*
X199922000Y-84559000D02*
X199922000Y-84859000D01*
G75*
G02*
X199772000Y-85009000I-150000J0D01*
G01*
X198122000Y-85009000D01*
G75*
G02*
X197972000Y-84859000I0J150000D01*
G01*
X197972000Y-84559000D01*
G75*
G02*
X198122000Y-84409000I150000J0D01*
G01*
X199772000Y-84409000D01*
G75*
G02*
X199922000Y-84559000I0J-150000D01*
G01*
G37*
G36*
G01*
X199922000Y-83289000D02*
X199922000Y-83589000D01*
G75*
G02*
X199772000Y-83739000I-150000J0D01*
G01*
X198122000Y-83739000D01*
G75*
G02*
X197972000Y-83589000I0J150000D01*
G01*
X197972000Y-83289000D01*
G75*
G02*
X198122000Y-83139000I150000J0D01*
G01*
X199772000Y-83139000D01*
G75*
G02*
X199922000Y-83289000I0J-150000D01*
G01*
G37*
G36*
G01*
X199922000Y-82019000D02*
X199922000Y-82319000D01*
G75*
G02*
X199772000Y-82469000I-150000J0D01*
G01*
X198122000Y-82469000D01*
G75*
G02*
X197972000Y-82319000I0J150000D01*
G01*
X197972000Y-82019000D01*
G75*
G02*
X198122000Y-81869000I150000J0D01*
G01*
X199772000Y-81869000D01*
G75*
G02*
X199922000Y-82019000I0J-150000D01*
G01*
G37*
G36*
G01*
X199922000Y-80749000D02*
X199922000Y-81049000D01*
G75*
G02*
X199772000Y-81199000I-150000J0D01*
G01*
X198122000Y-81199000D01*
G75*
G02*
X197972000Y-81049000I0J150000D01*
G01*
X197972000Y-80749000D01*
G75*
G02*
X198122000Y-80599000I150000J0D01*
G01*
X199772000Y-80599000D01*
G75*
G02*
X199922000Y-80749000I0J-150000D01*
G01*
G37*
G36*
G01*
X199922000Y-79479000D02*
X199922000Y-79779000D01*
G75*
G02*
X199772000Y-79929000I-150000J0D01*
G01*
X198122000Y-79929000D01*
G75*
G02*
X197972000Y-79779000I0J150000D01*
G01*
X197972000Y-79479000D01*
G75*
G02*
X198122000Y-79329000I150000J0D01*
G01*
X199772000Y-79329000D01*
G75*
G02*
X199922000Y-79479000I0J-150000D01*
G01*
G37*
G36*
G01*
X199922000Y-78209000D02*
X199922000Y-78509000D01*
G75*
G02*
X199772000Y-78659000I-150000J0D01*
G01*
X198122000Y-78659000D01*
G75*
G02*
X197972000Y-78509000I0J150000D01*
G01*
X197972000Y-78209000D01*
G75*
G02*
X198122000Y-78059000I150000J0D01*
G01*
X199772000Y-78059000D01*
G75*
G02*
X199922000Y-78209000I0J-150000D01*
G01*
G37*
G36*
G01*
X199922000Y-76939000D02*
X199922000Y-77239000D01*
G75*
G02*
X199772000Y-77389000I-150000J0D01*
G01*
X198122000Y-77389000D01*
G75*
G02*
X197972000Y-77239000I0J150000D01*
G01*
X197972000Y-76939000D01*
G75*
G02*
X198122000Y-76789000I150000J0D01*
G01*
X199772000Y-76789000D01*
G75*
G02*
X199922000Y-76939000I0J-150000D01*
G01*
G37*
G36*
G01*
X204872000Y-76939000D02*
X204872000Y-77239000D01*
G75*
G02*
X204722000Y-77389000I-150000J0D01*
G01*
X203072000Y-77389000D01*
G75*
G02*
X202922000Y-77239000I0J150000D01*
G01*
X202922000Y-76939000D01*
G75*
G02*
X203072000Y-76789000I150000J0D01*
G01*
X204722000Y-76789000D01*
G75*
G02*
X204872000Y-76939000I0J-150000D01*
G01*
G37*
G36*
G01*
X204872000Y-78209000D02*
X204872000Y-78509000D01*
G75*
G02*
X204722000Y-78659000I-150000J0D01*
G01*
X203072000Y-78659000D01*
G75*
G02*
X202922000Y-78509000I0J150000D01*
G01*
X202922000Y-78209000D01*
G75*
G02*
X203072000Y-78059000I150000J0D01*
G01*
X204722000Y-78059000D01*
G75*
G02*
X204872000Y-78209000I0J-150000D01*
G01*
G37*
G36*
G01*
X204872000Y-79479000D02*
X204872000Y-79779000D01*
G75*
G02*
X204722000Y-79929000I-150000J0D01*
G01*
X203072000Y-79929000D01*
G75*
G02*
X202922000Y-79779000I0J150000D01*
G01*
X202922000Y-79479000D01*
G75*
G02*
X203072000Y-79329000I150000J0D01*
G01*
X204722000Y-79329000D01*
G75*
G02*
X204872000Y-79479000I0J-150000D01*
G01*
G37*
G36*
G01*
X204872000Y-80749000D02*
X204872000Y-81049000D01*
G75*
G02*
X204722000Y-81199000I-150000J0D01*
G01*
X203072000Y-81199000D01*
G75*
G02*
X202922000Y-81049000I0J150000D01*
G01*
X202922000Y-80749000D01*
G75*
G02*
X203072000Y-80599000I150000J0D01*
G01*
X204722000Y-80599000D01*
G75*
G02*
X204872000Y-80749000I0J-150000D01*
G01*
G37*
G36*
G01*
X204872000Y-82019000D02*
X204872000Y-82319000D01*
G75*
G02*
X204722000Y-82469000I-150000J0D01*
G01*
X203072000Y-82469000D01*
G75*
G02*
X202922000Y-82319000I0J150000D01*
G01*
X202922000Y-82019000D01*
G75*
G02*
X203072000Y-81869000I150000J0D01*
G01*
X204722000Y-81869000D01*
G75*
G02*
X204872000Y-82019000I0J-150000D01*
G01*
G37*
G36*
G01*
X204872000Y-83289000D02*
X204872000Y-83589000D01*
G75*
G02*
X204722000Y-83739000I-150000J0D01*
G01*
X203072000Y-83739000D01*
G75*
G02*
X202922000Y-83589000I0J150000D01*
G01*
X202922000Y-83289000D01*
G75*
G02*
X203072000Y-83139000I150000J0D01*
G01*
X204722000Y-83139000D01*
G75*
G02*
X204872000Y-83289000I0J-150000D01*
G01*
G37*
G36*
G01*
X204872000Y-84559000D02*
X204872000Y-84859000D01*
G75*
G02*
X204722000Y-85009000I-150000J0D01*
G01*
X203072000Y-85009000D01*
G75*
G02*
X202922000Y-84859000I0J150000D01*
G01*
X202922000Y-84559000D01*
G75*
G02*
X203072000Y-84409000I150000J0D01*
G01*
X204722000Y-84409000D01*
G75*
G02*
X204872000Y-84559000I0J-150000D01*
G01*
G37*
G36*
G01*
X204872000Y-85829000D02*
X204872000Y-86129000D01*
G75*
G02*
X204722000Y-86279000I-150000J0D01*
G01*
X203072000Y-86279000D01*
G75*
G02*
X202922000Y-86129000I0J150000D01*
G01*
X202922000Y-85829000D01*
G75*
G02*
X203072000Y-85679000I150000J0D01*
G01*
X204722000Y-85679000D01*
G75*
G02*
X204872000Y-85829000I0J-150000D01*
G01*
G37*
G04 #@! TD*
D13*
G04 #@! TO.C,J2*
X192532000Y-78994000D03*
X195072000Y-78994000D03*
X192532000Y-81534000D03*
X195072000Y-81534000D03*
X192532000Y-84074000D03*
D14*
X195072000Y-84074000D03*
G04 #@! TD*
D23*
G04 #@! TO.C,U3*
X182112000Y-76776000D03*
X182912000Y-76776000D03*
X183712000Y-76776000D03*
X184512000Y-76776000D03*
X185312000Y-76776000D03*
X186112000Y-76776000D03*
X186912000Y-76776000D03*
X187712000Y-76776000D03*
D24*
X189162000Y-78226000D03*
X189162000Y-79026000D03*
X189162000Y-79826000D03*
X189162000Y-80626000D03*
X189162000Y-81426000D03*
X189162000Y-82226000D03*
X189162000Y-83026000D03*
X189162000Y-83826000D03*
D23*
X187712000Y-85276000D03*
X186912000Y-85276000D03*
X186112000Y-85276000D03*
X185312000Y-85276000D03*
X184512000Y-85276000D03*
X183712000Y-85276000D03*
X182912000Y-85276000D03*
X182112000Y-85276000D03*
D24*
X180662000Y-83826000D03*
X180662000Y-83026000D03*
X180662000Y-82226000D03*
X180662000Y-81426000D03*
X180662000Y-80626000D03*
X180662000Y-79826000D03*
X180662000Y-79026000D03*
X180662000Y-78226000D03*
G04 #@! TD*
D25*
G04 #@! TO.C,SW1*
X167597000Y-77919000D03*
X171747000Y-77919000D03*
X167597000Y-80069000D03*
X171747000Y-80069000D03*
G04 #@! TD*
G04 #@! TO.C,L1*
G36*
G01*
X172837000Y-85725250D02*
X172837000Y-84962750D01*
G75*
G02*
X173055750Y-84744000I218750J0D01*
G01*
X173493250Y-84744000D01*
G75*
G02*
X173712000Y-84962750I0J-218750D01*
G01*
X173712000Y-85725250D01*
G75*
G02*
X173493250Y-85944000I-218750J0D01*
G01*
X173055750Y-85944000D01*
G75*
G02*
X172837000Y-85725250I0J218750D01*
G01*
G37*
G36*
G01*
X170712000Y-85725250D02*
X170712000Y-84962750D01*
G75*
G02*
X170930750Y-84744000I218750J0D01*
G01*
X171368250Y-84744000D01*
G75*
G02*
X171587000Y-84962750I0J-218750D01*
G01*
X171587000Y-85725250D01*
G75*
G02*
X171368250Y-85944000I-218750J0D01*
G01*
X170930750Y-85944000D01*
G75*
G02*
X170712000Y-85725250I0J218750D01*
G01*
G37*
G04 #@! TD*
G04 #@! TO.C,C4*
G36*
G01*
X171828000Y-81821000D02*
X171828000Y-82771000D01*
G75*
G02*
X171578000Y-83021000I-250000J0D01*
G01*
X171078000Y-83021000D01*
G75*
G02*
X170828000Y-82771000I0J250000D01*
G01*
X170828000Y-81821000D01*
G75*
G02*
X171078000Y-81571000I250000J0D01*
G01*
X171578000Y-81571000D01*
G75*
G02*
X171828000Y-81821000I0J-250000D01*
G01*
G37*
G36*
G01*
X173728000Y-81821000D02*
X173728000Y-82771000D01*
G75*
G02*
X173478000Y-83021000I-250000J0D01*
G01*
X172978000Y-83021000D01*
G75*
G02*
X172728000Y-82771000I0J250000D01*
G01*
X172728000Y-81821000D01*
G75*
G02*
X172978000Y-81571000I250000J0D01*
G01*
X173478000Y-81571000D01*
G75*
G02*
X173728000Y-81821000I0J-250000D01*
G01*
G37*
G04 #@! TD*
M02*
