G04 #@! TF.GenerationSoftware,KiCad,Pcbnew,5.1.12-84ad8e8a86~92~ubuntu20.04.1*
G04 #@! TF.CreationDate,2021-11-23T01:14:47+00:00*
G04 #@! TF.ProjectId,atmega-demo,61746d65-6761-42d6-9465-6d6f2e6b6963,rev?*
G04 #@! TF.SameCoordinates,Original*
G04 #@! TF.FileFunction,Copper,L3,Inr*
G04 #@! TF.FilePolarity,Positive*
%FSLAX46Y46*%
G04 Gerber Fmt 4.6, Leading zero omitted, Abs format (unit mm)*
G04 Created by KiCad (PCBNEW 5.1.12-84ad8e8a86~92~ubuntu20.04.1) date 2021-11-23 01:14:47*
%MOMM*%
%LPD*%
G01*
G04 APERTURE LIST*
G04 #@! TA.AperFunction,ComponentPad*
%ADD10C,3.000000*%
G04 #@! TD*
G04 #@! TA.AperFunction,ComponentPad*
%ADD11R,3.000000X3.000000*%
G04 #@! TD*
G04 #@! TA.AperFunction,ComponentPad*
%ADD12O,1.700000X1.700000*%
G04 #@! TD*
G04 #@! TA.AperFunction,ComponentPad*
%ADD13R,1.700000X1.700000*%
G04 #@! TD*
G04 #@! TA.AperFunction,ComponentPad*
%ADD14O,1.550000X0.890000*%
G04 #@! TD*
G04 #@! TA.AperFunction,ComponentPad*
%ADD15O,0.950000X1.250000*%
G04 #@! TD*
G04 #@! TA.AperFunction,ViaPad*
%ADD16C,0.800000*%
G04 #@! TD*
G04 #@! TA.AperFunction,Conductor*
%ADD17C,0.250000*%
G04 #@! TD*
G04 APERTURE END LIST*
D10*
G04 #@! TO.N,Net-(J4-Pad2)*
G04 #@! TO.C,J4*
X147828000Y-74930000D03*
D11*
G04 #@! TO.N,Net-(J4-Pad1)*
X147828000Y-80010000D03*
G04 #@! TD*
D12*
G04 #@! TO.N,Net-(J1-Pad4)*
G04 #@! TO.C,J1*
X181356000Y-88138000D03*
G04 #@! TO.N,Net-(J1-Pad3)*
X183896000Y-88138000D03*
G04 #@! TO.N,Net-(J1-Pad2)*
X186436000Y-88138000D03*
D13*
G04 #@! TO.N,Net-(J1-Pad1)*
X188976000Y-88138000D03*
G04 #@! TD*
D14*
G04 #@! TO.N,Net-(C7-Pad2)*
G04 #@! TO.C,J3*
X211866000Y-78034000D03*
X211866000Y-85034000D03*
D15*
X209166000Y-79034000D03*
X209166000Y-84034000D03*
G04 #@! TD*
D12*
G04 #@! TO.N,GND*
G04 #@! TO.C,J2*
X192532000Y-78994000D03*
G04 #@! TO.N,Net-(C8-Pad2)*
X195072000Y-78994000D03*
G04 #@! TO.N,Net-(J2-Pad4)*
X192532000Y-81534000D03*
G04 #@! TO.N,Net-(J2-Pad3)*
X195072000Y-81534000D03*
G04 #@! TO.N,+5V*
X192532000Y-84074000D03*
D13*
G04 #@! TO.N,Net-(J2-Pad1)*
X195072000Y-84074000D03*
G04 #@! TD*
D16*
G04 #@! TO.N,Net-(C8-Pad2)*
X192786000Y-76454000D03*
X185928000Y-74930000D03*
G04 #@! TO.N,+5V*
X178054000Y-75184000D03*
G04 #@! TO.N,TEMP*
X162306000Y-81534000D03*
G04 #@! TO.N,ADC*
X156210000Y-76962000D03*
G04 #@! TO.N,Net-(C10-Pad1)*
X201930000Y-76962000D03*
G04 #@! TO.N,Net-(C9-Pad1)*
X201930000Y-78486000D03*
G04 #@! TO.N,RXD*
X201930000Y-84328000D03*
G04 #@! TO.N,TXD*
X201930000Y-85598000D03*
G04 #@! TO.N,Net-(C11-Pad1)*
X201930000Y-83058000D03*
G04 #@! TO.N,Net-(D3-Pad3)*
X201930000Y-81026000D03*
G04 #@! TO.N,+5V*
X196850000Y-85852000D03*
X210311992Y-73152000D03*
X182626000Y-81534000D03*
X206756000Y-85852000D03*
X161519000Y-75971000D03*
X174581770Y-81005196D03*
G04 #@! TO.N,TEMP*
X186690000Y-78232000D03*
G04 #@! TO.N,ADC*
X186690000Y-79502000D03*
G04 #@! TO.N,Net-(D3-Pad2)*
X206248000Y-82550000D03*
G04 #@! TO.N,Net-(D3-Pad3)*
X206248000Y-81534000D03*
G04 #@! TO.N,Net-(J2-Pad4)*
X186690000Y-83566000D03*
G04 #@! TO.N,Net-(J1-Pad4)*
X182626000Y-78994000D03*
X179578000Y-88138000D03*
G04 #@! TO.N,Net-(C9-Pad1)*
X200523680Y-74041000D03*
G04 #@! TO.N,Net-(D1-Pad2)*
X180848000Y-76961996D03*
X169189496Y-86842504D03*
G04 #@! TO.N,RXD*
X190246000Y-72898000D03*
G04 #@! TO.N,TXD*
X180086000Y-72898000D03*
G04 #@! TO.N,Net-(C7-Pad2)*
X210340497Y-72107503D03*
G04 #@! TO.N,Net-(C8-Pad2)*
X176276000Y-74930000D03*
G04 #@! TO.N,Net-(C10-Pad1)*
X205201988Y-72898000D03*
G04 #@! TO.N,Net-(C11-Pad1)*
X202946000Y-89154000D03*
G04 #@! TO.N,Net-(D2-Pad2)*
X180848000Y-75183988D03*
X169112132Y-81244010D03*
G04 #@! TO.N,Net-(D3-Pad3)*
X196342000Y-87630000D03*
X208534000Y-76454000D03*
G04 #@! TO.N,Net-(D3-Pad2)*
X196596000Y-88900000D03*
X206506660Y-76449340D03*
X201887817Y-79936011D03*
G04 #@! TO.N,Net-(J2-Pad1)*
X188976012Y-85344000D03*
G04 #@! TD*
D17*
G04 #@! TO.N,Net-(C9-Pad1)*
X200528340Y-77084340D02*
X200528340Y-74045660D01*
X200528340Y-74045660D02*
X200523680Y-74041000D01*
X201930000Y-78486000D02*
X200528340Y-77084340D01*
G04 #@! TO.N,ADC*
X186690000Y-79502000D02*
X180557001Y-85634999D01*
X156609999Y-77361999D02*
X156210000Y-76962000D01*
X180557001Y-85634999D02*
X164882999Y-85634999D01*
X164882999Y-85634999D02*
X156609999Y-77361999D01*
G04 #@! TO.N,Net-(C7-Pad2)*
X211036993Y-72803999D02*
X210340497Y-72107503D01*
X211036993Y-77204993D02*
X211866000Y-78034000D01*
X211036993Y-72803999D02*
X211036993Y-77204993D01*
G04 #@! TO.N,Net-(C10-Pad1)*
X201930000Y-76962000D02*
X201930000Y-76169988D01*
X201930000Y-76169988D02*
X205201988Y-72898000D01*
G04 #@! TO.N,Net-(D3-Pad3)*
X206248000Y-78740000D02*
X208534000Y-76454000D01*
X206248000Y-81534000D02*
X206248000Y-78740000D01*
G04 #@! TO.N,Net-(D3-Pad2)*
X200406000Y-81417828D02*
X201887817Y-79936011D01*
X206248000Y-82550000D02*
X204501806Y-82550000D01*
X203019989Y-79936011D02*
X201887817Y-79936011D01*
X200406000Y-85090000D02*
X200406000Y-81417828D01*
X196596000Y-88900000D02*
X200406000Y-85090000D01*
X204501806Y-82550000D02*
X201887817Y-79936011D01*
X206506660Y-76449340D02*
X203019989Y-79936011D01*
G04 #@! TO.N,TEMP*
X186690000Y-78232000D02*
X165608000Y-78232000D01*
X165608000Y-78232000D02*
X162306000Y-81534000D01*
G04 #@! TD*
M02*
