G04 #@! TF.GenerationSoftware,KiCad,Pcbnew,5.1.12-84ad8e8a86~92~ubuntu20.04.1*
G04 #@! TF.CreationDate,2021-11-23T01:14:47+00:00*
G04 #@! TF.ProjectId,atmega-demo,61746d65-6761-42d6-9465-6d6f2e6b6963,rev?*
G04 #@! TF.SameCoordinates,Original*
G04 #@! TF.FileFunction,Legend,Top*
G04 #@! TF.FilePolarity,Positive*
%FSLAX46Y46*%
G04 Gerber Fmt 4.6, Leading zero omitted, Abs format (unit mm)*
G04 Created by KiCad (PCBNEW 5.1.12-84ad8e8a86~92~ubuntu20.04.1) date 2021-11-23 01:14:47*
%MOMM*%
%LPD*%
G01*
G04 APERTURE LIST*
%ADD10C,0.150000*%
%ADD11C,0.120000*%
%ADD12C,3.000000*%
%ADD13R,3.000000X3.000000*%
%ADD14R,0.900000X0.800000*%
%ADD15O,1.700000X1.700000*%
%ADD16R,1.700000X1.700000*%
%ADD17R,1.400000X1.200000*%
%ADD18R,3.400000X1.800000*%
%ADD19O,1.550000X0.890000*%
%ADD20R,1.550000X1.200000*%
%ADD21R,1.550000X1.500000*%
%ADD22O,0.950000X1.250000*%
%ADD23R,1.350000X0.400000*%
%ADD24R,1.400000X1.000000*%
%ADD25R,0.550000X1.600000*%
%ADD26R,1.600000X0.550000*%
%ADD27R,1.050000X0.650000*%
G04 APERTURE END LIST*
D10*
X146337523Y-88431714D02*
X146337523Y-89241238D01*
X146289904Y-89336476D01*
X146242285Y-89384095D01*
X146147047Y-89431714D01*
X146004190Y-89431714D01*
X145908952Y-89384095D01*
X146337523Y-89050761D02*
X146242285Y-89098380D01*
X146051809Y-89098380D01*
X145956571Y-89050761D01*
X145908952Y-89003142D01*
X145861333Y-88907904D01*
X145861333Y-88622190D01*
X145908952Y-88526952D01*
X145956571Y-88479333D01*
X146051809Y-88431714D01*
X146242285Y-88431714D01*
X146337523Y-88479333D01*
X146813714Y-89098380D02*
X146813714Y-88431714D01*
X146813714Y-88098380D02*
X146766095Y-88146000D01*
X146813714Y-88193619D01*
X146861333Y-88146000D01*
X146813714Y-88098380D01*
X146813714Y-88193619D01*
X147147047Y-88431714D02*
X147528000Y-88431714D01*
X147289904Y-88098380D02*
X147289904Y-88955523D01*
X147337523Y-89050761D01*
X147432761Y-89098380D01*
X147528000Y-89098380D01*
X147861333Y-89098380D02*
X147861333Y-88098380D01*
X148289904Y-89098380D02*
X148289904Y-88574571D01*
X148242285Y-88479333D01*
X148147047Y-88431714D01*
X148004190Y-88431714D01*
X147908952Y-88479333D01*
X147861333Y-88526952D01*
X149194666Y-88431714D02*
X149194666Y-89098380D01*
X148766095Y-88431714D02*
X148766095Y-88955523D01*
X148813714Y-89050761D01*
X148908952Y-89098380D01*
X149051809Y-89098380D01*
X149147047Y-89050761D01*
X149194666Y-89003142D01*
X149670857Y-89098380D02*
X149670857Y-88098380D01*
X149670857Y-88479333D02*
X149766095Y-88431714D01*
X149956571Y-88431714D01*
X150051809Y-88479333D01*
X150099428Y-88526952D01*
X150147047Y-88622190D01*
X150147047Y-88907904D01*
X150099428Y-89003142D01*
X150051809Y-89050761D01*
X149956571Y-89098380D01*
X149766095Y-89098380D01*
X149670857Y-89050761D01*
X150575619Y-89003142D02*
X150623238Y-89050761D01*
X150575619Y-89098380D01*
X150528000Y-89050761D01*
X150575619Y-89003142D01*
X150575619Y-89098380D01*
X151480380Y-89050761D02*
X151385142Y-89098380D01*
X151194666Y-89098380D01*
X151099428Y-89050761D01*
X151051809Y-89003142D01*
X151004190Y-88907904D01*
X151004190Y-88622190D01*
X151051809Y-88526952D01*
X151099428Y-88479333D01*
X151194666Y-88431714D01*
X151385142Y-88431714D01*
X151480380Y-88479333D01*
X152051809Y-89098380D02*
X151956571Y-89050761D01*
X151908952Y-89003142D01*
X151861333Y-88907904D01*
X151861333Y-88622190D01*
X151908952Y-88526952D01*
X151956571Y-88479333D01*
X152051809Y-88431714D01*
X152194666Y-88431714D01*
X152289904Y-88479333D01*
X152337523Y-88526952D01*
X152385142Y-88622190D01*
X152385142Y-88907904D01*
X152337523Y-89003142D01*
X152289904Y-89050761D01*
X152194666Y-89098380D01*
X152051809Y-89098380D01*
X152813714Y-89098380D02*
X152813714Y-88431714D01*
X152813714Y-88526952D02*
X152861333Y-88479333D01*
X152956571Y-88431714D01*
X153099428Y-88431714D01*
X153194666Y-88479333D01*
X153242285Y-88574571D01*
X153242285Y-89098380D01*
X153242285Y-88574571D02*
X153289904Y-88479333D01*
X153385142Y-88431714D01*
X153528000Y-88431714D01*
X153623238Y-88479333D01*
X153670857Y-88574571D01*
X153670857Y-89098380D01*
X154861333Y-88050761D02*
X154004190Y-89336476D01*
X155051809Y-88431714D02*
X155432761Y-88431714D01*
X155194666Y-88098380D02*
X155194666Y-88955523D01*
X155242285Y-89050761D01*
X155337523Y-89098380D01*
X155432761Y-89098380D01*
X155766095Y-89098380D02*
X155766095Y-88431714D01*
X155766095Y-88098380D02*
X155718476Y-88146000D01*
X155766095Y-88193619D01*
X155813714Y-88146000D01*
X155766095Y-88098380D01*
X155766095Y-88193619D01*
X156242285Y-89098380D02*
X156242285Y-88431714D01*
X156242285Y-88526952D02*
X156289904Y-88479333D01*
X156385142Y-88431714D01*
X156528000Y-88431714D01*
X156623238Y-88479333D01*
X156670857Y-88574571D01*
X156670857Y-89098380D01*
X156670857Y-88574571D02*
X156718476Y-88479333D01*
X156813714Y-88431714D01*
X156956571Y-88431714D01*
X157051809Y-88479333D01*
X157099428Y-88574571D01*
X157099428Y-89098380D01*
X158004190Y-89098380D02*
X158004190Y-88098380D01*
X158004190Y-89050761D02*
X157908952Y-89098380D01*
X157718476Y-89098380D01*
X157623238Y-89050761D01*
X157575619Y-89003142D01*
X157528000Y-88907904D01*
X157528000Y-88622190D01*
X157575619Y-88526952D01*
X157623238Y-88479333D01*
X157718476Y-88431714D01*
X157908952Y-88431714D01*
X158004190Y-88479333D01*
X158480380Y-89098380D02*
X158480380Y-88431714D01*
X158480380Y-88622190D02*
X158528000Y-88526952D01*
X158575619Y-88479333D01*
X158670857Y-88431714D01*
X158766095Y-88431714D01*
X159004190Y-88431714D02*
X159242285Y-89098380D01*
X159480380Y-88431714D02*
X159242285Y-89098380D01*
X159147047Y-89336476D01*
X159099428Y-89384095D01*
X159004190Y-89431714D01*
X159813714Y-89050761D02*
X159908952Y-89098380D01*
X160099428Y-89098380D01*
X160194666Y-89050761D01*
X160242285Y-88955523D01*
X160242285Y-88907904D01*
X160194666Y-88812666D01*
X160099428Y-88765047D01*
X159956571Y-88765047D01*
X159861333Y-88717428D01*
X159813714Y-88622190D01*
X159813714Y-88574571D01*
X159861333Y-88479333D01*
X159956571Y-88431714D01*
X160099428Y-88431714D01*
X160194666Y-88479333D01*
X161099428Y-89098380D02*
X161099428Y-88098380D01*
X161099428Y-89050761D02*
X161004190Y-89098380D01*
X160813714Y-89098380D01*
X160718476Y-89050761D01*
X160670857Y-89003142D01*
X160623238Y-88907904D01*
X160623238Y-88622190D01*
X160670857Y-88526952D01*
X160718476Y-88479333D01*
X160813714Y-88431714D01*
X161004190Y-88431714D01*
X161099428Y-88479333D01*
X162004190Y-89098380D02*
X162004190Y-88574571D01*
X161956571Y-88479333D01*
X161861333Y-88431714D01*
X161670857Y-88431714D01*
X161575619Y-88479333D01*
X162004190Y-89050761D02*
X161908952Y-89098380D01*
X161670857Y-89098380D01*
X161575619Y-89050761D01*
X161528000Y-88955523D01*
X161528000Y-88860285D01*
X161575619Y-88765047D01*
X161670857Y-88717428D01*
X161908952Y-88717428D01*
X162004190Y-88669809D01*
X162623238Y-89098380D02*
X162528000Y-89050761D01*
X162480380Y-88955523D01*
X162480380Y-88098380D01*
X163385142Y-89050761D02*
X163289904Y-89098380D01*
X163099428Y-89098380D01*
X163004190Y-89050761D01*
X162956571Y-88955523D01*
X162956571Y-88574571D01*
X163004190Y-88479333D01*
X163099428Y-88431714D01*
X163289904Y-88431714D01*
X163385142Y-88479333D01*
X163432761Y-88574571D01*
X163432761Y-88669809D01*
X162956571Y-88765047D01*
X164575619Y-88050761D02*
X163718476Y-89336476D01*
X165337523Y-89098380D02*
X165337523Y-88574571D01*
X165289904Y-88479333D01*
X165194666Y-88431714D01*
X165004190Y-88431714D01*
X164908952Y-88479333D01*
X165337523Y-89050761D02*
X165242285Y-89098380D01*
X165004190Y-89098380D01*
X164908952Y-89050761D01*
X164861333Y-88955523D01*
X164861333Y-88860285D01*
X164908952Y-88765047D01*
X165004190Y-88717428D01*
X165242285Y-88717428D01*
X165337523Y-88669809D01*
X165670857Y-88431714D02*
X166051809Y-88431714D01*
X165813714Y-88098380D02*
X165813714Y-88955523D01*
X165861333Y-89050761D01*
X165956571Y-89098380D01*
X166051809Y-89098380D01*
X166385142Y-89098380D02*
X166385142Y-88431714D01*
X166385142Y-88526952D02*
X166432761Y-88479333D01*
X166528000Y-88431714D01*
X166670857Y-88431714D01*
X166766095Y-88479333D01*
X166813714Y-88574571D01*
X166813714Y-89098380D01*
X166813714Y-88574571D02*
X166861333Y-88479333D01*
X166956571Y-88431714D01*
X167099428Y-88431714D01*
X167194666Y-88479333D01*
X167242285Y-88574571D01*
X167242285Y-89098380D01*
X168099428Y-89050761D02*
X168004190Y-89098380D01*
X167813714Y-89098380D01*
X167718476Y-89050761D01*
X167670857Y-88955523D01*
X167670857Y-88574571D01*
X167718476Y-88479333D01*
X167813714Y-88431714D01*
X168004190Y-88431714D01*
X168099428Y-88479333D01*
X168147047Y-88574571D01*
X168147047Y-88669809D01*
X167670857Y-88765047D01*
X169004190Y-88431714D02*
X169004190Y-89241238D01*
X168956571Y-89336476D01*
X168908952Y-89384095D01*
X168813714Y-89431714D01*
X168670857Y-89431714D01*
X168575619Y-89384095D01*
X169004190Y-89050761D02*
X168908952Y-89098380D01*
X168718476Y-89098380D01*
X168623238Y-89050761D01*
X168575619Y-89003142D01*
X168528000Y-88907904D01*
X168528000Y-88622190D01*
X168575619Y-88526952D01*
X168623238Y-88479333D01*
X168718476Y-88431714D01*
X168908952Y-88431714D01*
X169004190Y-88479333D01*
X169908952Y-89098380D02*
X169908952Y-88574571D01*
X169861333Y-88479333D01*
X169766095Y-88431714D01*
X169575619Y-88431714D01*
X169480380Y-88479333D01*
X169908952Y-89050761D02*
X169813714Y-89098380D01*
X169575619Y-89098380D01*
X169480380Y-89050761D01*
X169432761Y-88955523D01*
X169432761Y-88860285D01*
X169480380Y-88765047D01*
X169575619Y-88717428D01*
X169813714Y-88717428D01*
X169908952Y-88669809D01*
X170385142Y-88717428D02*
X171147047Y-88717428D01*
X172051809Y-89098380D02*
X172051809Y-88098380D01*
X172051809Y-89050761D02*
X171956571Y-89098380D01*
X171766095Y-89098380D01*
X171670857Y-89050761D01*
X171623238Y-89003142D01*
X171575619Y-88907904D01*
X171575619Y-88622190D01*
X171623238Y-88526952D01*
X171670857Y-88479333D01*
X171766095Y-88431714D01*
X171956571Y-88431714D01*
X172051809Y-88479333D01*
X172908952Y-89050761D02*
X172813714Y-89098380D01*
X172623238Y-89098380D01*
X172528000Y-89050761D01*
X172480380Y-88955523D01*
X172480380Y-88574571D01*
X172528000Y-88479333D01*
X172623238Y-88431714D01*
X172813714Y-88431714D01*
X172908952Y-88479333D01*
X172956571Y-88574571D01*
X172956571Y-88669809D01*
X172480380Y-88765047D01*
X173385142Y-89098380D02*
X173385142Y-88431714D01*
X173385142Y-88526952D02*
X173432761Y-88479333D01*
X173528000Y-88431714D01*
X173670857Y-88431714D01*
X173766095Y-88479333D01*
X173813714Y-88574571D01*
X173813714Y-89098380D01*
X173813714Y-88574571D02*
X173861333Y-88479333D01*
X173956571Y-88431714D01*
X174099428Y-88431714D01*
X174194666Y-88479333D01*
X174242285Y-88574571D01*
X174242285Y-89098380D01*
X174861333Y-89098380D02*
X174766095Y-89050761D01*
X174718476Y-89003142D01*
X174670857Y-88907904D01*
X174670857Y-88622190D01*
X174718476Y-88526952D01*
X174766095Y-88479333D01*
X174861333Y-88431714D01*
X175004190Y-88431714D01*
X175099428Y-88479333D01*
X175147047Y-88526952D01*
X175194666Y-88622190D01*
X175194666Y-88907904D01*
X175147047Y-89003142D01*
X175099428Y-89050761D01*
X175004190Y-89098380D01*
X174861333Y-89098380D01*
D11*
G04 #@! TO.C,C5*
X176897420Y-80262000D02*
X177178580Y-80262000D01*
X176897420Y-81282000D02*
X177178580Y-81282000D01*
G04 #@! TO.C,J4*
X150368000Y-72390000D02*
X150368000Y-82550000D01*
X151638000Y-72390000D02*
X144018000Y-72390000D01*
X144018000Y-72390000D02*
X144018000Y-82550000D01*
X144018000Y-82550000D02*
X151638000Y-82550000D01*
X151638000Y-82550000D02*
X151638000Y-72390000D01*
G04 #@! TO.C,U2*
X165352000Y-80574000D02*
X165352000Y-79644000D01*
X165352000Y-77414000D02*
X165352000Y-78344000D01*
X165352000Y-77414000D02*
X163192000Y-77414000D01*
X165352000Y-80574000D02*
X163892000Y-80574000D01*
G04 #@! TO.C,R3*
X164829258Y-83326500D02*
X164354742Y-83326500D01*
X164829258Y-82281500D02*
X164354742Y-82281500D01*
G04 #@! TO.C,R2*
X164829258Y-85866500D02*
X164354742Y-85866500D01*
X164829258Y-84821500D02*
X164354742Y-84821500D01*
G04 #@! TO.C,J1*
X187706000Y-86808000D02*
X187706000Y-89468000D01*
X187706000Y-86808000D02*
X180026000Y-86808000D01*
X180026000Y-86808000D02*
X180026000Y-89468000D01*
X187706000Y-89468000D02*
X180026000Y-89468000D01*
X190306000Y-89468000D02*
X188976000Y-89468000D01*
X190306000Y-88138000D02*
X190306000Y-89468000D01*
G04 #@! TO.C,D2*
X169202000Y-82069000D02*
X166917000Y-82069000D01*
X166917000Y-82069000D02*
X166917000Y-83539000D01*
X166917000Y-83539000D02*
X169202000Y-83539000D01*
G04 #@! TO.C,D1*
X169202000Y-84609000D02*
X166917000Y-84609000D01*
X166917000Y-84609000D02*
X166917000Y-86079000D01*
X166917000Y-86079000D02*
X169202000Y-86079000D01*
G04 #@! TO.C,Y2*
X200946000Y-72264000D02*
X200946000Y-75564000D01*
X200946000Y-75564000D02*
X204946000Y-75564000D01*
G04 #@! TO.C,Y1*
X178530000Y-85470000D02*
X178530000Y-82170000D01*
X178530000Y-82170000D02*
X174530000Y-82170000D01*
G04 #@! TO.C,U1*
X155956000Y-80284000D02*
X157906000Y-80284000D01*
X155956000Y-80284000D02*
X154006000Y-80284000D01*
X155956000Y-75164000D02*
X157906000Y-75164000D01*
X155956000Y-75164000D02*
X152506000Y-75164000D01*
D10*
G04 #@! TO.C,TP2*
X197490000Y-87292000D02*
X201290000Y-87292000D01*
X201290000Y-87292000D02*
X201290000Y-89492000D01*
X201290000Y-89492000D02*
X197490000Y-89492000D01*
X197490000Y-89492000D02*
X197490000Y-87292000D01*
G04 #@! TO.C,TP3*
X191648000Y-87038000D02*
X195448000Y-87038000D01*
X195448000Y-87038000D02*
X195448000Y-89238000D01*
X195448000Y-89238000D02*
X191648000Y-89238000D01*
X191648000Y-89238000D02*
X191648000Y-87038000D01*
G04 #@! TO.C,TP1*
X171582000Y-74338000D02*
X175382000Y-74338000D01*
X175382000Y-74338000D02*
X175382000Y-76538000D01*
X175382000Y-76538000D02*
X171582000Y-76538000D01*
X171582000Y-76538000D02*
X171582000Y-74338000D01*
G04 #@! TO.C,TP5*
X185552000Y-71798000D02*
X189352000Y-71798000D01*
X189352000Y-71798000D02*
X189352000Y-73998000D01*
X189352000Y-73998000D02*
X185552000Y-73998000D01*
X185552000Y-73998000D02*
X185552000Y-71798000D01*
G04 #@! TO.C,TP4*
X180980000Y-71798000D02*
X184780000Y-71798000D01*
X184780000Y-71798000D02*
X184780000Y-73998000D01*
X184780000Y-73998000D02*
X180980000Y-73998000D01*
X180980000Y-73998000D02*
X180980000Y-71798000D01*
D11*
G04 #@! TO.C,R4*
X210043500Y-88121258D02*
X210043500Y-87646742D01*
X211088500Y-88121258D02*
X211088500Y-87646742D01*
G04 #@! TO.C,J3*
X208676000Y-83294000D02*
X208226000Y-83294000D01*
X208226000Y-82844000D02*
X208226000Y-83294000D01*
X208906000Y-85294000D02*
X208906000Y-84874000D01*
X210886000Y-85294000D02*
X208906000Y-85294000D01*
X213256000Y-85294000D02*
X212856000Y-85294000D01*
X212856000Y-77774000D02*
X213256000Y-77774000D01*
X208906000Y-77774000D02*
X208906000Y-78194000D01*
X210886000Y-77774000D02*
X208906000Y-77774000D01*
G04 #@! TO.C,D3*
X206402000Y-75530000D02*
X208802000Y-75530000D01*
X208802000Y-72430000D02*
X205852000Y-72430000D01*
G04 #@! TO.C,C1*
X160272000Y-79134580D02*
X160272000Y-78853420D01*
X161292000Y-79134580D02*
X161292000Y-78853420D01*
G04 #@! TO.C,C2*
X177940580Y-76964000D02*
X177659420Y-76964000D01*
X177940580Y-75944000D02*
X177659420Y-75944000D01*
G04 #@! TO.C,C7*
X208532000Y-88024580D02*
X208532000Y-87743420D01*
X209552000Y-88024580D02*
X209552000Y-87743420D01*
G04 #@! TO.C,C8*
X195199580Y-76964000D02*
X194918420Y-76964000D01*
X195199580Y-75944000D02*
X194918420Y-75944000D01*
G04 #@! TO.C,C3*
X206504000Y-87743420D02*
X206504000Y-88024580D01*
X205484000Y-87743420D02*
X205484000Y-88024580D01*
G04 #@! TO.C,C11*
X203567420Y-87120000D02*
X203848580Y-87120000D01*
X203567420Y-88140000D02*
X203848580Y-88140000D01*
G04 #@! TO.C,C12*
X208028000Y-87743420D02*
X208028000Y-88024580D01*
X207008000Y-87743420D02*
X207008000Y-88024580D01*
G04 #@! TO.C,C10*
X199263580Y-73408000D02*
X198982420Y-73408000D01*
X199263580Y-72388000D02*
X198982420Y-72388000D01*
G04 #@! TO.C,R1*
X172959500Y-79231258D02*
X172959500Y-78756742D01*
X174004500Y-79231258D02*
X174004500Y-78756742D01*
G04 #@! TO.C,C9*
X199276580Y-75440000D02*
X198995420Y-75440000D01*
X199276580Y-74420000D02*
X198995420Y-74420000D01*
G04 #@! TO.C,C6*
X177165580Y-87124000D02*
X176884420Y-87124000D01*
X177165580Y-86104000D02*
X176884420Y-86104000D01*
G04 #@! TO.C,U4*
X201422000Y-76474000D02*
X199472000Y-76474000D01*
X201422000Y-76474000D02*
X203372000Y-76474000D01*
X201422000Y-86594000D02*
X199472000Y-86594000D01*
X201422000Y-86594000D02*
X204872000Y-86594000D01*
G04 #@! TO.C,J2*
X196402000Y-77664000D02*
X191202000Y-77664000D01*
X196402000Y-82804000D02*
X196402000Y-77664000D01*
X191202000Y-85404000D02*
X191202000Y-77664000D01*
X196402000Y-82804000D02*
X193802000Y-82804000D01*
X193802000Y-82804000D02*
X193802000Y-85404000D01*
X193802000Y-85404000D02*
X191202000Y-85404000D01*
X196402000Y-84074000D02*
X196402000Y-85404000D01*
X196402000Y-85404000D02*
X195072000Y-85404000D01*
D10*
G04 #@! TO.C,U3*
X181287000Y-77401000D02*
X181287000Y-77626000D01*
X188537000Y-77401000D02*
X188537000Y-77726000D01*
X188537000Y-84651000D02*
X188537000Y-84326000D01*
X181287000Y-84651000D02*
X181287000Y-84326000D01*
X181287000Y-77401000D02*
X181612000Y-77401000D01*
X181287000Y-84651000D02*
X181612000Y-84651000D01*
X188537000Y-84651000D02*
X188212000Y-84651000D01*
X188537000Y-77401000D02*
X188212000Y-77401000D01*
X181287000Y-77626000D02*
X179862000Y-77626000D01*
D11*
G04 #@! TO.C,SW1*
X167472000Y-80574000D02*
X167472000Y-80694000D01*
X167472000Y-78424000D02*
X167472000Y-79564000D01*
X167472000Y-77294000D02*
X167472000Y-77414000D01*
X171872000Y-77294000D02*
X167472000Y-77294000D01*
X171872000Y-77414000D02*
X171872000Y-77294000D01*
X171872000Y-79564000D02*
X171872000Y-78424000D01*
X171872000Y-80694000D02*
X171872000Y-80574000D01*
X167472000Y-80694000D02*
X171872000Y-80694000D01*
G04 #@! TO.C,L1*
X171812378Y-84784000D02*
X172611622Y-84784000D01*
X171812378Y-85904000D02*
X172611622Y-85904000D01*
G04 #@! TO.C,C4*
X172539252Y-83031000D02*
X172016748Y-83031000D01*
X172539252Y-81561000D02*
X172016748Y-81561000D01*
G04 #@! TO.C,C5*
D10*
X176871333Y-79699142D02*
X176823714Y-79746761D01*
X176680857Y-79794380D01*
X176585619Y-79794380D01*
X176442761Y-79746761D01*
X176347523Y-79651523D01*
X176299904Y-79556285D01*
X176252285Y-79365809D01*
X176252285Y-79222952D01*
X176299904Y-79032476D01*
X176347523Y-78937238D01*
X176442761Y-78842000D01*
X176585619Y-78794380D01*
X176680857Y-78794380D01*
X176823714Y-78842000D01*
X176871333Y-78889619D01*
X177776095Y-78794380D02*
X177299904Y-78794380D01*
X177252285Y-79270571D01*
X177299904Y-79222952D01*
X177395142Y-79175333D01*
X177633238Y-79175333D01*
X177728476Y-79222952D01*
X177776095Y-79270571D01*
X177823714Y-79365809D01*
X177823714Y-79603904D01*
X177776095Y-79699142D01*
X177728476Y-79746761D01*
X177633238Y-79794380D01*
X177395142Y-79794380D01*
X177299904Y-79746761D01*
X177252285Y-79699142D01*
G04 #@! TO.C,J4*
X148002666Y-83272380D02*
X148002666Y-83986666D01*
X147955047Y-84129523D01*
X147859809Y-84224761D01*
X147716952Y-84272380D01*
X147621714Y-84272380D01*
X148907428Y-83605714D02*
X148907428Y-84272380D01*
X148669333Y-83224761D02*
X148431238Y-83939047D01*
X149050285Y-83939047D01*
G04 #@! TO.C,U2*
X163830095Y-75946380D02*
X163830095Y-76755904D01*
X163877714Y-76851142D01*
X163925333Y-76898761D01*
X164020571Y-76946380D01*
X164211047Y-76946380D01*
X164306285Y-76898761D01*
X164353904Y-76851142D01*
X164401523Y-76755904D01*
X164401523Y-75946380D01*
X164830095Y-76041619D02*
X164877714Y-75994000D01*
X164972952Y-75946380D01*
X165211047Y-75946380D01*
X165306285Y-75994000D01*
X165353904Y-76041619D01*
X165401523Y-76136857D01*
X165401523Y-76232095D01*
X165353904Y-76374952D01*
X164782476Y-76946380D01*
X165401523Y-76946380D01*
G04 #@! TO.C,R3*
X164425333Y-84686380D02*
X164092000Y-84210190D01*
X163853904Y-84686380D02*
X163853904Y-83686380D01*
X164234857Y-83686380D01*
X164330095Y-83734000D01*
X164377714Y-83781619D01*
X164425333Y-83876857D01*
X164425333Y-84019714D01*
X164377714Y-84114952D01*
X164330095Y-84162571D01*
X164234857Y-84210190D01*
X163853904Y-84210190D01*
X164758666Y-83686380D02*
X165377714Y-83686380D01*
X165044380Y-84067333D01*
X165187238Y-84067333D01*
X165282476Y-84114952D01*
X165330095Y-84162571D01*
X165377714Y-84257809D01*
X165377714Y-84495904D01*
X165330095Y-84591142D01*
X165282476Y-84638761D01*
X165187238Y-84686380D01*
X164901523Y-84686380D01*
X164806285Y-84638761D01*
X164758666Y-84591142D01*
G04 #@! TO.C,R2*
X164425333Y-87226380D02*
X164092000Y-86750190D01*
X163853904Y-87226380D02*
X163853904Y-86226380D01*
X164234857Y-86226380D01*
X164330095Y-86274000D01*
X164377714Y-86321619D01*
X164425333Y-86416857D01*
X164425333Y-86559714D01*
X164377714Y-86654952D01*
X164330095Y-86702571D01*
X164234857Y-86750190D01*
X163853904Y-86750190D01*
X164806285Y-86321619D02*
X164853904Y-86274000D01*
X164949142Y-86226380D01*
X165187238Y-86226380D01*
X165282476Y-86274000D01*
X165330095Y-86321619D01*
X165377714Y-86416857D01*
X165377714Y-86512095D01*
X165330095Y-86654952D01*
X164758666Y-87226380D01*
X165377714Y-87226380D01*
G04 #@! TO.C,J1*
X180006666Y-85304380D02*
X180006666Y-86018666D01*
X179959047Y-86161523D01*
X179863809Y-86256761D01*
X179720952Y-86304380D01*
X179625714Y-86304380D01*
X181006666Y-86304380D02*
X180435238Y-86304380D01*
X180720952Y-86304380D02*
X180720952Y-85304380D01*
X180625714Y-85447238D01*
X180530476Y-85542476D01*
X180435238Y-85590095D01*
G04 #@! TO.C,D2*
X167917904Y-84526380D02*
X167917904Y-83526380D01*
X168156000Y-83526380D01*
X168298857Y-83574000D01*
X168394095Y-83669238D01*
X168441714Y-83764476D01*
X168489333Y-83954952D01*
X168489333Y-84097809D01*
X168441714Y-84288285D01*
X168394095Y-84383523D01*
X168298857Y-84478761D01*
X168156000Y-84526380D01*
X167917904Y-84526380D01*
X168870285Y-83621619D02*
X168917904Y-83574000D01*
X169013142Y-83526380D01*
X169251238Y-83526380D01*
X169346476Y-83574000D01*
X169394095Y-83621619D01*
X169441714Y-83716857D01*
X169441714Y-83812095D01*
X169394095Y-83954952D01*
X168822666Y-84526380D01*
X169441714Y-84526380D01*
G04 #@! TO.C,D1*
X167917904Y-87320380D02*
X167917904Y-86320380D01*
X168156000Y-86320380D01*
X168298857Y-86368000D01*
X168394095Y-86463238D01*
X168441714Y-86558476D01*
X168489333Y-86748952D01*
X168489333Y-86891809D01*
X168441714Y-87082285D01*
X168394095Y-87177523D01*
X168298857Y-87272761D01*
X168156000Y-87320380D01*
X167917904Y-87320380D01*
X169441714Y-87320380D02*
X168870285Y-87320380D01*
X169156000Y-87320380D02*
X169156000Y-86320380D01*
X169060761Y-86463238D01*
X168965523Y-86558476D01*
X168870285Y-86606095D01*
G04 #@! TO.C,Y2*
X202469809Y-71440190D02*
X202469809Y-71916380D01*
X202136476Y-70916380D02*
X202469809Y-71440190D01*
X202803142Y-70916380D01*
X203088857Y-71011619D02*
X203136476Y-70964000D01*
X203231714Y-70916380D01*
X203469809Y-70916380D01*
X203565047Y-70964000D01*
X203612666Y-71011619D01*
X203660285Y-71106857D01*
X203660285Y-71202095D01*
X203612666Y-71344952D01*
X203041238Y-71916380D01*
X203660285Y-71916380D01*
G04 #@! TO.C,Y1*
X174529809Y-86246190D02*
X174529809Y-86722380D01*
X174196476Y-85722380D02*
X174529809Y-86246190D01*
X174863142Y-85722380D01*
X175720285Y-86722380D02*
X175148857Y-86722380D01*
X175434571Y-86722380D02*
X175434571Y-85722380D01*
X175339333Y-85865238D01*
X175244095Y-85960476D01*
X175148857Y-86008095D01*
G04 #@! TO.C,U1*
X155194095Y-73776380D02*
X155194095Y-74585904D01*
X155241714Y-74681142D01*
X155289333Y-74728761D01*
X155384571Y-74776380D01*
X155575047Y-74776380D01*
X155670285Y-74728761D01*
X155717904Y-74681142D01*
X155765523Y-74585904D01*
X155765523Y-73776380D01*
X156765523Y-74776380D02*
X156194095Y-74776380D01*
X156479809Y-74776380D02*
X156479809Y-73776380D01*
X156384571Y-73919238D01*
X156289333Y-74014476D01*
X156194095Y-74062095D01*
G04 #@! TO.C,TP2*
X198128095Y-89622380D02*
X198699523Y-89622380D01*
X198413809Y-90622380D02*
X198413809Y-89622380D01*
X199032857Y-90622380D02*
X199032857Y-89622380D01*
X199413809Y-89622380D01*
X199509047Y-89670000D01*
X199556666Y-89717619D01*
X199604285Y-89812857D01*
X199604285Y-89955714D01*
X199556666Y-90050952D01*
X199509047Y-90098571D01*
X199413809Y-90146190D01*
X199032857Y-90146190D01*
X199985238Y-89717619D02*
X200032857Y-89670000D01*
X200128095Y-89622380D01*
X200366190Y-89622380D01*
X200461428Y-89670000D01*
X200509047Y-89717619D01*
X200556666Y-89812857D01*
X200556666Y-89908095D01*
X200509047Y-90050952D01*
X199937619Y-90622380D01*
X200556666Y-90622380D01*
G04 #@! TO.C,TP3*
X192286095Y-89622380D02*
X192857523Y-89622380D01*
X192571809Y-90622380D02*
X192571809Y-89622380D01*
X193190857Y-90622380D02*
X193190857Y-89622380D01*
X193571809Y-89622380D01*
X193667047Y-89670000D01*
X193714666Y-89717619D01*
X193762285Y-89812857D01*
X193762285Y-89955714D01*
X193714666Y-90050952D01*
X193667047Y-90098571D01*
X193571809Y-90146190D01*
X193190857Y-90146190D01*
X194095619Y-89622380D02*
X194714666Y-89622380D01*
X194381333Y-90003333D01*
X194524190Y-90003333D01*
X194619428Y-90050952D01*
X194667047Y-90098571D01*
X194714666Y-90193809D01*
X194714666Y-90431904D01*
X194667047Y-90527142D01*
X194619428Y-90574761D01*
X194524190Y-90622380D01*
X194238476Y-90622380D01*
X194143238Y-90574761D01*
X194095619Y-90527142D01*
G04 #@! TO.C,TP1*
X172220095Y-72640380D02*
X172791523Y-72640380D01*
X172505809Y-73640380D02*
X172505809Y-72640380D01*
X173124857Y-73640380D02*
X173124857Y-72640380D01*
X173505809Y-72640380D01*
X173601047Y-72688000D01*
X173648666Y-72735619D01*
X173696285Y-72830857D01*
X173696285Y-72973714D01*
X173648666Y-73068952D01*
X173601047Y-73116571D01*
X173505809Y-73164190D01*
X173124857Y-73164190D01*
X174648666Y-73640380D02*
X174077238Y-73640380D01*
X174362952Y-73640380D02*
X174362952Y-72640380D01*
X174267714Y-72783238D01*
X174172476Y-72878476D01*
X174077238Y-72926095D01*
G04 #@! TO.C,TP5*
X186190095Y-70318380D02*
X186761523Y-70318380D01*
X186475809Y-71318380D02*
X186475809Y-70318380D01*
X187094857Y-71318380D02*
X187094857Y-70318380D01*
X187475809Y-70318380D01*
X187571047Y-70366000D01*
X187618666Y-70413619D01*
X187666285Y-70508857D01*
X187666285Y-70651714D01*
X187618666Y-70746952D01*
X187571047Y-70794571D01*
X187475809Y-70842190D01*
X187094857Y-70842190D01*
X188571047Y-70318380D02*
X188094857Y-70318380D01*
X188047238Y-70794571D01*
X188094857Y-70746952D01*
X188190095Y-70699333D01*
X188428190Y-70699333D01*
X188523428Y-70746952D01*
X188571047Y-70794571D01*
X188618666Y-70889809D01*
X188618666Y-71127904D01*
X188571047Y-71223142D01*
X188523428Y-71270761D01*
X188428190Y-71318380D01*
X188190095Y-71318380D01*
X188094857Y-71270761D01*
X188047238Y-71223142D01*
G04 #@! TO.C,TP4*
X181618095Y-70318380D02*
X182189523Y-70318380D01*
X181903809Y-71318380D02*
X181903809Y-70318380D01*
X182522857Y-71318380D02*
X182522857Y-70318380D01*
X182903809Y-70318380D01*
X182999047Y-70366000D01*
X183046666Y-70413619D01*
X183094285Y-70508857D01*
X183094285Y-70651714D01*
X183046666Y-70746952D01*
X182999047Y-70794571D01*
X182903809Y-70842190D01*
X182522857Y-70842190D01*
X183951428Y-70651714D02*
X183951428Y-71318380D01*
X183713333Y-70270761D02*
X183475238Y-70985047D01*
X184094285Y-70985047D01*
G04 #@! TO.C,R4*
X211923333Y-90622380D02*
X211590000Y-90146190D01*
X211351904Y-90622380D02*
X211351904Y-89622380D01*
X211732857Y-89622380D01*
X211828095Y-89670000D01*
X211875714Y-89717619D01*
X211923333Y-89812857D01*
X211923333Y-89955714D01*
X211875714Y-90050952D01*
X211828095Y-90098571D01*
X211732857Y-90146190D01*
X211351904Y-90146190D01*
X212780476Y-89955714D02*
X212780476Y-90622380D01*
X212542380Y-89574761D02*
X212304285Y-90289047D01*
X212923333Y-90289047D01*
G04 #@! TO.C,J3*
X206422666Y-78700380D02*
X206422666Y-79414666D01*
X206375047Y-79557523D01*
X206279809Y-79652761D01*
X206136952Y-79700380D01*
X206041714Y-79700380D01*
X206803619Y-78700380D02*
X207422666Y-78700380D01*
X207089333Y-79081333D01*
X207232190Y-79081333D01*
X207327428Y-79128952D01*
X207375047Y-79176571D01*
X207422666Y-79271809D01*
X207422666Y-79509904D01*
X207375047Y-79605142D01*
X207327428Y-79652761D01*
X207232190Y-79700380D01*
X206946476Y-79700380D01*
X206851238Y-79652761D01*
X206803619Y-79605142D01*
G04 #@! TO.C,D3*
X206883904Y-72052380D02*
X206883904Y-71052380D01*
X207122000Y-71052380D01*
X207264857Y-71100000D01*
X207360095Y-71195238D01*
X207407714Y-71290476D01*
X207455333Y-71480952D01*
X207455333Y-71623809D01*
X207407714Y-71814285D01*
X207360095Y-71909523D01*
X207264857Y-72004761D01*
X207122000Y-72052380D01*
X206883904Y-72052380D01*
X207788666Y-71052380D02*
X208407714Y-71052380D01*
X208074380Y-71433333D01*
X208217238Y-71433333D01*
X208312476Y-71480952D01*
X208360095Y-71528571D01*
X208407714Y-71623809D01*
X208407714Y-71861904D01*
X208360095Y-71957142D01*
X208312476Y-72004761D01*
X208217238Y-72052380D01*
X207931523Y-72052380D01*
X207836285Y-72004761D01*
X207788666Y-71957142D01*
G04 #@! TO.C,C1*
X160615333Y-77319142D02*
X160567714Y-77366761D01*
X160424857Y-77414380D01*
X160329619Y-77414380D01*
X160186761Y-77366761D01*
X160091523Y-77271523D01*
X160043904Y-77176285D01*
X159996285Y-76985809D01*
X159996285Y-76842952D01*
X160043904Y-76652476D01*
X160091523Y-76557238D01*
X160186761Y-76462000D01*
X160329619Y-76414380D01*
X160424857Y-76414380D01*
X160567714Y-76462000D01*
X160615333Y-76509619D01*
X161567714Y-77414380D02*
X160996285Y-77414380D01*
X161282000Y-77414380D02*
X161282000Y-76414380D01*
X161186761Y-76557238D01*
X161091523Y-76652476D01*
X160996285Y-76700095D01*
G04 #@! TO.C,C2*
X177633333Y-78241142D02*
X177585714Y-78288761D01*
X177442857Y-78336380D01*
X177347619Y-78336380D01*
X177204761Y-78288761D01*
X177109523Y-78193523D01*
X177061904Y-78098285D01*
X177014285Y-77907809D01*
X177014285Y-77764952D01*
X177061904Y-77574476D01*
X177109523Y-77479238D01*
X177204761Y-77384000D01*
X177347619Y-77336380D01*
X177442857Y-77336380D01*
X177585714Y-77384000D01*
X177633333Y-77431619D01*
X178014285Y-77431619D02*
X178061904Y-77384000D01*
X178157142Y-77336380D01*
X178395238Y-77336380D01*
X178490476Y-77384000D01*
X178538095Y-77431619D01*
X178585714Y-77526857D01*
X178585714Y-77622095D01*
X178538095Y-77764952D01*
X177966666Y-78336380D01*
X178585714Y-78336380D01*
G04 #@! TO.C,C7*
X209637333Y-90527142D02*
X209589714Y-90574761D01*
X209446857Y-90622380D01*
X209351619Y-90622380D01*
X209208761Y-90574761D01*
X209113523Y-90479523D01*
X209065904Y-90384285D01*
X209018285Y-90193809D01*
X209018285Y-90050952D01*
X209065904Y-89860476D01*
X209113523Y-89765238D01*
X209208761Y-89670000D01*
X209351619Y-89622380D01*
X209446857Y-89622380D01*
X209589714Y-89670000D01*
X209637333Y-89717619D01*
X209970666Y-89622380D02*
X210637333Y-89622380D01*
X210208761Y-90622380D01*
G04 #@! TO.C,C8*
X194143333Y-75287142D02*
X194095714Y-75334761D01*
X193952857Y-75382380D01*
X193857619Y-75382380D01*
X193714761Y-75334761D01*
X193619523Y-75239523D01*
X193571904Y-75144285D01*
X193524285Y-74953809D01*
X193524285Y-74810952D01*
X193571904Y-74620476D01*
X193619523Y-74525238D01*
X193714761Y-74430000D01*
X193857619Y-74382380D01*
X193952857Y-74382380D01*
X194095714Y-74430000D01*
X194143333Y-74477619D01*
X194714761Y-74810952D02*
X194619523Y-74763333D01*
X194571904Y-74715714D01*
X194524285Y-74620476D01*
X194524285Y-74572857D01*
X194571904Y-74477619D01*
X194619523Y-74430000D01*
X194714761Y-74382380D01*
X194905238Y-74382380D01*
X195000476Y-74430000D01*
X195048095Y-74477619D01*
X195095714Y-74572857D01*
X195095714Y-74620476D01*
X195048095Y-74715714D01*
X195000476Y-74763333D01*
X194905238Y-74810952D01*
X194714761Y-74810952D01*
X194619523Y-74858571D01*
X194571904Y-74906190D01*
X194524285Y-75001428D01*
X194524285Y-75191904D01*
X194571904Y-75287142D01*
X194619523Y-75334761D01*
X194714761Y-75382380D01*
X194905238Y-75382380D01*
X195000476Y-75334761D01*
X195048095Y-75287142D01*
X195095714Y-75191904D01*
X195095714Y-75001428D01*
X195048095Y-74906190D01*
X195000476Y-74858571D01*
X194905238Y-74810952D01*
G04 #@! TO.C,C3*
X204557333Y-90527142D02*
X204509714Y-90574761D01*
X204366857Y-90622380D01*
X204271619Y-90622380D01*
X204128761Y-90574761D01*
X204033523Y-90479523D01*
X203985904Y-90384285D01*
X203938285Y-90193809D01*
X203938285Y-90050952D01*
X203985904Y-89860476D01*
X204033523Y-89765238D01*
X204128761Y-89670000D01*
X204271619Y-89622380D01*
X204366857Y-89622380D01*
X204509714Y-89670000D01*
X204557333Y-89717619D01*
X204890666Y-89622380D02*
X205509714Y-89622380D01*
X205176380Y-90003333D01*
X205319238Y-90003333D01*
X205414476Y-90050952D01*
X205462095Y-90098571D01*
X205509714Y-90193809D01*
X205509714Y-90431904D01*
X205462095Y-90527142D01*
X205414476Y-90574761D01*
X205319238Y-90622380D01*
X205033523Y-90622380D01*
X204938285Y-90574761D01*
X204890666Y-90527142D01*
G04 #@! TO.C,C11*
X202303142Y-89257142D02*
X202255523Y-89304761D01*
X202112666Y-89352380D01*
X202017428Y-89352380D01*
X201874571Y-89304761D01*
X201779333Y-89209523D01*
X201731714Y-89114285D01*
X201684095Y-88923809D01*
X201684095Y-88780952D01*
X201731714Y-88590476D01*
X201779333Y-88495238D01*
X201874571Y-88400000D01*
X202017428Y-88352380D01*
X202112666Y-88352380D01*
X202255523Y-88400000D01*
X202303142Y-88447619D01*
X203255523Y-89352380D02*
X202684095Y-89352380D01*
X202969809Y-89352380D02*
X202969809Y-88352380D01*
X202874571Y-88495238D01*
X202779333Y-88590476D01*
X202684095Y-88638095D01*
X204207904Y-89352380D02*
X203636476Y-89352380D01*
X203922190Y-89352380D02*
X203922190Y-88352380D01*
X203826952Y-88495238D01*
X203731714Y-88590476D01*
X203636476Y-88638095D01*
G04 #@! TO.C,C12*
X206621142Y-90527142D02*
X206573523Y-90574761D01*
X206430666Y-90622380D01*
X206335428Y-90622380D01*
X206192571Y-90574761D01*
X206097333Y-90479523D01*
X206049714Y-90384285D01*
X206002095Y-90193809D01*
X206002095Y-90050952D01*
X206049714Y-89860476D01*
X206097333Y-89765238D01*
X206192571Y-89670000D01*
X206335428Y-89622380D01*
X206430666Y-89622380D01*
X206573523Y-89670000D01*
X206621142Y-89717619D01*
X207573523Y-90622380D02*
X207002095Y-90622380D01*
X207287809Y-90622380D02*
X207287809Y-89622380D01*
X207192571Y-89765238D01*
X207097333Y-89860476D01*
X207002095Y-89908095D01*
X207954476Y-89717619D02*
X208002095Y-89670000D01*
X208097333Y-89622380D01*
X208335428Y-89622380D01*
X208430666Y-89670000D01*
X208478285Y-89717619D01*
X208525904Y-89812857D01*
X208525904Y-89908095D01*
X208478285Y-90050952D01*
X207906857Y-90622380D01*
X208525904Y-90622380D01*
G04 #@! TO.C,C10*
X195445142Y-73255142D02*
X195397523Y-73302761D01*
X195254666Y-73350380D01*
X195159428Y-73350380D01*
X195016571Y-73302761D01*
X194921333Y-73207523D01*
X194873714Y-73112285D01*
X194826095Y-72921809D01*
X194826095Y-72778952D01*
X194873714Y-72588476D01*
X194921333Y-72493238D01*
X195016571Y-72398000D01*
X195159428Y-72350380D01*
X195254666Y-72350380D01*
X195397523Y-72398000D01*
X195445142Y-72445619D01*
X196397523Y-73350380D02*
X195826095Y-73350380D01*
X196111809Y-73350380D02*
X196111809Y-72350380D01*
X196016571Y-72493238D01*
X195921333Y-72588476D01*
X195826095Y-72636095D01*
X197016571Y-72350380D02*
X197111809Y-72350380D01*
X197207047Y-72398000D01*
X197254666Y-72445619D01*
X197302285Y-72540857D01*
X197349904Y-72731333D01*
X197349904Y-72969428D01*
X197302285Y-73159904D01*
X197254666Y-73255142D01*
X197207047Y-73302761D01*
X197111809Y-73350380D01*
X197016571Y-73350380D01*
X196921333Y-73302761D01*
X196873714Y-73255142D01*
X196826095Y-73159904D01*
X196778476Y-72969428D01*
X196778476Y-72731333D01*
X196826095Y-72540857D01*
X196873714Y-72445619D01*
X196921333Y-72398000D01*
X197016571Y-72350380D01*
G04 #@! TO.C,R1*
X174839333Y-79446380D02*
X174506000Y-78970190D01*
X174267904Y-79446380D02*
X174267904Y-78446380D01*
X174648857Y-78446380D01*
X174744095Y-78494000D01*
X174791714Y-78541619D01*
X174839333Y-78636857D01*
X174839333Y-78779714D01*
X174791714Y-78874952D01*
X174744095Y-78922571D01*
X174648857Y-78970190D01*
X174267904Y-78970190D01*
X175791714Y-79446380D02*
X175220285Y-79446380D01*
X175506000Y-79446380D02*
X175506000Y-78446380D01*
X175410761Y-78589238D01*
X175315523Y-78684476D01*
X175220285Y-78732095D01*
G04 #@! TO.C,C9*
X196429333Y-75287142D02*
X196381714Y-75334761D01*
X196238857Y-75382380D01*
X196143619Y-75382380D01*
X196000761Y-75334761D01*
X195905523Y-75239523D01*
X195857904Y-75144285D01*
X195810285Y-74953809D01*
X195810285Y-74810952D01*
X195857904Y-74620476D01*
X195905523Y-74525238D01*
X196000761Y-74430000D01*
X196143619Y-74382380D01*
X196238857Y-74382380D01*
X196381714Y-74430000D01*
X196429333Y-74477619D01*
X196905523Y-75382380D02*
X197096000Y-75382380D01*
X197191238Y-75334761D01*
X197238857Y-75287142D01*
X197334095Y-75144285D01*
X197381714Y-74953809D01*
X197381714Y-74572857D01*
X197334095Y-74477619D01*
X197286476Y-74430000D01*
X197191238Y-74382380D01*
X197000761Y-74382380D01*
X196905523Y-74430000D01*
X196857904Y-74477619D01*
X196810285Y-74572857D01*
X196810285Y-74810952D01*
X196857904Y-74906190D01*
X196905523Y-74953809D01*
X197000761Y-75001428D01*
X197191238Y-75001428D01*
X197286476Y-74953809D01*
X197334095Y-74906190D01*
X197381714Y-74810952D01*
G04 #@! TO.C,C6*
X176858333Y-88401142D02*
X176810714Y-88448761D01*
X176667857Y-88496380D01*
X176572619Y-88496380D01*
X176429761Y-88448761D01*
X176334523Y-88353523D01*
X176286904Y-88258285D01*
X176239285Y-88067809D01*
X176239285Y-87924952D01*
X176286904Y-87734476D01*
X176334523Y-87639238D01*
X176429761Y-87544000D01*
X176572619Y-87496380D01*
X176667857Y-87496380D01*
X176810714Y-87544000D01*
X176858333Y-87591619D01*
X177715476Y-87496380D02*
X177525000Y-87496380D01*
X177429761Y-87544000D01*
X177382142Y-87591619D01*
X177286904Y-87734476D01*
X177239285Y-87924952D01*
X177239285Y-88305904D01*
X177286904Y-88401142D01*
X177334523Y-88448761D01*
X177429761Y-88496380D01*
X177620238Y-88496380D01*
X177715476Y-88448761D01*
X177763095Y-88401142D01*
X177810714Y-88305904D01*
X177810714Y-88067809D01*
X177763095Y-87972571D01*
X177715476Y-87924952D01*
X177620238Y-87877333D01*
X177429761Y-87877333D01*
X177334523Y-87924952D01*
X177286904Y-87972571D01*
X177239285Y-88067809D01*
G04 #@! TO.C,U4*
X205994095Y-84796380D02*
X205994095Y-85605904D01*
X206041714Y-85701142D01*
X206089333Y-85748761D01*
X206184571Y-85796380D01*
X206375047Y-85796380D01*
X206470285Y-85748761D01*
X206517904Y-85701142D01*
X206565523Y-85605904D01*
X206565523Y-84796380D01*
X207470285Y-85129714D02*
X207470285Y-85796380D01*
X207232190Y-84748761D02*
X206994095Y-85463047D01*
X207613142Y-85463047D01*
G04 #@! TO.C,J2*
X193468666Y-85856380D02*
X193468666Y-86570666D01*
X193421047Y-86713523D01*
X193325809Y-86808761D01*
X193182952Y-86856380D01*
X193087714Y-86856380D01*
X193897238Y-85951619D02*
X193944857Y-85904000D01*
X194040095Y-85856380D01*
X194278190Y-85856380D01*
X194373428Y-85904000D01*
X194421047Y-85951619D01*
X194468666Y-86046857D01*
X194468666Y-86142095D01*
X194421047Y-86284952D01*
X193849619Y-86856380D01*
X194468666Y-86856380D01*
G04 #@! TO.C,U3*
X184150095Y-74428380D02*
X184150095Y-75237904D01*
X184197714Y-75333142D01*
X184245333Y-75380761D01*
X184340571Y-75428380D01*
X184531047Y-75428380D01*
X184626285Y-75380761D01*
X184673904Y-75333142D01*
X184721523Y-75237904D01*
X184721523Y-74428380D01*
X185102476Y-74428380D02*
X185721523Y-74428380D01*
X185388190Y-74809333D01*
X185531047Y-74809333D01*
X185626285Y-74856952D01*
X185673904Y-74904571D01*
X185721523Y-74999809D01*
X185721523Y-75237904D01*
X185673904Y-75333142D01*
X185626285Y-75380761D01*
X185531047Y-75428380D01*
X185245333Y-75428380D01*
X185150095Y-75380761D01*
X185102476Y-75333142D01*
G04 #@! TO.C,SW1*
X167830666Y-76858761D02*
X167973523Y-76906380D01*
X168211619Y-76906380D01*
X168306857Y-76858761D01*
X168354476Y-76811142D01*
X168402095Y-76715904D01*
X168402095Y-76620666D01*
X168354476Y-76525428D01*
X168306857Y-76477809D01*
X168211619Y-76430190D01*
X168021142Y-76382571D01*
X167925904Y-76334952D01*
X167878285Y-76287333D01*
X167830666Y-76192095D01*
X167830666Y-76096857D01*
X167878285Y-76001619D01*
X167925904Y-75954000D01*
X168021142Y-75906380D01*
X168259238Y-75906380D01*
X168402095Y-75954000D01*
X168735428Y-75906380D02*
X168973523Y-76906380D01*
X169164000Y-76192095D01*
X169354476Y-76906380D01*
X169592571Y-75906380D01*
X170497333Y-76906380D02*
X169925904Y-76906380D01*
X170211619Y-76906380D02*
X170211619Y-75906380D01*
X170116380Y-76049238D01*
X170021142Y-76144476D01*
X169925904Y-76192095D01*
G04 #@! TO.C,L1*
X172299333Y-87320380D02*
X171823142Y-87320380D01*
X171823142Y-86320380D01*
X173156476Y-87320380D02*
X172585047Y-87320380D01*
X172870761Y-87320380D02*
X172870761Y-86320380D01*
X172775523Y-86463238D01*
X172680285Y-86558476D01*
X172585047Y-86606095D01*
G04 #@! TO.C,C4*
X172111333Y-84333142D02*
X172063714Y-84380761D01*
X171920857Y-84428380D01*
X171825619Y-84428380D01*
X171682761Y-84380761D01*
X171587523Y-84285523D01*
X171539904Y-84190285D01*
X171492285Y-83999809D01*
X171492285Y-83856952D01*
X171539904Y-83666476D01*
X171587523Y-83571238D01*
X171682761Y-83476000D01*
X171825619Y-83428380D01*
X171920857Y-83428380D01*
X172063714Y-83476000D01*
X172111333Y-83523619D01*
X172968476Y-83761714D02*
X172968476Y-84428380D01*
X172730380Y-83380761D02*
X172492285Y-84095047D01*
X173111333Y-84095047D01*
G04 #@! TD*
%LPC*%
G04 #@! TO.C,C5*
G36*
G01*
X177363000Y-81022000D02*
X177363000Y-80522000D01*
G75*
G02*
X177588000Y-80297000I225000J0D01*
G01*
X178038000Y-80297000D01*
G75*
G02*
X178263000Y-80522000I0J-225000D01*
G01*
X178263000Y-81022000D01*
G75*
G02*
X178038000Y-81247000I-225000J0D01*
G01*
X177588000Y-81247000D01*
G75*
G02*
X177363000Y-81022000I0J225000D01*
G01*
G37*
G36*
G01*
X175813000Y-81022000D02*
X175813000Y-80522000D01*
G75*
G02*
X176038000Y-80297000I225000J0D01*
G01*
X176488000Y-80297000D01*
G75*
G02*
X176713000Y-80522000I0J-225000D01*
G01*
X176713000Y-81022000D01*
G75*
G02*
X176488000Y-81247000I-225000J0D01*
G01*
X176038000Y-81247000D01*
G75*
G02*
X175813000Y-81022000I0J225000D01*
G01*
G37*
G04 #@! TD*
D12*
G04 #@! TO.C,J4*
X147828000Y-74930000D03*
D13*
X147828000Y-80010000D03*
G04 #@! TD*
D14*
G04 #@! TO.C,U2*
X165592000Y-78994000D03*
X163592000Y-79944000D03*
X163592000Y-78044000D03*
G04 #@! TD*
G04 #@! TO.C,R3*
G36*
G01*
X164167000Y-82529000D02*
X164167000Y-83079000D01*
G75*
G02*
X163967000Y-83279000I-200000J0D01*
G01*
X163567000Y-83279000D01*
G75*
G02*
X163367000Y-83079000I0J200000D01*
G01*
X163367000Y-82529000D01*
G75*
G02*
X163567000Y-82329000I200000J0D01*
G01*
X163967000Y-82329000D01*
G75*
G02*
X164167000Y-82529000I0J-200000D01*
G01*
G37*
G36*
G01*
X165817000Y-82529000D02*
X165817000Y-83079000D01*
G75*
G02*
X165617000Y-83279000I-200000J0D01*
G01*
X165217000Y-83279000D01*
G75*
G02*
X165017000Y-83079000I0J200000D01*
G01*
X165017000Y-82529000D01*
G75*
G02*
X165217000Y-82329000I200000J0D01*
G01*
X165617000Y-82329000D01*
G75*
G02*
X165817000Y-82529000I0J-200000D01*
G01*
G37*
G04 #@! TD*
G04 #@! TO.C,R2*
G36*
G01*
X164167000Y-85069000D02*
X164167000Y-85619000D01*
G75*
G02*
X163967000Y-85819000I-200000J0D01*
G01*
X163567000Y-85819000D01*
G75*
G02*
X163367000Y-85619000I0J200000D01*
G01*
X163367000Y-85069000D01*
G75*
G02*
X163567000Y-84869000I200000J0D01*
G01*
X163967000Y-84869000D01*
G75*
G02*
X164167000Y-85069000I0J-200000D01*
G01*
G37*
G36*
G01*
X165817000Y-85069000D02*
X165817000Y-85619000D01*
G75*
G02*
X165617000Y-85819000I-200000J0D01*
G01*
X165217000Y-85819000D01*
G75*
G02*
X165017000Y-85619000I0J200000D01*
G01*
X165017000Y-85069000D01*
G75*
G02*
X165217000Y-84869000I200000J0D01*
G01*
X165617000Y-84869000D01*
G75*
G02*
X165817000Y-85069000I0J-200000D01*
G01*
G37*
G04 #@! TD*
D15*
G04 #@! TO.C,J1*
X181356000Y-88138000D03*
X183896000Y-88138000D03*
X186436000Y-88138000D03*
D16*
X188976000Y-88138000D03*
G04 #@! TD*
G04 #@! TO.C,D2*
G36*
G01*
X168752000Y-83060250D02*
X168752000Y-82547750D01*
G75*
G02*
X168970750Y-82329000I218750J0D01*
G01*
X169408250Y-82329000D01*
G75*
G02*
X169627000Y-82547750I0J-218750D01*
G01*
X169627000Y-83060250D01*
G75*
G02*
X169408250Y-83279000I-218750J0D01*
G01*
X168970750Y-83279000D01*
G75*
G02*
X168752000Y-83060250I0J218750D01*
G01*
G37*
G36*
G01*
X167177000Y-83060250D02*
X167177000Y-82547750D01*
G75*
G02*
X167395750Y-82329000I218750J0D01*
G01*
X167833250Y-82329000D01*
G75*
G02*
X168052000Y-82547750I0J-218750D01*
G01*
X168052000Y-83060250D01*
G75*
G02*
X167833250Y-83279000I-218750J0D01*
G01*
X167395750Y-83279000D01*
G75*
G02*
X167177000Y-83060250I0J218750D01*
G01*
G37*
G04 #@! TD*
G04 #@! TO.C,D1*
G36*
G01*
X168752000Y-85600250D02*
X168752000Y-85087750D01*
G75*
G02*
X168970750Y-84869000I218750J0D01*
G01*
X169408250Y-84869000D01*
G75*
G02*
X169627000Y-85087750I0J-218750D01*
G01*
X169627000Y-85600250D01*
G75*
G02*
X169408250Y-85819000I-218750J0D01*
G01*
X168970750Y-85819000D01*
G75*
G02*
X168752000Y-85600250I0J218750D01*
G01*
G37*
G36*
G01*
X167177000Y-85600250D02*
X167177000Y-85087750D01*
G75*
G02*
X167395750Y-84869000I218750J0D01*
G01*
X167833250Y-84869000D01*
G75*
G02*
X168052000Y-85087750I0J-218750D01*
G01*
X168052000Y-85600250D01*
G75*
G02*
X167833250Y-85819000I-218750J0D01*
G01*
X167395750Y-85819000D01*
G75*
G02*
X167177000Y-85600250I0J218750D01*
G01*
G37*
G04 #@! TD*
D17*
G04 #@! TO.C,Y2*
X201846000Y-73064000D03*
X204046000Y-73064000D03*
X204046000Y-74764000D03*
X201846000Y-74764000D03*
G04 #@! TD*
G04 #@! TO.C,Y1*
X177630000Y-84670000D03*
X175430000Y-84670000D03*
X175430000Y-82970000D03*
X177630000Y-82970000D03*
G04 #@! TD*
G04 #@! TO.C,U1*
G36*
G01*
X157456000Y-75969000D02*
X157456000Y-75669000D01*
G75*
G02*
X157606000Y-75519000I150000J0D01*
G01*
X159256000Y-75519000D01*
G75*
G02*
X159406000Y-75669000I0J-150000D01*
G01*
X159406000Y-75969000D01*
G75*
G02*
X159256000Y-76119000I-150000J0D01*
G01*
X157606000Y-76119000D01*
G75*
G02*
X157456000Y-75969000I0J150000D01*
G01*
G37*
G36*
G01*
X157456000Y-77239000D02*
X157456000Y-76939000D01*
G75*
G02*
X157606000Y-76789000I150000J0D01*
G01*
X159256000Y-76789000D01*
G75*
G02*
X159406000Y-76939000I0J-150000D01*
G01*
X159406000Y-77239000D01*
G75*
G02*
X159256000Y-77389000I-150000J0D01*
G01*
X157606000Y-77389000D01*
G75*
G02*
X157456000Y-77239000I0J150000D01*
G01*
G37*
G36*
G01*
X157456000Y-78509000D02*
X157456000Y-78209000D01*
G75*
G02*
X157606000Y-78059000I150000J0D01*
G01*
X159256000Y-78059000D01*
G75*
G02*
X159406000Y-78209000I0J-150000D01*
G01*
X159406000Y-78509000D01*
G75*
G02*
X159256000Y-78659000I-150000J0D01*
G01*
X157606000Y-78659000D01*
G75*
G02*
X157456000Y-78509000I0J150000D01*
G01*
G37*
G36*
G01*
X157456000Y-79779000D02*
X157456000Y-79479000D01*
G75*
G02*
X157606000Y-79329000I150000J0D01*
G01*
X159256000Y-79329000D01*
G75*
G02*
X159406000Y-79479000I0J-150000D01*
G01*
X159406000Y-79779000D01*
G75*
G02*
X159256000Y-79929000I-150000J0D01*
G01*
X157606000Y-79929000D01*
G75*
G02*
X157456000Y-79779000I0J150000D01*
G01*
G37*
G36*
G01*
X152506000Y-79779000D02*
X152506000Y-79479000D01*
G75*
G02*
X152656000Y-79329000I150000J0D01*
G01*
X154306000Y-79329000D01*
G75*
G02*
X154456000Y-79479000I0J-150000D01*
G01*
X154456000Y-79779000D01*
G75*
G02*
X154306000Y-79929000I-150000J0D01*
G01*
X152656000Y-79929000D01*
G75*
G02*
X152506000Y-79779000I0J150000D01*
G01*
G37*
G36*
G01*
X152506000Y-78509000D02*
X152506000Y-78209000D01*
G75*
G02*
X152656000Y-78059000I150000J0D01*
G01*
X154306000Y-78059000D01*
G75*
G02*
X154456000Y-78209000I0J-150000D01*
G01*
X154456000Y-78509000D01*
G75*
G02*
X154306000Y-78659000I-150000J0D01*
G01*
X152656000Y-78659000D01*
G75*
G02*
X152506000Y-78509000I0J150000D01*
G01*
G37*
G36*
G01*
X152506000Y-77239000D02*
X152506000Y-76939000D01*
G75*
G02*
X152656000Y-76789000I150000J0D01*
G01*
X154306000Y-76789000D01*
G75*
G02*
X154456000Y-76939000I0J-150000D01*
G01*
X154456000Y-77239000D01*
G75*
G02*
X154306000Y-77389000I-150000J0D01*
G01*
X152656000Y-77389000D01*
G75*
G02*
X152506000Y-77239000I0J150000D01*
G01*
G37*
G36*
G01*
X152506000Y-75969000D02*
X152506000Y-75669000D01*
G75*
G02*
X152656000Y-75519000I150000J0D01*
G01*
X154306000Y-75519000D01*
G75*
G02*
X154456000Y-75669000I0J-150000D01*
G01*
X154456000Y-75969000D01*
G75*
G02*
X154306000Y-76119000I-150000J0D01*
G01*
X152656000Y-76119000D01*
G75*
G02*
X152506000Y-75969000I0J150000D01*
G01*
G37*
G04 #@! TD*
D18*
G04 #@! TO.C,TP2*
X199390000Y-88392000D03*
G04 #@! TD*
G04 #@! TO.C,TP3*
X193548000Y-88138000D03*
G04 #@! TD*
G04 #@! TO.C,TP1*
X173482000Y-75438000D03*
G04 #@! TD*
G04 #@! TO.C,TP5*
X187452000Y-72898000D03*
G04 #@! TD*
G04 #@! TO.C,TP4*
X182880000Y-72898000D03*
G04 #@! TD*
G04 #@! TO.C,R4*
G36*
G01*
X210841000Y-87459000D02*
X210291000Y-87459000D01*
G75*
G02*
X210091000Y-87259000I0J200000D01*
G01*
X210091000Y-86859000D01*
G75*
G02*
X210291000Y-86659000I200000J0D01*
G01*
X210841000Y-86659000D01*
G75*
G02*
X211041000Y-86859000I0J-200000D01*
G01*
X211041000Y-87259000D01*
G75*
G02*
X210841000Y-87459000I-200000J0D01*
G01*
G37*
G36*
G01*
X210841000Y-89109000D02*
X210291000Y-89109000D01*
G75*
G02*
X210091000Y-88909000I0J200000D01*
G01*
X210091000Y-88509000D01*
G75*
G02*
X210291000Y-88309000I200000J0D01*
G01*
X210841000Y-88309000D01*
G75*
G02*
X211041000Y-88509000I0J-200000D01*
G01*
X211041000Y-88909000D01*
G75*
G02*
X210841000Y-89109000I-200000J0D01*
G01*
G37*
G04 #@! TD*
D19*
G04 #@! TO.C,J3*
X211866000Y-78034000D03*
X211866000Y-85034000D03*
D20*
X211866000Y-78634000D03*
X211866000Y-84434000D03*
D21*
X211866000Y-80534000D03*
X211866000Y-82534000D03*
D22*
X209166000Y-79034000D03*
X209166000Y-84034000D03*
D23*
X209166000Y-80234000D03*
X209166000Y-80884000D03*
X209166000Y-81534000D03*
X209166000Y-82184000D03*
X209166000Y-82834000D03*
G04 #@! TD*
D24*
G04 #@! TO.C,D3*
X208702000Y-73030000D03*
X208702000Y-74930000D03*
X206502000Y-74930000D03*
D17*
X206502000Y-73210000D03*
G04 #@! TD*
G04 #@! TO.C,C1*
G36*
G01*
X161032000Y-78669000D02*
X160532000Y-78669000D01*
G75*
G02*
X160307000Y-78444000I0J225000D01*
G01*
X160307000Y-77994000D01*
G75*
G02*
X160532000Y-77769000I225000J0D01*
G01*
X161032000Y-77769000D01*
G75*
G02*
X161257000Y-77994000I0J-225000D01*
G01*
X161257000Y-78444000D01*
G75*
G02*
X161032000Y-78669000I-225000J0D01*
G01*
G37*
G36*
G01*
X161032000Y-80219000D02*
X160532000Y-80219000D01*
G75*
G02*
X160307000Y-79994000I0J225000D01*
G01*
X160307000Y-79544000D01*
G75*
G02*
X160532000Y-79319000I225000J0D01*
G01*
X161032000Y-79319000D01*
G75*
G02*
X161257000Y-79544000I0J-225000D01*
G01*
X161257000Y-79994000D01*
G75*
G02*
X161032000Y-80219000I-225000J0D01*
G01*
G37*
G04 #@! TD*
G04 #@! TO.C,C2*
G36*
G01*
X177475000Y-76204000D02*
X177475000Y-76704000D01*
G75*
G02*
X177250000Y-76929000I-225000J0D01*
G01*
X176800000Y-76929000D01*
G75*
G02*
X176575000Y-76704000I0J225000D01*
G01*
X176575000Y-76204000D01*
G75*
G02*
X176800000Y-75979000I225000J0D01*
G01*
X177250000Y-75979000D01*
G75*
G02*
X177475000Y-76204000I0J-225000D01*
G01*
G37*
G36*
G01*
X179025000Y-76204000D02*
X179025000Y-76704000D01*
G75*
G02*
X178800000Y-76929000I-225000J0D01*
G01*
X178350000Y-76929000D01*
G75*
G02*
X178125000Y-76704000I0J225000D01*
G01*
X178125000Y-76204000D01*
G75*
G02*
X178350000Y-75979000I225000J0D01*
G01*
X178800000Y-75979000D01*
G75*
G02*
X179025000Y-76204000I0J-225000D01*
G01*
G37*
G04 #@! TD*
G04 #@! TO.C,C7*
G36*
G01*
X209292000Y-87559000D02*
X208792000Y-87559000D01*
G75*
G02*
X208567000Y-87334000I0J225000D01*
G01*
X208567000Y-86884000D01*
G75*
G02*
X208792000Y-86659000I225000J0D01*
G01*
X209292000Y-86659000D01*
G75*
G02*
X209517000Y-86884000I0J-225000D01*
G01*
X209517000Y-87334000D01*
G75*
G02*
X209292000Y-87559000I-225000J0D01*
G01*
G37*
G36*
G01*
X209292000Y-89109000D02*
X208792000Y-89109000D01*
G75*
G02*
X208567000Y-88884000I0J225000D01*
G01*
X208567000Y-88434000D01*
G75*
G02*
X208792000Y-88209000I225000J0D01*
G01*
X209292000Y-88209000D01*
G75*
G02*
X209517000Y-88434000I0J-225000D01*
G01*
X209517000Y-88884000D01*
G75*
G02*
X209292000Y-89109000I-225000J0D01*
G01*
G37*
G04 #@! TD*
G04 #@! TO.C,C8*
G36*
G01*
X194734000Y-76204000D02*
X194734000Y-76704000D01*
G75*
G02*
X194509000Y-76929000I-225000J0D01*
G01*
X194059000Y-76929000D01*
G75*
G02*
X193834000Y-76704000I0J225000D01*
G01*
X193834000Y-76204000D01*
G75*
G02*
X194059000Y-75979000I225000J0D01*
G01*
X194509000Y-75979000D01*
G75*
G02*
X194734000Y-76204000I0J-225000D01*
G01*
G37*
G36*
G01*
X196284000Y-76204000D02*
X196284000Y-76704000D01*
G75*
G02*
X196059000Y-76929000I-225000J0D01*
G01*
X195609000Y-76929000D01*
G75*
G02*
X195384000Y-76704000I0J225000D01*
G01*
X195384000Y-76204000D01*
G75*
G02*
X195609000Y-75979000I225000J0D01*
G01*
X196059000Y-75979000D01*
G75*
G02*
X196284000Y-76204000I0J-225000D01*
G01*
G37*
G04 #@! TD*
G04 #@! TO.C,C3*
G36*
G01*
X205744000Y-88209000D02*
X206244000Y-88209000D01*
G75*
G02*
X206469000Y-88434000I0J-225000D01*
G01*
X206469000Y-88884000D01*
G75*
G02*
X206244000Y-89109000I-225000J0D01*
G01*
X205744000Y-89109000D01*
G75*
G02*
X205519000Y-88884000I0J225000D01*
G01*
X205519000Y-88434000D01*
G75*
G02*
X205744000Y-88209000I225000J0D01*
G01*
G37*
G36*
G01*
X205744000Y-86659000D02*
X206244000Y-86659000D01*
G75*
G02*
X206469000Y-86884000I0J-225000D01*
G01*
X206469000Y-87334000D01*
G75*
G02*
X206244000Y-87559000I-225000J0D01*
G01*
X205744000Y-87559000D01*
G75*
G02*
X205519000Y-87334000I0J225000D01*
G01*
X205519000Y-86884000D01*
G75*
G02*
X205744000Y-86659000I225000J0D01*
G01*
G37*
G04 #@! TD*
G04 #@! TO.C,C11*
G36*
G01*
X204033000Y-87880000D02*
X204033000Y-87380000D01*
G75*
G02*
X204258000Y-87155000I225000J0D01*
G01*
X204708000Y-87155000D01*
G75*
G02*
X204933000Y-87380000I0J-225000D01*
G01*
X204933000Y-87880000D01*
G75*
G02*
X204708000Y-88105000I-225000J0D01*
G01*
X204258000Y-88105000D01*
G75*
G02*
X204033000Y-87880000I0J225000D01*
G01*
G37*
G36*
G01*
X202483000Y-87880000D02*
X202483000Y-87380000D01*
G75*
G02*
X202708000Y-87155000I225000J0D01*
G01*
X203158000Y-87155000D01*
G75*
G02*
X203383000Y-87380000I0J-225000D01*
G01*
X203383000Y-87880000D01*
G75*
G02*
X203158000Y-88105000I-225000J0D01*
G01*
X202708000Y-88105000D01*
G75*
G02*
X202483000Y-87880000I0J225000D01*
G01*
G37*
G04 #@! TD*
G04 #@! TO.C,C12*
G36*
G01*
X207268000Y-88209000D02*
X207768000Y-88209000D01*
G75*
G02*
X207993000Y-88434000I0J-225000D01*
G01*
X207993000Y-88884000D01*
G75*
G02*
X207768000Y-89109000I-225000J0D01*
G01*
X207268000Y-89109000D01*
G75*
G02*
X207043000Y-88884000I0J225000D01*
G01*
X207043000Y-88434000D01*
G75*
G02*
X207268000Y-88209000I225000J0D01*
G01*
G37*
G36*
G01*
X207268000Y-86659000D02*
X207768000Y-86659000D01*
G75*
G02*
X207993000Y-86884000I0J-225000D01*
G01*
X207993000Y-87334000D01*
G75*
G02*
X207768000Y-87559000I-225000J0D01*
G01*
X207268000Y-87559000D01*
G75*
G02*
X207043000Y-87334000I0J225000D01*
G01*
X207043000Y-86884000D01*
G75*
G02*
X207268000Y-86659000I225000J0D01*
G01*
G37*
G04 #@! TD*
G04 #@! TO.C,C10*
G36*
G01*
X198798000Y-72648000D02*
X198798000Y-73148000D01*
G75*
G02*
X198573000Y-73373000I-225000J0D01*
G01*
X198123000Y-73373000D01*
G75*
G02*
X197898000Y-73148000I0J225000D01*
G01*
X197898000Y-72648000D01*
G75*
G02*
X198123000Y-72423000I225000J0D01*
G01*
X198573000Y-72423000D01*
G75*
G02*
X198798000Y-72648000I0J-225000D01*
G01*
G37*
G36*
G01*
X200348000Y-72648000D02*
X200348000Y-73148000D01*
G75*
G02*
X200123000Y-73373000I-225000J0D01*
G01*
X199673000Y-73373000D01*
G75*
G02*
X199448000Y-73148000I0J225000D01*
G01*
X199448000Y-72648000D01*
G75*
G02*
X199673000Y-72423000I225000J0D01*
G01*
X200123000Y-72423000D01*
G75*
G02*
X200348000Y-72648000I0J-225000D01*
G01*
G37*
G04 #@! TD*
G04 #@! TO.C,R1*
G36*
G01*
X173757000Y-78569000D02*
X173207000Y-78569000D01*
G75*
G02*
X173007000Y-78369000I0J200000D01*
G01*
X173007000Y-77969000D01*
G75*
G02*
X173207000Y-77769000I200000J0D01*
G01*
X173757000Y-77769000D01*
G75*
G02*
X173957000Y-77969000I0J-200000D01*
G01*
X173957000Y-78369000D01*
G75*
G02*
X173757000Y-78569000I-200000J0D01*
G01*
G37*
G36*
G01*
X173757000Y-80219000D02*
X173207000Y-80219000D01*
G75*
G02*
X173007000Y-80019000I0J200000D01*
G01*
X173007000Y-79619000D01*
G75*
G02*
X173207000Y-79419000I200000J0D01*
G01*
X173757000Y-79419000D01*
G75*
G02*
X173957000Y-79619000I0J-200000D01*
G01*
X173957000Y-80019000D01*
G75*
G02*
X173757000Y-80219000I-200000J0D01*
G01*
G37*
G04 #@! TD*
G04 #@! TO.C,C9*
G36*
G01*
X198811000Y-74680000D02*
X198811000Y-75180000D01*
G75*
G02*
X198586000Y-75405000I-225000J0D01*
G01*
X198136000Y-75405000D01*
G75*
G02*
X197911000Y-75180000I0J225000D01*
G01*
X197911000Y-74680000D01*
G75*
G02*
X198136000Y-74455000I225000J0D01*
G01*
X198586000Y-74455000D01*
G75*
G02*
X198811000Y-74680000I0J-225000D01*
G01*
G37*
G36*
G01*
X200361000Y-74680000D02*
X200361000Y-75180000D01*
G75*
G02*
X200136000Y-75405000I-225000J0D01*
G01*
X199686000Y-75405000D01*
G75*
G02*
X199461000Y-75180000I0J225000D01*
G01*
X199461000Y-74680000D01*
G75*
G02*
X199686000Y-74455000I225000J0D01*
G01*
X200136000Y-74455000D01*
G75*
G02*
X200361000Y-74680000I0J-225000D01*
G01*
G37*
G04 #@! TD*
G04 #@! TO.C,C6*
G36*
G01*
X176700000Y-86364000D02*
X176700000Y-86864000D01*
G75*
G02*
X176475000Y-87089000I-225000J0D01*
G01*
X176025000Y-87089000D01*
G75*
G02*
X175800000Y-86864000I0J225000D01*
G01*
X175800000Y-86364000D01*
G75*
G02*
X176025000Y-86139000I225000J0D01*
G01*
X176475000Y-86139000D01*
G75*
G02*
X176700000Y-86364000I0J-225000D01*
G01*
G37*
G36*
G01*
X178250000Y-86364000D02*
X178250000Y-86864000D01*
G75*
G02*
X178025000Y-87089000I-225000J0D01*
G01*
X177575000Y-87089000D01*
G75*
G02*
X177350000Y-86864000I0J225000D01*
G01*
X177350000Y-86364000D01*
G75*
G02*
X177575000Y-86139000I225000J0D01*
G01*
X178025000Y-86139000D01*
G75*
G02*
X178250000Y-86364000I0J-225000D01*
G01*
G37*
G04 #@! TD*
G04 #@! TO.C,U4*
G36*
G01*
X199922000Y-85829000D02*
X199922000Y-86129000D01*
G75*
G02*
X199772000Y-86279000I-150000J0D01*
G01*
X198122000Y-86279000D01*
G75*
G02*
X197972000Y-86129000I0J150000D01*
G01*
X197972000Y-85829000D01*
G75*
G02*
X198122000Y-85679000I150000J0D01*
G01*
X199772000Y-85679000D01*
G75*
G02*
X199922000Y-85829000I0J-150000D01*
G01*
G37*
G36*
G01*
X199922000Y-84559000D02*
X199922000Y-84859000D01*
G75*
G02*
X199772000Y-85009000I-150000J0D01*
G01*
X198122000Y-85009000D01*
G75*
G02*
X197972000Y-84859000I0J150000D01*
G01*
X197972000Y-84559000D01*
G75*
G02*
X198122000Y-84409000I150000J0D01*
G01*
X199772000Y-84409000D01*
G75*
G02*
X199922000Y-84559000I0J-150000D01*
G01*
G37*
G36*
G01*
X199922000Y-83289000D02*
X199922000Y-83589000D01*
G75*
G02*
X199772000Y-83739000I-150000J0D01*
G01*
X198122000Y-83739000D01*
G75*
G02*
X197972000Y-83589000I0J150000D01*
G01*
X197972000Y-83289000D01*
G75*
G02*
X198122000Y-83139000I150000J0D01*
G01*
X199772000Y-83139000D01*
G75*
G02*
X199922000Y-83289000I0J-150000D01*
G01*
G37*
G36*
G01*
X199922000Y-82019000D02*
X199922000Y-82319000D01*
G75*
G02*
X199772000Y-82469000I-150000J0D01*
G01*
X198122000Y-82469000D01*
G75*
G02*
X197972000Y-82319000I0J150000D01*
G01*
X197972000Y-82019000D01*
G75*
G02*
X198122000Y-81869000I150000J0D01*
G01*
X199772000Y-81869000D01*
G75*
G02*
X199922000Y-82019000I0J-150000D01*
G01*
G37*
G36*
G01*
X199922000Y-80749000D02*
X199922000Y-81049000D01*
G75*
G02*
X199772000Y-81199000I-150000J0D01*
G01*
X198122000Y-81199000D01*
G75*
G02*
X197972000Y-81049000I0J150000D01*
G01*
X197972000Y-80749000D01*
G75*
G02*
X198122000Y-80599000I150000J0D01*
G01*
X199772000Y-80599000D01*
G75*
G02*
X199922000Y-80749000I0J-150000D01*
G01*
G37*
G36*
G01*
X199922000Y-79479000D02*
X199922000Y-79779000D01*
G75*
G02*
X199772000Y-79929000I-150000J0D01*
G01*
X198122000Y-79929000D01*
G75*
G02*
X197972000Y-79779000I0J150000D01*
G01*
X197972000Y-79479000D01*
G75*
G02*
X198122000Y-79329000I150000J0D01*
G01*
X199772000Y-79329000D01*
G75*
G02*
X199922000Y-79479000I0J-150000D01*
G01*
G37*
G36*
G01*
X199922000Y-78209000D02*
X199922000Y-78509000D01*
G75*
G02*
X199772000Y-78659000I-150000J0D01*
G01*
X198122000Y-78659000D01*
G75*
G02*
X197972000Y-78509000I0J150000D01*
G01*
X197972000Y-78209000D01*
G75*
G02*
X198122000Y-78059000I150000J0D01*
G01*
X199772000Y-78059000D01*
G75*
G02*
X199922000Y-78209000I0J-150000D01*
G01*
G37*
G36*
G01*
X199922000Y-76939000D02*
X199922000Y-77239000D01*
G75*
G02*
X199772000Y-77389000I-150000J0D01*
G01*
X198122000Y-77389000D01*
G75*
G02*
X197972000Y-77239000I0J150000D01*
G01*
X197972000Y-76939000D01*
G75*
G02*
X198122000Y-76789000I150000J0D01*
G01*
X199772000Y-76789000D01*
G75*
G02*
X199922000Y-76939000I0J-150000D01*
G01*
G37*
G36*
G01*
X204872000Y-76939000D02*
X204872000Y-77239000D01*
G75*
G02*
X204722000Y-77389000I-150000J0D01*
G01*
X203072000Y-77389000D01*
G75*
G02*
X202922000Y-77239000I0J150000D01*
G01*
X202922000Y-76939000D01*
G75*
G02*
X203072000Y-76789000I150000J0D01*
G01*
X204722000Y-76789000D01*
G75*
G02*
X204872000Y-76939000I0J-150000D01*
G01*
G37*
G36*
G01*
X204872000Y-78209000D02*
X204872000Y-78509000D01*
G75*
G02*
X204722000Y-78659000I-150000J0D01*
G01*
X203072000Y-78659000D01*
G75*
G02*
X202922000Y-78509000I0J150000D01*
G01*
X202922000Y-78209000D01*
G75*
G02*
X203072000Y-78059000I150000J0D01*
G01*
X204722000Y-78059000D01*
G75*
G02*
X204872000Y-78209000I0J-150000D01*
G01*
G37*
G36*
G01*
X204872000Y-79479000D02*
X204872000Y-79779000D01*
G75*
G02*
X204722000Y-79929000I-150000J0D01*
G01*
X203072000Y-79929000D01*
G75*
G02*
X202922000Y-79779000I0J150000D01*
G01*
X202922000Y-79479000D01*
G75*
G02*
X203072000Y-79329000I150000J0D01*
G01*
X204722000Y-79329000D01*
G75*
G02*
X204872000Y-79479000I0J-150000D01*
G01*
G37*
G36*
G01*
X204872000Y-80749000D02*
X204872000Y-81049000D01*
G75*
G02*
X204722000Y-81199000I-150000J0D01*
G01*
X203072000Y-81199000D01*
G75*
G02*
X202922000Y-81049000I0J150000D01*
G01*
X202922000Y-80749000D01*
G75*
G02*
X203072000Y-80599000I150000J0D01*
G01*
X204722000Y-80599000D01*
G75*
G02*
X204872000Y-80749000I0J-150000D01*
G01*
G37*
G36*
G01*
X204872000Y-82019000D02*
X204872000Y-82319000D01*
G75*
G02*
X204722000Y-82469000I-150000J0D01*
G01*
X203072000Y-82469000D01*
G75*
G02*
X202922000Y-82319000I0J150000D01*
G01*
X202922000Y-82019000D01*
G75*
G02*
X203072000Y-81869000I150000J0D01*
G01*
X204722000Y-81869000D01*
G75*
G02*
X204872000Y-82019000I0J-150000D01*
G01*
G37*
G36*
G01*
X204872000Y-83289000D02*
X204872000Y-83589000D01*
G75*
G02*
X204722000Y-83739000I-150000J0D01*
G01*
X203072000Y-83739000D01*
G75*
G02*
X202922000Y-83589000I0J150000D01*
G01*
X202922000Y-83289000D01*
G75*
G02*
X203072000Y-83139000I150000J0D01*
G01*
X204722000Y-83139000D01*
G75*
G02*
X204872000Y-83289000I0J-150000D01*
G01*
G37*
G36*
G01*
X204872000Y-84559000D02*
X204872000Y-84859000D01*
G75*
G02*
X204722000Y-85009000I-150000J0D01*
G01*
X203072000Y-85009000D01*
G75*
G02*
X202922000Y-84859000I0J150000D01*
G01*
X202922000Y-84559000D01*
G75*
G02*
X203072000Y-84409000I150000J0D01*
G01*
X204722000Y-84409000D01*
G75*
G02*
X204872000Y-84559000I0J-150000D01*
G01*
G37*
G36*
G01*
X204872000Y-85829000D02*
X204872000Y-86129000D01*
G75*
G02*
X204722000Y-86279000I-150000J0D01*
G01*
X203072000Y-86279000D01*
G75*
G02*
X202922000Y-86129000I0J150000D01*
G01*
X202922000Y-85829000D01*
G75*
G02*
X203072000Y-85679000I150000J0D01*
G01*
X204722000Y-85679000D01*
G75*
G02*
X204872000Y-85829000I0J-150000D01*
G01*
G37*
G04 #@! TD*
D15*
G04 #@! TO.C,J2*
X192532000Y-78994000D03*
X195072000Y-78994000D03*
X192532000Y-81534000D03*
X195072000Y-81534000D03*
X192532000Y-84074000D03*
D16*
X195072000Y-84074000D03*
G04 #@! TD*
D25*
G04 #@! TO.C,U3*
X182112000Y-76776000D03*
X182912000Y-76776000D03*
X183712000Y-76776000D03*
X184512000Y-76776000D03*
X185312000Y-76776000D03*
X186112000Y-76776000D03*
X186912000Y-76776000D03*
X187712000Y-76776000D03*
D26*
X189162000Y-78226000D03*
X189162000Y-79026000D03*
X189162000Y-79826000D03*
X189162000Y-80626000D03*
X189162000Y-81426000D03*
X189162000Y-82226000D03*
X189162000Y-83026000D03*
X189162000Y-83826000D03*
D25*
X187712000Y-85276000D03*
X186912000Y-85276000D03*
X186112000Y-85276000D03*
X185312000Y-85276000D03*
X184512000Y-85276000D03*
X183712000Y-85276000D03*
X182912000Y-85276000D03*
X182112000Y-85276000D03*
D26*
X180662000Y-83826000D03*
X180662000Y-83026000D03*
X180662000Y-82226000D03*
X180662000Y-81426000D03*
X180662000Y-80626000D03*
X180662000Y-79826000D03*
X180662000Y-79026000D03*
X180662000Y-78226000D03*
G04 #@! TD*
D27*
G04 #@! TO.C,SW1*
X167597000Y-77919000D03*
X171747000Y-77919000D03*
X167597000Y-80069000D03*
X171747000Y-80069000D03*
G04 #@! TD*
G04 #@! TO.C,L1*
G36*
G01*
X172837000Y-85725250D02*
X172837000Y-84962750D01*
G75*
G02*
X173055750Y-84744000I218750J0D01*
G01*
X173493250Y-84744000D01*
G75*
G02*
X173712000Y-84962750I0J-218750D01*
G01*
X173712000Y-85725250D01*
G75*
G02*
X173493250Y-85944000I-218750J0D01*
G01*
X173055750Y-85944000D01*
G75*
G02*
X172837000Y-85725250I0J218750D01*
G01*
G37*
G36*
G01*
X170712000Y-85725250D02*
X170712000Y-84962750D01*
G75*
G02*
X170930750Y-84744000I218750J0D01*
G01*
X171368250Y-84744000D01*
G75*
G02*
X171587000Y-84962750I0J-218750D01*
G01*
X171587000Y-85725250D01*
G75*
G02*
X171368250Y-85944000I-218750J0D01*
G01*
X170930750Y-85944000D01*
G75*
G02*
X170712000Y-85725250I0J218750D01*
G01*
G37*
G04 #@! TD*
G04 #@! TO.C,C4*
G36*
G01*
X171828000Y-81821000D02*
X171828000Y-82771000D01*
G75*
G02*
X171578000Y-83021000I-250000J0D01*
G01*
X171078000Y-83021000D01*
G75*
G02*
X170828000Y-82771000I0J250000D01*
G01*
X170828000Y-81821000D01*
G75*
G02*
X171078000Y-81571000I250000J0D01*
G01*
X171578000Y-81571000D01*
G75*
G02*
X171828000Y-81821000I0J-250000D01*
G01*
G37*
G36*
G01*
X173728000Y-81821000D02*
X173728000Y-82771000D01*
G75*
G02*
X173478000Y-83021000I-250000J0D01*
G01*
X172978000Y-83021000D01*
G75*
G02*
X172728000Y-82771000I0J250000D01*
G01*
X172728000Y-81821000D01*
G75*
G02*
X172978000Y-81571000I250000J0D01*
G01*
X173478000Y-81571000D01*
G75*
G02*
X173728000Y-81821000I0J-250000D01*
G01*
G37*
G04 #@! TD*
M02*
