M48
; DRILL file {KiCad 5.1.12-84ad8e8a86~92~ubuntu20.04.1} date Tue 23 Nov 2021 01:14:42 GMT
; FORMAT={-:-/ absolute / metric / decimal}
; #@! TF.CreationDate,2021-11-23T01:14:42+00:00
; #@! TF.GenerationSoftware,Kicad,Pcbnew,5.1.12-84ad8e8a86~92~ubuntu20.04.1
; #@! TF.FileFunction,Plated,1,4,PTH
FMAT,2
METRIC
T1C0.400
T2C0.500
T3C0.550
T4C1.000
T5C1.520
%
G90
G05
T1
X156.21Y-76.962
X161.519Y-75.971
X162.306Y-81.534
X169.112Y-81.244
X169.189Y-86.843
X174.582Y-81.005
X176.276Y-74.93
X178.054Y-75.184
X179.578Y-88.138
X180.086Y-72.898
X180.848Y-75.184
X180.848Y-76.962
X182.626Y-78.994
X182.626Y-81.534
X185.928Y-74.93
X186.69Y-78.232
X186.69Y-79.502
X186.69Y-83.566
X188.976Y-85.344
X190.246Y-72.898
X192.786Y-76.454
X196.342Y-87.63
X196.596Y-88.9
X196.85Y-85.852
X200.524Y-74.041
X201.888Y-79.936
X201.93Y-76.962
X201.93Y-78.486
X201.93Y-81.026
X201.93Y-83.058
X201.93Y-84.328
X201.93Y-85.598
X202.946Y-89.154
X205.202Y-72.898
X206.248Y-81.534
X206.248Y-82.55
X206.507Y-76.449
X206.756Y-85.852
X208.534Y-76.454
X210.312Y-73.152
X210.34Y-72.108
T4
X181.356Y-88.138
X183.896Y-88.138
X186.436Y-88.138
X188.976Y-88.138
X192.532Y-78.994
X192.532Y-81.534
X192.532Y-84.074
X195.072Y-78.994
X195.072Y-81.534
X195.072Y-84.074
T5
X147.828Y-74.93
X147.828Y-80.01
T2
X211.541Y-78.034G85X212.191Y-78.034
G05
X211.541Y-85.034G85X212.191Y-85.034
G05
T3
X209.166Y-79.184G85X209.166Y-78.884
G05
X209.166Y-84.184G85X209.166Y-83.884
G05
T0
M30
