G04 #@! TF.GenerationSoftware,KiCad,Pcbnew,5.1.12-84ad8e8a86~92~ubuntu20.04.1*
G04 #@! TF.CreationDate,2021-11-23T01:14:47+00:00*
G04 #@! TF.ProjectId,atmega-demo,61746d65-6761-42d6-9465-6d6f2e6b6963,rev?*
G04 #@! TF.SameCoordinates,Original*
G04 #@! TF.FileFunction,Copper,L4,Bot*
G04 #@! TF.FilePolarity,Positive*
%FSLAX46Y46*%
G04 Gerber Fmt 4.6, Leading zero omitted, Abs format (unit mm)*
G04 Created by KiCad (PCBNEW 5.1.12-84ad8e8a86~92~ubuntu20.04.1) date 2021-11-23 01:14:47*
%MOMM*%
%LPD*%
G01*
G04 APERTURE LIST*
G04 #@! TA.AperFunction,ComponentPad*
%ADD10C,3.000000*%
G04 #@! TD*
G04 #@! TA.AperFunction,ComponentPad*
%ADD11R,3.000000X3.000000*%
G04 #@! TD*
G04 #@! TA.AperFunction,ComponentPad*
%ADD12O,1.700000X1.700000*%
G04 #@! TD*
G04 #@! TA.AperFunction,ComponentPad*
%ADD13R,1.700000X1.700000*%
G04 #@! TD*
G04 #@! TA.AperFunction,ComponentPad*
%ADD14O,1.550000X0.890000*%
G04 #@! TD*
G04 #@! TA.AperFunction,ComponentPad*
%ADD15O,0.950000X1.250000*%
G04 #@! TD*
G04 #@! TA.AperFunction,ViaPad*
%ADD16C,0.800000*%
G04 #@! TD*
G04 #@! TA.AperFunction,Conductor*
%ADD17C,0.254000*%
G04 #@! TD*
G04 #@! TA.AperFunction,Conductor*
%ADD18C,0.100000*%
G04 #@! TD*
G04 APERTURE END LIST*
D10*
G04 #@! TO.P,J4,2*
G04 #@! TO.N,Net-(J4-Pad2)*
X147828000Y-74930000D03*
D11*
G04 #@! TO.P,J4,1*
G04 #@! TO.N,Net-(J4-Pad1)*
X147828000Y-80010000D03*
G04 #@! TD*
D12*
G04 #@! TO.P,J1,4*
G04 #@! TO.N,Net-(J1-Pad4)*
X181356000Y-88138000D03*
G04 #@! TO.P,J1,3*
G04 #@! TO.N,Net-(J1-Pad3)*
X183896000Y-88138000D03*
G04 #@! TO.P,J1,2*
G04 #@! TO.N,Net-(J1-Pad2)*
X186436000Y-88138000D03*
D13*
G04 #@! TO.P,J1,1*
G04 #@! TO.N,Net-(J1-Pad1)*
X188976000Y-88138000D03*
G04 #@! TD*
D14*
G04 #@! TO.P,J3,6*
G04 #@! TO.N,Net-(C7-Pad2)*
X211866000Y-78034000D03*
X211866000Y-85034000D03*
D15*
X209166000Y-79034000D03*
X209166000Y-84034000D03*
G04 #@! TD*
D12*
G04 #@! TO.P,J2,6*
G04 #@! TO.N,GND*
X192532000Y-78994000D03*
G04 #@! TO.P,J2,5*
G04 #@! TO.N,Net-(C8-Pad2)*
X195072000Y-78994000D03*
G04 #@! TO.P,J2,4*
G04 #@! TO.N,Net-(J2-Pad4)*
X192532000Y-81534000D03*
G04 #@! TO.P,J2,3*
G04 #@! TO.N,Net-(J2-Pad3)*
X195072000Y-81534000D03*
G04 #@! TO.P,J2,2*
G04 #@! TO.N,+5V*
X192532000Y-84074000D03*
D13*
G04 #@! TO.P,J2,1*
G04 #@! TO.N,Net-(J2-Pad1)*
X195072000Y-84074000D03*
G04 #@! TD*
D16*
G04 #@! TO.N,Net-(C8-Pad2)*
X192786000Y-76454000D03*
X185928000Y-74930000D03*
G04 #@! TO.N,+5V*
X178054000Y-75184000D03*
G04 #@! TO.N,TEMP*
X162306000Y-81534000D03*
G04 #@! TO.N,ADC*
X156210000Y-76962000D03*
G04 #@! TO.N,Net-(C10-Pad1)*
X201930000Y-76962000D03*
G04 #@! TO.N,Net-(C9-Pad1)*
X201930000Y-78486000D03*
G04 #@! TO.N,RXD*
X201930000Y-84328000D03*
G04 #@! TO.N,TXD*
X201930000Y-85598000D03*
G04 #@! TO.N,Net-(C11-Pad1)*
X201930000Y-83058000D03*
G04 #@! TO.N,Net-(D3-Pad3)*
X201930000Y-81026000D03*
G04 #@! TO.N,+5V*
X196850000Y-85852000D03*
X210311992Y-73152000D03*
X182626000Y-81534000D03*
X206756000Y-85852000D03*
X161519000Y-75971000D03*
X174581770Y-81005196D03*
G04 #@! TO.N,TEMP*
X186690000Y-78232000D03*
G04 #@! TO.N,ADC*
X186690000Y-79502000D03*
G04 #@! TO.N,Net-(D3-Pad2)*
X206248000Y-82550000D03*
G04 #@! TO.N,Net-(D3-Pad3)*
X206248000Y-81534000D03*
G04 #@! TO.N,Net-(J2-Pad4)*
X186690000Y-83566000D03*
G04 #@! TO.N,Net-(J1-Pad4)*
X182626000Y-78994000D03*
X179578000Y-88138000D03*
G04 #@! TO.N,Net-(C9-Pad1)*
X200523680Y-74041000D03*
G04 #@! TO.N,Net-(D1-Pad2)*
X180848000Y-76961996D03*
X169189496Y-86842504D03*
G04 #@! TO.N,RXD*
X190246000Y-72898000D03*
G04 #@! TO.N,TXD*
X180086000Y-72898000D03*
G04 #@! TO.N,Net-(C7-Pad2)*
X210340497Y-72107503D03*
G04 #@! TO.N,Net-(C8-Pad2)*
X176276000Y-74930000D03*
G04 #@! TO.N,Net-(C10-Pad1)*
X205201988Y-72898000D03*
G04 #@! TO.N,Net-(C11-Pad1)*
X202946000Y-89154000D03*
G04 #@! TO.N,Net-(D2-Pad2)*
X180848000Y-75183988D03*
X169112132Y-81244010D03*
G04 #@! TO.N,Net-(D3-Pad3)*
X196342000Y-87630000D03*
X208534000Y-76454000D03*
G04 #@! TO.N,Net-(D3-Pad2)*
X196596000Y-88900000D03*
X206506660Y-76449340D03*
X201887817Y-79936011D03*
G04 #@! TO.N,Net-(J2-Pad1)*
X188976012Y-85344000D03*
G04 #@! TD*
D17*
G04 #@! TO.N,+5V*
X211709000Y-76954000D02*
X211482949Y-76954000D01*
X211324283Y-76969627D01*
X211120702Y-77031383D01*
X210933081Y-77131668D01*
X210768630Y-77266630D01*
X210633668Y-77431081D01*
X210533383Y-77618702D01*
X210471627Y-77822283D01*
X210450775Y-78034000D01*
X210471627Y-78245717D01*
X210533383Y-78449298D01*
X210633668Y-78636919D01*
X210768630Y-78801370D01*
X210933081Y-78936332D01*
X211120702Y-79036617D01*
X211324283Y-79098373D01*
X211482949Y-79114000D01*
X211709000Y-79114000D01*
X211709000Y-83954000D01*
X211482949Y-83954000D01*
X211324283Y-83969627D01*
X211120702Y-84031383D01*
X210933081Y-84131668D01*
X210768630Y-84266630D01*
X210633668Y-84431081D01*
X210533383Y-84618702D01*
X210471627Y-84822283D01*
X210450775Y-85034000D01*
X210471627Y-85245717D01*
X210533383Y-85449298D01*
X210633668Y-85636919D01*
X210768630Y-85801370D01*
X210933081Y-85936332D01*
X211120702Y-86036617D01*
X211324283Y-86098373D01*
X211482949Y-86114000D01*
X211709000Y-86114000D01*
X211709000Y-89789000D01*
X203766490Y-89789000D01*
X203863205Y-89644256D01*
X203941226Y-89455898D01*
X203981000Y-89255939D01*
X203981000Y-89052061D01*
X203941226Y-88852102D01*
X203863205Y-88663744D01*
X203749937Y-88494226D01*
X203605774Y-88350063D01*
X203436256Y-88236795D01*
X203247898Y-88158774D01*
X203047939Y-88119000D01*
X202844061Y-88119000D01*
X202644102Y-88158774D01*
X202455744Y-88236795D01*
X202286226Y-88350063D01*
X202142063Y-88494226D01*
X202028795Y-88663744D01*
X201950774Y-88852102D01*
X201911000Y-89052061D01*
X201911000Y-89255939D01*
X201950774Y-89455898D01*
X202028795Y-89644256D01*
X202125510Y-89789000D01*
X197128468Y-89789000D01*
X197255774Y-89703937D01*
X197399937Y-89559774D01*
X197513205Y-89390256D01*
X197591226Y-89201898D01*
X197631000Y-89001939D01*
X197631000Y-88798061D01*
X197591226Y-88598102D01*
X197513205Y-88409744D01*
X197399937Y-88240226D01*
X197265286Y-88105575D01*
X197337226Y-87931898D01*
X197377000Y-87731939D01*
X197377000Y-87528061D01*
X197337226Y-87328102D01*
X197259205Y-87139744D01*
X197145937Y-86970226D01*
X197001774Y-86826063D01*
X196832256Y-86712795D01*
X196643898Y-86634774D01*
X196443939Y-86595000D01*
X196240061Y-86595000D01*
X196040102Y-86634774D01*
X195851744Y-86712795D01*
X195682226Y-86826063D01*
X195538063Y-86970226D01*
X195424795Y-87139744D01*
X195346774Y-87328102D01*
X195307000Y-87528061D01*
X195307000Y-87731939D01*
X195346774Y-87931898D01*
X195424795Y-88120256D01*
X195538063Y-88289774D01*
X195672714Y-88424425D01*
X195600774Y-88598102D01*
X195561000Y-88798061D01*
X195561000Y-89001939D01*
X195600774Y-89201898D01*
X195678795Y-89390256D01*
X195792063Y-89559774D01*
X195936226Y-89703937D01*
X196063532Y-89789000D01*
X151511000Y-89789000D01*
X151511000Y-88036061D01*
X178543000Y-88036061D01*
X178543000Y-88239939D01*
X178582774Y-88439898D01*
X178660795Y-88628256D01*
X178774063Y-88797774D01*
X178918226Y-88941937D01*
X179087744Y-89055205D01*
X179276102Y-89133226D01*
X179476061Y-89173000D01*
X179679939Y-89173000D01*
X179879898Y-89133226D01*
X180068256Y-89055205D01*
X180147488Y-89002264D01*
X180202525Y-89084632D01*
X180409368Y-89291475D01*
X180652589Y-89453990D01*
X180922842Y-89565932D01*
X181209740Y-89623000D01*
X181502260Y-89623000D01*
X181789158Y-89565932D01*
X182059411Y-89453990D01*
X182302632Y-89291475D01*
X182509475Y-89084632D01*
X182626000Y-88910240D01*
X182742525Y-89084632D01*
X182949368Y-89291475D01*
X183192589Y-89453990D01*
X183462842Y-89565932D01*
X183749740Y-89623000D01*
X184042260Y-89623000D01*
X184329158Y-89565932D01*
X184599411Y-89453990D01*
X184842632Y-89291475D01*
X185049475Y-89084632D01*
X185166000Y-88910240D01*
X185282525Y-89084632D01*
X185489368Y-89291475D01*
X185732589Y-89453990D01*
X186002842Y-89565932D01*
X186289740Y-89623000D01*
X186582260Y-89623000D01*
X186869158Y-89565932D01*
X187139411Y-89453990D01*
X187382632Y-89291475D01*
X187514487Y-89159620D01*
X187536498Y-89232180D01*
X187595463Y-89342494D01*
X187674815Y-89439185D01*
X187771506Y-89518537D01*
X187881820Y-89577502D01*
X188001518Y-89613812D01*
X188126000Y-89626072D01*
X189826000Y-89626072D01*
X189950482Y-89613812D01*
X190070180Y-89577502D01*
X190180494Y-89518537D01*
X190277185Y-89439185D01*
X190356537Y-89342494D01*
X190415502Y-89232180D01*
X190451812Y-89112482D01*
X190464072Y-88988000D01*
X190464072Y-87288000D01*
X190451812Y-87163518D01*
X190415502Y-87043820D01*
X190356537Y-86933506D01*
X190277185Y-86836815D01*
X190180494Y-86757463D01*
X190070180Y-86698498D01*
X189950482Y-86662188D01*
X189826000Y-86649928D01*
X188126000Y-86649928D01*
X188001518Y-86662188D01*
X187881820Y-86698498D01*
X187771506Y-86757463D01*
X187674815Y-86836815D01*
X187595463Y-86933506D01*
X187536498Y-87043820D01*
X187514487Y-87116380D01*
X187382632Y-86984525D01*
X187139411Y-86822010D01*
X186869158Y-86710068D01*
X186582260Y-86653000D01*
X186289740Y-86653000D01*
X186002842Y-86710068D01*
X185732589Y-86822010D01*
X185489368Y-86984525D01*
X185282525Y-87191368D01*
X185166000Y-87365760D01*
X185049475Y-87191368D01*
X184842632Y-86984525D01*
X184599411Y-86822010D01*
X184329158Y-86710068D01*
X184042260Y-86653000D01*
X183749740Y-86653000D01*
X183462842Y-86710068D01*
X183192589Y-86822010D01*
X182949368Y-86984525D01*
X182742525Y-87191368D01*
X182626000Y-87365760D01*
X182509475Y-87191368D01*
X182302632Y-86984525D01*
X182059411Y-86822010D01*
X181789158Y-86710068D01*
X181502260Y-86653000D01*
X181209740Y-86653000D01*
X180922842Y-86710068D01*
X180652589Y-86822010D01*
X180409368Y-86984525D01*
X180202525Y-87191368D01*
X180147488Y-87273736D01*
X180068256Y-87220795D01*
X179879898Y-87142774D01*
X179679939Y-87103000D01*
X179476061Y-87103000D01*
X179276102Y-87142774D01*
X179087744Y-87220795D01*
X178918226Y-87334063D01*
X178774063Y-87478226D01*
X178660795Y-87647744D01*
X178582774Y-87836102D01*
X178543000Y-88036061D01*
X151511000Y-88036061D01*
X151511000Y-86740565D01*
X168154496Y-86740565D01*
X168154496Y-86944443D01*
X168194270Y-87144402D01*
X168272291Y-87332760D01*
X168385559Y-87502278D01*
X168529722Y-87646441D01*
X168699240Y-87759709D01*
X168887598Y-87837730D01*
X169087557Y-87877504D01*
X169291435Y-87877504D01*
X169491394Y-87837730D01*
X169679752Y-87759709D01*
X169849270Y-87646441D01*
X169993433Y-87502278D01*
X170106701Y-87332760D01*
X170184722Y-87144402D01*
X170224496Y-86944443D01*
X170224496Y-86740565D01*
X170184722Y-86540606D01*
X170106701Y-86352248D01*
X169993433Y-86182730D01*
X169849270Y-86038567D01*
X169679752Y-85925299D01*
X169491394Y-85847278D01*
X169291435Y-85807504D01*
X169087557Y-85807504D01*
X168887598Y-85847278D01*
X168699240Y-85925299D01*
X168529722Y-86038567D01*
X168385559Y-86182730D01*
X168272291Y-86352248D01*
X168194270Y-86540606D01*
X168154496Y-86740565D01*
X151511000Y-86740565D01*
X151511000Y-85242061D01*
X187941012Y-85242061D01*
X187941012Y-85445939D01*
X187980786Y-85645898D01*
X188058807Y-85834256D01*
X188172075Y-86003774D01*
X188316238Y-86147937D01*
X188485756Y-86261205D01*
X188674114Y-86339226D01*
X188874073Y-86379000D01*
X189077951Y-86379000D01*
X189277910Y-86339226D01*
X189466268Y-86261205D01*
X189635786Y-86147937D01*
X189779949Y-86003774D01*
X189893217Y-85834256D01*
X189971238Y-85645898D01*
X190011012Y-85445939D01*
X190011012Y-85242061D01*
X189971238Y-85042102D01*
X189893217Y-84853744D01*
X189779949Y-84684226D01*
X189635786Y-84540063D01*
X189472397Y-84430890D01*
X191090524Y-84430890D01*
X191135175Y-84578099D01*
X191260359Y-84840920D01*
X191434412Y-85074269D01*
X191650645Y-85269178D01*
X191900748Y-85418157D01*
X192175109Y-85515481D01*
X192405000Y-85394814D01*
X192405000Y-84201000D01*
X191211845Y-84201000D01*
X191090524Y-84430890D01*
X189472397Y-84430890D01*
X189466268Y-84426795D01*
X189277910Y-84348774D01*
X189077951Y-84309000D01*
X188874073Y-84309000D01*
X188674114Y-84348774D01*
X188485756Y-84426795D01*
X188316238Y-84540063D01*
X188172075Y-84684226D01*
X188058807Y-84853744D01*
X187980786Y-85042102D01*
X187941012Y-85242061D01*
X151511000Y-85242061D01*
X151511000Y-83464061D01*
X185655000Y-83464061D01*
X185655000Y-83667939D01*
X185694774Y-83867898D01*
X185772795Y-84056256D01*
X185886063Y-84225774D01*
X186030226Y-84369937D01*
X186199744Y-84483205D01*
X186388102Y-84561226D01*
X186588061Y-84601000D01*
X186791939Y-84601000D01*
X186991898Y-84561226D01*
X187180256Y-84483205D01*
X187349774Y-84369937D01*
X187493937Y-84225774D01*
X187607205Y-84056256D01*
X187685226Y-83867898D01*
X187725000Y-83667939D01*
X187725000Y-83464061D01*
X187685226Y-83264102D01*
X187607205Y-83075744D01*
X187493937Y-82906226D01*
X187349774Y-82762063D01*
X187180256Y-82648795D01*
X186991898Y-82570774D01*
X186791939Y-82531000D01*
X186588061Y-82531000D01*
X186388102Y-82570774D01*
X186199744Y-82648795D01*
X186030226Y-82762063D01*
X185886063Y-82906226D01*
X185772795Y-83075744D01*
X185694774Y-83264102D01*
X185655000Y-83464061D01*
X151511000Y-83464061D01*
X151511000Y-81432061D01*
X161271000Y-81432061D01*
X161271000Y-81635939D01*
X161310774Y-81835898D01*
X161388795Y-82024256D01*
X161502063Y-82193774D01*
X161646226Y-82337937D01*
X161815744Y-82451205D01*
X162004102Y-82529226D01*
X162204061Y-82569000D01*
X162407939Y-82569000D01*
X162607898Y-82529226D01*
X162796256Y-82451205D01*
X162965774Y-82337937D01*
X163109937Y-82193774D01*
X163223205Y-82024256D01*
X163301226Y-81835898D01*
X163341000Y-81635939D01*
X163341000Y-81432061D01*
X163301226Y-81232102D01*
X163263934Y-81142071D01*
X168077132Y-81142071D01*
X168077132Y-81345949D01*
X168116906Y-81545908D01*
X168194927Y-81734266D01*
X168308195Y-81903784D01*
X168452358Y-82047947D01*
X168621876Y-82161215D01*
X168810234Y-82239236D01*
X169010193Y-82279010D01*
X169214071Y-82279010D01*
X169414030Y-82239236D01*
X169602388Y-82161215D01*
X169771906Y-82047947D01*
X169916069Y-81903784D01*
X170029337Y-81734266D01*
X170107358Y-81545908D01*
X170147132Y-81345949D01*
X170147132Y-81142071D01*
X170107358Y-80942112D01*
X170029337Y-80753754D01*
X169916069Y-80584236D01*
X169771906Y-80440073D01*
X169602388Y-80326805D01*
X169414030Y-80248784D01*
X169214071Y-80209010D01*
X169010193Y-80209010D01*
X168810234Y-80248784D01*
X168621876Y-80326805D01*
X168452358Y-80440073D01*
X168308195Y-80584236D01*
X168194927Y-80753754D01*
X168116906Y-80942112D01*
X168077132Y-81142071D01*
X163263934Y-81142071D01*
X163223205Y-81043744D01*
X163109937Y-80874226D01*
X162965774Y-80730063D01*
X162796256Y-80616795D01*
X162607898Y-80538774D01*
X162407939Y-80499000D01*
X162204061Y-80499000D01*
X162004102Y-80538774D01*
X161815744Y-80616795D01*
X161646226Y-80730063D01*
X161502063Y-80874226D01*
X161388795Y-81043744D01*
X161310774Y-81232102D01*
X161271000Y-81432061D01*
X151511000Y-81432061D01*
X151511000Y-78892061D01*
X181591000Y-78892061D01*
X181591000Y-79095939D01*
X181630774Y-79295898D01*
X181708795Y-79484256D01*
X181822063Y-79653774D01*
X181966226Y-79797937D01*
X182135744Y-79911205D01*
X182324102Y-79989226D01*
X182524061Y-80029000D01*
X182727939Y-80029000D01*
X182927898Y-79989226D01*
X183116256Y-79911205D01*
X183285774Y-79797937D01*
X183429937Y-79653774D01*
X183543205Y-79484256D01*
X183621226Y-79295898D01*
X183661000Y-79095939D01*
X183661000Y-78892061D01*
X183621226Y-78692102D01*
X183543205Y-78503744D01*
X183429937Y-78334226D01*
X183285774Y-78190063D01*
X183195975Y-78130061D01*
X185655000Y-78130061D01*
X185655000Y-78333939D01*
X185694774Y-78533898D01*
X185772795Y-78722256D01*
X185869510Y-78867000D01*
X185772795Y-79011744D01*
X185694774Y-79200102D01*
X185655000Y-79400061D01*
X185655000Y-79603939D01*
X185694774Y-79803898D01*
X185772795Y-79992256D01*
X185886063Y-80161774D01*
X186030226Y-80305937D01*
X186199744Y-80419205D01*
X186388102Y-80497226D01*
X186588061Y-80537000D01*
X186791939Y-80537000D01*
X186991898Y-80497226D01*
X187180256Y-80419205D01*
X187349774Y-80305937D01*
X187493937Y-80161774D01*
X187607205Y-79992256D01*
X187685226Y-79803898D01*
X187725000Y-79603939D01*
X187725000Y-79400061D01*
X187685226Y-79200102D01*
X187607205Y-79011744D01*
X187510490Y-78867000D01*
X187523359Y-78847740D01*
X191047000Y-78847740D01*
X191047000Y-79140260D01*
X191104068Y-79427158D01*
X191216010Y-79697411D01*
X191378525Y-79940632D01*
X191585368Y-80147475D01*
X191759760Y-80264000D01*
X191585368Y-80380525D01*
X191378525Y-80587368D01*
X191216010Y-80830589D01*
X191104068Y-81100842D01*
X191047000Y-81387740D01*
X191047000Y-81680260D01*
X191104068Y-81967158D01*
X191216010Y-82237411D01*
X191378525Y-82480632D01*
X191585368Y-82687475D01*
X191767534Y-82809195D01*
X191650645Y-82878822D01*
X191434412Y-83073731D01*
X191260359Y-83307080D01*
X191135175Y-83569901D01*
X191090524Y-83717110D01*
X191211845Y-83947000D01*
X192405000Y-83947000D01*
X192405000Y-83927000D01*
X192659000Y-83927000D01*
X192659000Y-83947000D01*
X192679000Y-83947000D01*
X192679000Y-84201000D01*
X192659000Y-84201000D01*
X192659000Y-85394814D01*
X192888891Y-85515481D01*
X193163252Y-85418157D01*
X193413355Y-85269178D01*
X193609502Y-85092374D01*
X193632498Y-85168180D01*
X193691463Y-85278494D01*
X193770815Y-85375185D01*
X193867506Y-85454537D01*
X193977820Y-85513502D01*
X194097518Y-85549812D01*
X194222000Y-85562072D01*
X195922000Y-85562072D01*
X196046482Y-85549812D01*
X196166180Y-85513502D01*
X196276494Y-85454537D01*
X196373185Y-85375185D01*
X196452537Y-85278494D01*
X196511502Y-85168180D01*
X196547812Y-85048482D01*
X196560072Y-84924000D01*
X196560072Y-83224000D01*
X196547812Y-83099518D01*
X196511502Y-82979820D01*
X196452537Y-82869506D01*
X196373185Y-82772815D01*
X196276494Y-82693463D01*
X196166180Y-82634498D01*
X196093620Y-82612487D01*
X196225475Y-82480632D01*
X196387990Y-82237411D01*
X196499932Y-81967158D01*
X196557000Y-81680260D01*
X196557000Y-81387740D01*
X196499932Y-81100842D01*
X196387990Y-80830589D01*
X196225475Y-80587368D01*
X196018632Y-80380525D01*
X195844240Y-80264000D01*
X196018632Y-80147475D01*
X196225475Y-79940632D01*
X196296676Y-79834072D01*
X200852817Y-79834072D01*
X200852817Y-80037950D01*
X200892591Y-80237909D01*
X200970612Y-80426267D01*
X201028278Y-80512571D01*
X201012795Y-80535744D01*
X200934774Y-80724102D01*
X200895000Y-80924061D01*
X200895000Y-81127939D01*
X200934774Y-81327898D01*
X201012795Y-81516256D01*
X201126063Y-81685774D01*
X201270226Y-81829937D01*
X201439744Y-81943205D01*
X201628102Y-82021226D01*
X201732541Y-82042000D01*
X201628102Y-82062774D01*
X201439744Y-82140795D01*
X201270226Y-82254063D01*
X201126063Y-82398226D01*
X201012795Y-82567744D01*
X200934774Y-82756102D01*
X200895000Y-82956061D01*
X200895000Y-83159939D01*
X200934774Y-83359898D01*
X201012795Y-83548256D01*
X201109510Y-83693000D01*
X201012795Y-83837744D01*
X200934774Y-84026102D01*
X200895000Y-84226061D01*
X200895000Y-84429939D01*
X200934774Y-84629898D01*
X201012795Y-84818256D01*
X201109510Y-84963000D01*
X201012795Y-85107744D01*
X200934774Y-85296102D01*
X200895000Y-85496061D01*
X200895000Y-85699939D01*
X200934774Y-85899898D01*
X201012795Y-86088256D01*
X201126063Y-86257774D01*
X201270226Y-86401937D01*
X201439744Y-86515205D01*
X201628102Y-86593226D01*
X201828061Y-86633000D01*
X202031939Y-86633000D01*
X202231898Y-86593226D01*
X202420256Y-86515205D01*
X202589774Y-86401937D01*
X202733937Y-86257774D01*
X202847205Y-86088256D01*
X202925226Y-85899898D01*
X202965000Y-85699939D01*
X202965000Y-85496061D01*
X202925226Y-85296102D01*
X202847205Y-85107744D01*
X202750490Y-84963000D01*
X202847205Y-84818256D01*
X202925226Y-84629898D01*
X202965000Y-84429939D01*
X202965000Y-84226061D01*
X202925226Y-84026102D01*
X202847205Y-83837744D01*
X202841684Y-83829480D01*
X208056000Y-83829480D01*
X208056000Y-84238521D01*
X208072062Y-84401598D01*
X208135532Y-84610834D01*
X208238604Y-84803666D01*
X208377315Y-84972686D01*
X208546335Y-85111396D01*
X208739167Y-85214468D01*
X208948403Y-85277938D01*
X209166000Y-85299370D01*
X209383598Y-85277938D01*
X209592834Y-85214468D01*
X209785666Y-85111396D01*
X209954686Y-84972686D01*
X210093396Y-84803666D01*
X210196468Y-84610833D01*
X210259938Y-84401597D01*
X210276000Y-84238520D01*
X210276000Y-83829479D01*
X210259938Y-83666402D01*
X210196468Y-83457166D01*
X210093396Y-83264334D01*
X209954686Y-83095314D01*
X209785666Y-82956604D01*
X209592833Y-82853532D01*
X209383597Y-82790062D01*
X209166000Y-82768630D01*
X208948402Y-82790062D01*
X208739166Y-82853532D01*
X208546334Y-82956604D01*
X208377314Y-83095314D01*
X208238604Y-83264334D01*
X208135532Y-83457167D01*
X208072062Y-83666403D01*
X208056000Y-83829480D01*
X202841684Y-83829480D01*
X202750490Y-83693000D01*
X202847205Y-83548256D01*
X202925226Y-83359898D01*
X202965000Y-83159939D01*
X202965000Y-82956061D01*
X202925226Y-82756102D01*
X202847205Y-82567744D01*
X202733937Y-82398226D01*
X202589774Y-82254063D01*
X202420256Y-82140795D01*
X202231898Y-82062774D01*
X202127459Y-82042000D01*
X202231898Y-82021226D01*
X202420256Y-81943205D01*
X202589774Y-81829937D01*
X202733937Y-81685774D01*
X202847205Y-81516256D01*
X202882079Y-81432061D01*
X205213000Y-81432061D01*
X205213000Y-81635939D01*
X205252774Y-81835898D01*
X205330795Y-82024256D01*
X205342651Y-82042000D01*
X205330795Y-82059744D01*
X205252774Y-82248102D01*
X205213000Y-82448061D01*
X205213000Y-82651939D01*
X205252774Y-82851898D01*
X205330795Y-83040256D01*
X205444063Y-83209774D01*
X205588226Y-83353937D01*
X205757744Y-83467205D01*
X205946102Y-83545226D01*
X206146061Y-83585000D01*
X206349939Y-83585000D01*
X206549898Y-83545226D01*
X206738256Y-83467205D01*
X206907774Y-83353937D01*
X207051937Y-83209774D01*
X207165205Y-83040256D01*
X207243226Y-82851898D01*
X207283000Y-82651939D01*
X207283000Y-82448061D01*
X207243226Y-82248102D01*
X207165205Y-82059744D01*
X207153349Y-82042000D01*
X207165205Y-82024256D01*
X207243226Y-81835898D01*
X207283000Y-81635939D01*
X207283000Y-81432061D01*
X207243226Y-81232102D01*
X207165205Y-81043744D01*
X207051937Y-80874226D01*
X206907774Y-80730063D01*
X206738256Y-80616795D01*
X206549898Y-80538774D01*
X206349939Y-80499000D01*
X206146061Y-80499000D01*
X205946102Y-80538774D01*
X205757744Y-80616795D01*
X205588226Y-80730063D01*
X205444063Y-80874226D01*
X205330795Y-81043744D01*
X205252774Y-81232102D01*
X205213000Y-81432061D01*
X202882079Y-81432061D01*
X202925226Y-81327898D01*
X202965000Y-81127939D01*
X202965000Y-80924061D01*
X202925226Y-80724102D01*
X202847205Y-80535744D01*
X202789539Y-80449440D01*
X202805022Y-80426267D01*
X202883043Y-80237909D01*
X202922817Y-80037950D01*
X202922817Y-79834072D01*
X202883043Y-79634113D01*
X202805022Y-79445755D01*
X202691754Y-79276237D01*
X202647614Y-79232097D01*
X202733937Y-79145774D01*
X202847205Y-78976256D01*
X202908002Y-78829480D01*
X208056000Y-78829480D01*
X208056000Y-79238521D01*
X208072062Y-79401598D01*
X208135532Y-79610834D01*
X208238604Y-79803666D01*
X208377315Y-79972686D01*
X208546335Y-80111396D01*
X208739167Y-80214468D01*
X208948403Y-80277938D01*
X209166000Y-80299370D01*
X209383598Y-80277938D01*
X209592834Y-80214468D01*
X209785666Y-80111396D01*
X209954686Y-79972686D01*
X210093396Y-79803666D01*
X210196468Y-79610833D01*
X210259938Y-79401597D01*
X210276000Y-79238520D01*
X210276000Y-78829479D01*
X210259938Y-78666402D01*
X210196468Y-78457166D01*
X210093396Y-78264334D01*
X209954686Y-78095314D01*
X209785666Y-77956604D01*
X209592833Y-77853532D01*
X209383597Y-77790062D01*
X209166000Y-77768630D01*
X208948402Y-77790062D01*
X208739166Y-77853532D01*
X208546334Y-77956604D01*
X208377314Y-78095314D01*
X208238604Y-78264334D01*
X208135532Y-78457167D01*
X208072062Y-78666403D01*
X208056000Y-78829480D01*
X202908002Y-78829480D01*
X202925226Y-78787898D01*
X202965000Y-78587939D01*
X202965000Y-78384061D01*
X202925226Y-78184102D01*
X202847205Y-77995744D01*
X202733937Y-77826226D01*
X202631711Y-77724000D01*
X202733937Y-77621774D01*
X202847205Y-77452256D01*
X202925226Y-77263898D01*
X202965000Y-77063939D01*
X202965000Y-76860061D01*
X202925226Y-76660102D01*
X202847205Y-76471744D01*
X202764122Y-76347401D01*
X205471660Y-76347401D01*
X205471660Y-76551279D01*
X205511434Y-76751238D01*
X205589455Y-76939596D01*
X205702723Y-77109114D01*
X205846886Y-77253277D01*
X206016404Y-77366545D01*
X206204762Y-77444566D01*
X206404721Y-77484340D01*
X206608599Y-77484340D01*
X206808558Y-77444566D01*
X206996916Y-77366545D01*
X207166434Y-77253277D01*
X207310597Y-77109114D01*
X207423865Y-76939596D01*
X207501886Y-76751238D01*
X207519867Y-76660843D01*
X207538774Y-76755898D01*
X207616795Y-76944256D01*
X207730063Y-77113774D01*
X207874226Y-77257937D01*
X208043744Y-77371205D01*
X208232102Y-77449226D01*
X208432061Y-77489000D01*
X208635939Y-77489000D01*
X208835898Y-77449226D01*
X209024256Y-77371205D01*
X209193774Y-77257937D01*
X209337937Y-77113774D01*
X209451205Y-76944256D01*
X209529226Y-76755898D01*
X209569000Y-76555939D01*
X209569000Y-76352061D01*
X209529226Y-76152102D01*
X209451205Y-75963744D01*
X209337937Y-75794226D01*
X209193774Y-75650063D01*
X209024256Y-75536795D01*
X208835898Y-75458774D01*
X208635939Y-75419000D01*
X208432061Y-75419000D01*
X208232102Y-75458774D01*
X208043744Y-75536795D01*
X207874226Y-75650063D01*
X207730063Y-75794226D01*
X207616795Y-75963744D01*
X207538774Y-76152102D01*
X207520793Y-76242497D01*
X207501886Y-76147442D01*
X207423865Y-75959084D01*
X207310597Y-75789566D01*
X207166434Y-75645403D01*
X206996916Y-75532135D01*
X206808558Y-75454114D01*
X206608599Y-75414340D01*
X206404721Y-75414340D01*
X206204762Y-75454114D01*
X206016404Y-75532135D01*
X205846886Y-75645403D01*
X205702723Y-75789566D01*
X205589455Y-75959084D01*
X205511434Y-76147442D01*
X205471660Y-76347401D01*
X202764122Y-76347401D01*
X202733937Y-76302226D01*
X202589774Y-76158063D01*
X202420256Y-76044795D01*
X202231898Y-75966774D01*
X202031939Y-75927000D01*
X201828061Y-75927000D01*
X201628102Y-75966774D01*
X201439744Y-76044795D01*
X201270226Y-76158063D01*
X201126063Y-76302226D01*
X201012795Y-76471744D01*
X200934774Y-76660102D01*
X200895000Y-76860061D01*
X200895000Y-77063939D01*
X200934774Y-77263898D01*
X201012795Y-77452256D01*
X201126063Y-77621774D01*
X201228289Y-77724000D01*
X201126063Y-77826226D01*
X201012795Y-77995744D01*
X200934774Y-78184102D01*
X200895000Y-78384061D01*
X200895000Y-78587939D01*
X200934774Y-78787898D01*
X201012795Y-78976256D01*
X201126063Y-79145774D01*
X201170203Y-79189914D01*
X201083880Y-79276237D01*
X200970612Y-79445755D01*
X200892591Y-79634113D01*
X200852817Y-79834072D01*
X196296676Y-79834072D01*
X196387990Y-79697411D01*
X196499932Y-79427158D01*
X196557000Y-79140260D01*
X196557000Y-78847740D01*
X196499932Y-78560842D01*
X196387990Y-78290589D01*
X196225475Y-78047368D01*
X196018632Y-77840525D01*
X195775411Y-77678010D01*
X195505158Y-77566068D01*
X195218260Y-77509000D01*
X194925740Y-77509000D01*
X194638842Y-77566068D01*
X194368589Y-77678010D01*
X194125368Y-77840525D01*
X193918525Y-78047368D01*
X193802000Y-78221760D01*
X193685475Y-78047368D01*
X193478632Y-77840525D01*
X193235411Y-77678010D01*
X192965158Y-77566068D01*
X192678260Y-77509000D01*
X192385740Y-77509000D01*
X192098842Y-77566068D01*
X191828589Y-77678010D01*
X191585368Y-77840525D01*
X191378525Y-78047368D01*
X191216010Y-78290589D01*
X191104068Y-78560842D01*
X191047000Y-78847740D01*
X187523359Y-78847740D01*
X187607205Y-78722256D01*
X187685226Y-78533898D01*
X187725000Y-78333939D01*
X187725000Y-78130061D01*
X187685226Y-77930102D01*
X187607205Y-77741744D01*
X187493937Y-77572226D01*
X187349774Y-77428063D01*
X187180256Y-77314795D01*
X186991898Y-77236774D01*
X186791939Y-77197000D01*
X186588061Y-77197000D01*
X186388102Y-77236774D01*
X186199744Y-77314795D01*
X186030226Y-77428063D01*
X185886063Y-77572226D01*
X185772795Y-77741744D01*
X185694774Y-77930102D01*
X185655000Y-78130061D01*
X183195975Y-78130061D01*
X183116256Y-78076795D01*
X182927898Y-77998774D01*
X182727939Y-77959000D01*
X182524061Y-77959000D01*
X182324102Y-77998774D01*
X182135744Y-78076795D01*
X181966226Y-78190063D01*
X181822063Y-78334226D01*
X181708795Y-78503744D01*
X181630774Y-78692102D01*
X181591000Y-78892061D01*
X151511000Y-78892061D01*
X151511000Y-76860061D01*
X155175000Y-76860061D01*
X155175000Y-77063939D01*
X155214774Y-77263898D01*
X155292795Y-77452256D01*
X155406063Y-77621774D01*
X155550226Y-77765937D01*
X155719744Y-77879205D01*
X155908102Y-77957226D01*
X156108061Y-77997000D01*
X156311939Y-77997000D01*
X156511898Y-77957226D01*
X156700256Y-77879205D01*
X156869774Y-77765937D01*
X157013937Y-77621774D01*
X157127205Y-77452256D01*
X157205226Y-77263898D01*
X157245000Y-77063939D01*
X157245000Y-76860061D01*
X157205226Y-76660102D01*
X157127205Y-76471744D01*
X157013937Y-76302226D01*
X156869774Y-76158063D01*
X156700256Y-76044795D01*
X156511898Y-75966774D01*
X156311939Y-75927000D01*
X156108061Y-75927000D01*
X155908102Y-75966774D01*
X155719744Y-76044795D01*
X155550226Y-76158063D01*
X155406063Y-76302226D01*
X155292795Y-76471744D01*
X155214774Y-76660102D01*
X155175000Y-76860061D01*
X151511000Y-76860061D01*
X151511000Y-74828061D01*
X175241000Y-74828061D01*
X175241000Y-75031939D01*
X175280774Y-75231898D01*
X175358795Y-75420256D01*
X175472063Y-75589774D01*
X175616226Y-75733937D01*
X175785744Y-75847205D01*
X175974102Y-75925226D01*
X176174061Y-75965000D01*
X176377939Y-75965000D01*
X176577898Y-75925226D01*
X176766256Y-75847205D01*
X176935774Y-75733937D01*
X177079937Y-75589774D01*
X177193205Y-75420256D01*
X177271226Y-75231898D01*
X177301032Y-75082049D01*
X179813000Y-75082049D01*
X179813000Y-75285927D01*
X179852774Y-75485886D01*
X179930795Y-75674244D01*
X180044063Y-75843762D01*
X180188226Y-75987925D01*
X180315538Y-76072992D01*
X180188226Y-76158059D01*
X180044063Y-76302222D01*
X179930795Y-76471740D01*
X179852774Y-76660098D01*
X179813000Y-76860057D01*
X179813000Y-77063935D01*
X179852774Y-77263894D01*
X179930795Y-77452252D01*
X180044063Y-77621770D01*
X180188226Y-77765933D01*
X180357744Y-77879201D01*
X180546102Y-77957222D01*
X180746061Y-77996996D01*
X180949939Y-77996996D01*
X181149898Y-77957222D01*
X181338256Y-77879201D01*
X181507774Y-77765933D01*
X181651937Y-77621770D01*
X181765205Y-77452252D01*
X181843226Y-77263894D01*
X181883000Y-77063935D01*
X181883000Y-76860057D01*
X181843226Y-76660098D01*
X181765205Y-76471740D01*
X181685239Y-76352061D01*
X191751000Y-76352061D01*
X191751000Y-76555939D01*
X191790774Y-76755898D01*
X191868795Y-76944256D01*
X191982063Y-77113774D01*
X192126226Y-77257937D01*
X192295744Y-77371205D01*
X192484102Y-77449226D01*
X192684061Y-77489000D01*
X192887939Y-77489000D01*
X193087898Y-77449226D01*
X193276256Y-77371205D01*
X193445774Y-77257937D01*
X193589937Y-77113774D01*
X193703205Y-76944256D01*
X193781226Y-76755898D01*
X193821000Y-76555939D01*
X193821000Y-76352061D01*
X193781226Y-76152102D01*
X193703205Y-75963744D01*
X193589937Y-75794226D01*
X193445774Y-75650063D01*
X193276256Y-75536795D01*
X193087898Y-75458774D01*
X192887939Y-75419000D01*
X192684061Y-75419000D01*
X192484102Y-75458774D01*
X192295744Y-75536795D01*
X192126226Y-75650063D01*
X191982063Y-75794226D01*
X191868795Y-75963744D01*
X191790774Y-76152102D01*
X191751000Y-76352061D01*
X181685239Y-76352061D01*
X181651937Y-76302222D01*
X181507774Y-76158059D01*
X181380462Y-76072992D01*
X181507774Y-75987925D01*
X181651937Y-75843762D01*
X181765205Y-75674244D01*
X181843226Y-75485886D01*
X181883000Y-75285927D01*
X181883000Y-75082049D01*
X181843226Y-74882090D01*
X181820847Y-74828061D01*
X184893000Y-74828061D01*
X184893000Y-75031939D01*
X184932774Y-75231898D01*
X185010795Y-75420256D01*
X185124063Y-75589774D01*
X185268226Y-75733937D01*
X185437744Y-75847205D01*
X185626102Y-75925226D01*
X185826061Y-75965000D01*
X186029939Y-75965000D01*
X186229898Y-75925226D01*
X186418256Y-75847205D01*
X186587774Y-75733937D01*
X186731937Y-75589774D01*
X186845205Y-75420256D01*
X186923226Y-75231898D01*
X186963000Y-75031939D01*
X186963000Y-74828061D01*
X186923226Y-74628102D01*
X186845205Y-74439744D01*
X186731937Y-74270226D01*
X186587774Y-74126063D01*
X186418256Y-74012795D01*
X186240248Y-73939061D01*
X199488680Y-73939061D01*
X199488680Y-74142939D01*
X199528454Y-74342898D01*
X199606475Y-74531256D01*
X199719743Y-74700774D01*
X199863906Y-74844937D01*
X200033424Y-74958205D01*
X200221782Y-75036226D01*
X200421741Y-75076000D01*
X200625619Y-75076000D01*
X200825578Y-75036226D01*
X201013936Y-74958205D01*
X201183454Y-74844937D01*
X201327617Y-74700774D01*
X201440885Y-74531256D01*
X201518906Y-74342898D01*
X201558680Y-74142939D01*
X201558680Y-73939061D01*
X201518906Y-73739102D01*
X201440885Y-73550744D01*
X201327617Y-73381226D01*
X201183454Y-73237063D01*
X201013936Y-73123795D01*
X200825578Y-73045774D01*
X200625619Y-73006000D01*
X200421741Y-73006000D01*
X200221782Y-73045774D01*
X200033424Y-73123795D01*
X199863906Y-73237063D01*
X199719743Y-73381226D01*
X199606475Y-73550744D01*
X199528454Y-73739102D01*
X199488680Y-73939061D01*
X186240248Y-73939061D01*
X186229898Y-73934774D01*
X186029939Y-73895000D01*
X185826061Y-73895000D01*
X185626102Y-73934774D01*
X185437744Y-74012795D01*
X185268226Y-74126063D01*
X185124063Y-74270226D01*
X185010795Y-74439744D01*
X184932774Y-74628102D01*
X184893000Y-74828061D01*
X181820847Y-74828061D01*
X181765205Y-74693732D01*
X181651937Y-74524214D01*
X181507774Y-74380051D01*
X181338256Y-74266783D01*
X181149898Y-74188762D01*
X180949939Y-74148988D01*
X180746061Y-74148988D01*
X180546102Y-74188762D01*
X180357744Y-74266783D01*
X180188226Y-74380051D01*
X180044063Y-74524214D01*
X179930795Y-74693732D01*
X179852774Y-74882090D01*
X179813000Y-75082049D01*
X177301032Y-75082049D01*
X177311000Y-75031939D01*
X177311000Y-74828061D01*
X177271226Y-74628102D01*
X177193205Y-74439744D01*
X177079937Y-74270226D01*
X176935774Y-74126063D01*
X176766256Y-74012795D01*
X176577898Y-73934774D01*
X176377939Y-73895000D01*
X176174061Y-73895000D01*
X175974102Y-73934774D01*
X175785744Y-74012795D01*
X175616226Y-74126063D01*
X175472063Y-74270226D01*
X175358795Y-74439744D01*
X175280774Y-74628102D01*
X175241000Y-74828061D01*
X151511000Y-74828061D01*
X151511000Y-72796061D01*
X179051000Y-72796061D01*
X179051000Y-72999939D01*
X179090774Y-73199898D01*
X179168795Y-73388256D01*
X179282063Y-73557774D01*
X179426226Y-73701937D01*
X179595744Y-73815205D01*
X179784102Y-73893226D01*
X179984061Y-73933000D01*
X180187939Y-73933000D01*
X180387898Y-73893226D01*
X180576256Y-73815205D01*
X180745774Y-73701937D01*
X180889937Y-73557774D01*
X181003205Y-73388256D01*
X181081226Y-73199898D01*
X181121000Y-72999939D01*
X181121000Y-72796061D01*
X189211000Y-72796061D01*
X189211000Y-72999939D01*
X189250774Y-73199898D01*
X189328795Y-73388256D01*
X189442063Y-73557774D01*
X189586226Y-73701937D01*
X189755744Y-73815205D01*
X189944102Y-73893226D01*
X190144061Y-73933000D01*
X190347939Y-73933000D01*
X190547898Y-73893226D01*
X190736256Y-73815205D01*
X190905774Y-73701937D01*
X191049937Y-73557774D01*
X191163205Y-73388256D01*
X191241226Y-73199898D01*
X191281000Y-72999939D01*
X191281000Y-72796061D01*
X204166988Y-72796061D01*
X204166988Y-72999939D01*
X204206762Y-73199898D01*
X204284783Y-73388256D01*
X204398051Y-73557774D01*
X204542214Y-73701937D01*
X204711732Y-73815205D01*
X204900090Y-73893226D01*
X205100049Y-73933000D01*
X205303927Y-73933000D01*
X205503886Y-73893226D01*
X205692244Y-73815205D01*
X205861762Y-73701937D01*
X206005925Y-73557774D01*
X206119193Y-73388256D01*
X206197214Y-73199898D01*
X206236988Y-72999939D01*
X206236988Y-72796061D01*
X206197214Y-72596102D01*
X206119193Y-72407744D01*
X206005925Y-72238226D01*
X205861762Y-72094063D01*
X205729314Y-72005564D01*
X209305497Y-72005564D01*
X209305497Y-72209442D01*
X209345271Y-72409401D01*
X209423292Y-72597759D01*
X209536560Y-72767277D01*
X209680723Y-72911440D01*
X209850241Y-73024708D01*
X210038599Y-73102729D01*
X210238558Y-73142503D01*
X210442436Y-73142503D01*
X210642395Y-73102729D01*
X210830753Y-73024708D01*
X211000271Y-72911440D01*
X211144434Y-72767277D01*
X211257702Y-72597759D01*
X211335723Y-72409401D01*
X211375497Y-72209442D01*
X211375497Y-72005564D01*
X211335723Y-71805605D01*
X211257702Y-71617247D01*
X211144434Y-71447729D01*
X211000271Y-71303566D01*
X210830753Y-71190298D01*
X210642395Y-71112277D01*
X210442436Y-71072503D01*
X210238558Y-71072503D01*
X210038599Y-71112277D01*
X209850241Y-71190298D01*
X209680723Y-71303566D01*
X209536560Y-71447729D01*
X209423292Y-71617247D01*
X209345271Y-71805605D01*
X209305497Y-72005564D01*
X205729314Y-72005564D01*
X205692244Y-71980795D01*
X205503886Y-71902774D01*
X205303927Y-71863000D01*
X205100049Y-71863000D01*
X204900090Y-71902774D01*
X204711732Y-71980795D01*
X204542214Y-72094063D01*
X204398051Y-72238226D01*
X204284783Y-72407744D01*
X204206762Y-72596102D01*
X204166988Y-72796061D01*
X191281000Y-72796061D01*
X191241226Y-72596102D01*
X191163205Y-72407744D01*
X191049937Y-72238226D01*
X190905774Y-72094063D01*
X190736256Y-71980795D01*
X190547898Y-71902774D01*
X190347939Y-71863000D01*
X190144061Y-71863000D01*
X189944102Y-71902774D01*
X189755744Y-71980795D01*
X189586226Y-72094063D01*
X189442063Y-72238226D01*
X189328795Y-72407744D01*
X189250774Y-72596102D01*
X189211000Y-72796061D01*
X181121000Y-72796061D01*
X181081226Y-72596102D01*
X181003205Y-72407744D01*
X180889937Y-72238226D01*
X180745774Y-72094063D01*
X180576256Y-71980795D01*
X180387898Y-71902774D01*
X180187939Y-71863000D01*
X179984061Y-71863000D01*
X179784102Y-71902774D01*
X179595744Y-71980795D01*
X179426226Y-72094063D01*
X179282063Y-72238226D01*
X179168795Y-72407744D01*
X179090774Y-72596102D01*
X179051000Y-72796061D01*
X151511000Y-72796061D01*
X151511000Y-70993000D01*
X211709000Y-70993000D01*
X211709000Y-76954000D01*
G04 #@! TA.AperFunction,Conductor*
D18*
G36*
X211709000Y-76954000D02*
G01*
X211482949Y-76954000D01*
X211324283Y-76969627D01*
X211120702Y-77031383D01*
X210933081Y-77131668D01*
X210768630Y-77266630D01*
X210633668Y-77431081D01*
X210533383Y-77618702D01*
X210471627Y-77822283D01*
X210450775Y-78034000D01*
X210471627Y-78245717D01*
X210533383Y-78449298D01*
X210633668Y-78636919D01*
X210768630Y-78801370D01*
X210933081Y-78936332D01*
X211120702Y-79036617D01*
X211324283Y-79098373D01*
X211482949Y-79114000D01*
X211709000Y-79114000D01*
X211709000Y-83954000D01*
X211482949Y-83954000D01*
X211324283Y-83969627D01*
X211120702Y-84031383D01*
X210933081Y-84131668D01*
X210768630Y-84266630D01*
X210633668Y-84431081D01*
X210533383Y-84618702D01*
X210471627Y-84822283D01*
X210450775Y-85034000D01*
X210471627Y-85245717D01*
X210533383Y-85449298D01*
X210633668Y-85636919D01*
X210768630Y-85801370D01*
X210933081Y-85936332D01*
X211120702Y-86036617D01*
X211324283Y-86098373D01*
X211482949Y-86114000D01*
X211709000Y-86114000D01*
X211709000Y-89789000D01*
X203766490Y-89789000D01*
X203863205Y-89644256D01*
X203941226Y-89455898D01*
X203981000Y-89255939D01*
X203981000Y-89052061D01*
X203941226Y-88852102D01*
X203863205Y-88663744D01*
X203749937Y-88494226D01*
X203605774Y-88350063D01*
X203436256Y-88236795D01*
X203247898Y-88158774D01*
X203047939Y-88119000D01*
X202844061Y-88119000D01*
X202644102Y-88158774D01*
X202455744Y-88236795D01*
X202286226Y-88350063D01*
X202142063Y-88494226D01*
X202028795Y-88663744D01*
X201950774Y-88852102D01*
X201911000Y-89052061D01*
X201911000Y-89255939D01*
X201950774Y-89455898D01*
X202028795Y-89644256D01*
X202125510Y-89789000D01*
X197128468Y-89789000D01*
X197255774Y-89703937D01*
X197399937Y-89559774D01*
X197513205Y-89390256D01*
X197591226Y-89201898D01*
X197631000Y-89001939D01*
X197631000Y-88798061D01*
X197591226Y-88598102D01*
X197513205Y-88409744D01*
X197399937Y-88240226D01*
X197265286Y-88105575D01*
X197337226Y-87931898D01*
X197377000Y-87731939D01*
X197377000Y-87528061D01*
X197337226Y-87328102D01*
X197259205Y-87139744D01*
X197145937Y-86970226D01*
X197001774Y-86826063D01*
X196832256Y-86712795D01*
X196643898Y-86634774D01*
X196443939Y-86595000D01*
X196240061Y-86595000D01*
X196040102Y-86634774D01*
X195851744Y-86712795D01*
X195682226Y-86826063D01*
X195538063Y-86970226D01*
X195424795Y-87139744D01*
X195346774Y-87328102D01*
X195307000Y-87528061D01*
X195307000Y-87731939D01*
X195346774Y-87931898D01*
X195424795Y-88120256D01*
X195538063Y-88289774D01*
X195672714Y-88424425D01*
X195600774Y-88598102D01*
X195561000Y-88798061D01*
X195561000Y-89001939D01*
X195600774Y-89201898D01*
X195678795Y-89390256D01*
X195792063Y-89559774D01*
X195936226Y-89703937D01*
X196063532Y-89789000D01*
X151511000Y-89789000D01*
X151511000Y-88036061D01*
X178543000Y-88036061D01*
X178543000Y-88239939D01*
X178582774Y-88439898D01*
X178660795Y-88628256D01*
X178774063Y-88797774D01*
X178918226Y-88941937D01*
X179087744Y-89055205D01*
X179276102Y-89133226D01*
X179476061Y-89173000D01*
X179679939Y-89173000D01*
X179879898Y-89133226D01*
X180068256Y-89055205D01*
X180147488Y-89002264D01*
X180202525Y-89084632D01*
X180409368Y-89291475D01*
X180652589Y-89453990D01*
X180922842Y-89565932D01*
X181209740Y-89623000D01*
X181502260Y-89623000D01*
X181789158Y-89565932D01*
X182059411Y-89453990D01*
X182302632Y-89291475D01*
X182509475Y-89084632D01*
X182626000Y-88910240D01*
X182742525Y-89084632D01*
X182949368Y-89291475D01*
X183192589Y-89453990D01*
X183462842Y-89565932D01*
X183749740Y-89623000D01*
X184042260Y-89623000D01*
X184329158Y-89565932D01*
X184599411Y-89453990D01*
X184842632Y-89291475D01*
X185049475Y-89084632D01*
X185166000Y-88910240D01*
X185282525Y-89084632D01*
X185489368Y-89291475D01*
X185732589Y-89453990D01*
X186002842Y-89565932D01*
X186289740Y-89623000D01*
X186582260Y-89623000D01*
X186869158Y-89565932D01*
X187139411Y-89453990D01*
X187382632Y-89291475D01*
X187514487Y-89159620D01*
X187536498Y-89232180D01*
X187595463Y-89342494D01*
X187674815Y-89439185D01*
X187771506Y-89518537D01*
X187881820Y-89577502D01*
X188001518Y-89613812D01*
X188126000Y-89626072D01*
X189826000Y-89626072D01*
X189950482Y-89613812D01*
X190070180Y-89577502D01*
X190180494Y-89518537D01*
X190277185Y-89439185D01*
X190356537Y-89342494D01*
X190415502Y-89232180D01*
X190451812Y-89112482D01*
X190464072Y-88988000D01*
X190464072Y-87288000D01*
X190451812Y-87163518D01*
X190415502Y-87043820D01*
X190356537Y-86933506D01*
X190277185Y-86836815D01*
X190180494Y-86757463D01*
X190070180Y-86698498D01*
X189950482Y-86662188D01*
X189826000Y-86649928D01*
X188126000Y-86649928D01*
X188001518Y-86662188D01*
X187881820Y-86698498D01*
X187771506Y-86757463D01*
X187674815Y-86836815D01*
X187595463Y-86933506D01*
X187536498Y-87043820D01*
X187514487Y-87116380D01*
X187382632Y-86984525D01*
X187139411Y-86822010D01*
X186869158Y-86710068D01*
X186582260Y-86653000D01*
X186289740Y-86653000D01*
X186002842Y-86710068D01*
X185732589Y-86822010D01*
X185489368Y-86984525D01*
X185282525Y-87191368D01*
X185166000Y-87365760D01*
X185049475Y-87191368D01*
X184842632Y-86984525D01*
X184599411Y-86822010D01*
X184329158Y-86710068D01*
X184042260Y-86653000D01*
X183749740Y-86653000D01*
X183462842Y-86710068D01*
X183192589Y-86822010D01*
X182949368Y-86984525D01*
X182742525Y-87191368D01*
X182626000Y-87365760D01*
X182509475Y-87191368D01*
X182302632Y-86984525D01*
X182059411Y-86822010D01*
X181789158Y-86710068D01*
X181502260Y-86653000D01*
X181209740Y-86653000D01*
X180922842Y-86710068D01*
X180652589Y-86822010D01*
X180409368Y-86984525D01*
X180202525Y-87191368D01*
X180147488Y-87273736D01*
X180068256Y-87220795D01*
X179879898Y-87142774D01*
X179679939Y-87103000D01*
X179476061Y-87103000D01*
X179276102Y-87142774D01*
X179087744Y-87220795D01*
X178918226Y-87334063D01*
X178774063Y-87478226D01*
X178660795Y-87647744D01*
X178582774Y-87836102D01*
X178543000Y-88036061D01*
X151511000Y-88036061D01*
X151511000Y-86740565D01*
X168154496Y-86740565D01*
X168154496Y-86944443D01*
X168194270Y-87144402D01*
X168272291Y-87332760D01*
X168385559Y-87502278D01*
X168529722Y-87646441D01*
X168699240Y-87759709D01*
X168887598Y-87837730D01*
X169087557Y-87877504D01*
X169291435Y-87877504D01*
X169491394Y-87837730D01*
X169679752Y-87759709D01*
X169849270Y-87646441D01*
X169993433Y-87502278D01*
X170106701Y-87332760D01*
X170184722Y-87144402D01*
X170224496Y-86944443D01*
X170224496Y-86740565D01*
X170184722Y-86540606D01*
X170106701Y-86352248D01*
X169993433Y-86182730D01*
X169849270Y-86038567D01*
X169679752Y-85925299D01*
X169491394Y-85847278D01*
X169291435Y-85807504D01*
X169087557Y-85807504D01*
X168887598Y-85847278D01*
X168699240Y-85925299D01*
X168529722Y-86038567D01*
X168385559Y-86182730D01*
X168272291Y-86352248D01*
X168194270Y-86540606D01*
X168154496Y-86740565D01*
X151511000Y-86740565D01*
X151511000Y-85242061D01*
X187941012Y-85242061D01*
X187941012Y-85445939D01*
X187980786Y-85645898D01*
X188058807Y-85834256D01*
X188172075Y-86003774D01*
X188316238Y-86147937D01*
X188485756Y-86261205D01*
X188674114Y-86339226D01*
X188874073Y-86379000D01*
X189077951Y-86379000D01*
X189277910Y-86339226D01*
X189466268Y-86261205D01*
X189635786Y-86147937D01*
X189779949Y-86003774D01*
X189893217Y-85834256D01*
X189971238Y-85645898D01*
X190011012Y-85445939D01*
X190011012Y-85242061D01*
X189971238Y-85042102D01*
X189893217Y-84853744D01*
X189779949Y-84684226D01*
X189635786Y-84540063D01*
X189472397Y-84430890D01*
X191090524Y-84430890D01*
X191135175Y-84578099D01*
X191260359Y-84840920D01*
X191434412Y-85074269D01*
X191650645Y-85269178D01*
X191900748Y-85418157D01*
X192175109Y-85515481D01*
X192405000Y-85394814D01*
X192405000Y-84201000D01*
X191211845Y-84201000D01*
X191090524Y-84430890D01*
X189472397Y-84430890D01*
X189466268Y-84426795D01*
X189277910Y-84348774D01*
X189077951Y-84309000D01*
X188874073Y-84309000D01*
X188674114Y-84348774D01*
X188485756Y-84426795D01*
X188316238Y-84540063D01*
X188172075Y-84684226D01*
X188058807Y-84853744D01*
X187980786Y-85042102D01*
X187941012Y-85242061D01*
X151511000Y-85242061D01*
X151511000Y-83464061D01*
X185655000Y-83464061D01*
X185655000Y-83667939D01*
X185694774Y-83867898D01*
X185772795Y-84056256D01*
X185886063Y-84225774D01*
X186030226Y-84369937D01*
X186199744Y-84483205D01*
X186388102Y-84561226D01*
X186588061Y-84601000D01*
X186791939Y-84601000D01*
X186991898Y-84561226D01*
X187180256Y-84483205D01*
X187349774Y-84369937D01*
X187493937Y-84225774D01*
X187607205Y-84056256D01*
X187685226Y-83867898D01*
X187725000Y-83667939D01*
X187725000Y-83464061D01*
X187685226Y-83264102D01*
X187607205Y-83075744D01*
X187493937Y-82906226D01*
X187349774Y-82762063D01*
X187180256Y-82648795D01*
X186991898Y-82570774D01*
X186791939Y-82531000D01*
X186588061Y-82531000D01*
X186388102Y-82570774D01*
X186199744Y-82648795D01*
X186030226Y-82762063D01*
X185886063Y-82906226D01*
X185772795Y-83075744D01*
X185694774Y-83264102D01*
X185655000Y-83464061D01*
X151511000Y-83464061D01*
X151511000Y-81432061D01*
X161271000Y-81432061D01*
X161271000Y-81635939D01*
X161310774Y-81835898D01*
X161388795Y-82024256D01*
X161502063Y-82193774D01*
X161646226Y-82337937D01*
X161815744Y-82451205D01*
X162004102Y-82529226D01*
X162204061Y-82569000D01*
X162407939Y-82569000D01*
X162607898Y-82529226D01*
X162796256Y-82451205D01*
X162965774Y-82337937D01*
X163109937Y-82193774D01*
X163223205Y-82024256D01*
X163301226Y-81835898D01*
X163341000Y-81635939D01*
X163341000Y-81432061D01*
X163301226Y-81232102D01*
X163263934Y-81142071D01*
X168077132Y-81142071D01*
X168077132Y-81345949D01*
X168116906Y-81545908D01*
X168194927Y-81734266D01*
X168308195Y-81903784D01*
X168452358Y-82047947D01*
X168621876Y-82161215D01*
X168810234Y-82239236D01*
X169010193Y-82279010D01*
X169214071Y-82279010D01*
X169414030Y-82239236D01*
X169602388Y-82161215D01*
X169771906Y-82047947D01*
X169916069Y-81903784D01*
X170029337Y-81734266D01*
X170107358Y-81545908D01*
X170147132Y-81345949D01*
X170147132Y-81142071D01*
X170107358Y-80942112D01*
X170029337Y-80753754D01*
X169916069Y-80584236D01*
X169771906Y-80440073D01*
X169602388Y-80326805D01*
X169414030Y-80248784D01*
X169214071Y-80209010D01*
X169010193Y-80209010D01*
X168810234Y-80248784D01*
X168621876Y-80326805D01*
X168452358Y-80440073D01*
X168308195Y-80584236D01*
X168194927Y-80753754D01*
X168116906Y-80942112D01*
X168077132Y-81142071D01*
X163263934Y-81142071D01*
X163223205Y-81043744D01*
X163109937Y-80874226D01*
X162965774Y-80730063D01*
X162796256Y-80616795D01*
X162607898Y-80538774D01*
X162407939Y-80499000D01*
X162204061Y-80499000D01*
X162004102Y-80538774D01*
X161815744Y-80616795D01*
X161646226Y-80730063D01*
X161502063Y-80874226D01*
X161388795Y-81043744D01*
X161310774Y-81232102D01*
X161271000Y-81432061D01*
X151511000Y-81432061D01*
X151511000Y-78892061D01*
X181591000Y-78892061D01*
X181591000Y-79095939D01*
X181630774Y-79295898D01*
X181708795Y-79484256D01*
X181822063Y-79653774D01*
X181966226Y-79797937D01*
X182135744Y-79911205D01*
X182324102Y-79989226D01*
X182524061Y-80029000D01*
X182727939Y-80029000D01*
X182927898Y-79989226D01*
X183116256Y-79911205D01*
X183285774Y-79797937D01*
X183429937Y-79653774D01*
X183543205Y-79484256D01*
X183621226Y-79295898D01*
X183661000Y-79095939D01*
X183661000Y-78892061D01*
X183621226Y-78692102D01*
X183543205Y-78503744D01*
X183429937Y-78334226D01*
X183285774Y-78190063D01*
X183195975Y-78130061D01*
X185655000Y-78130061D01*
X185655000Y-78333939D01*
X185694774Y-78533898D01*
X185772795Y-78722256D01*
X185869510Y-78867000D01*
X185772795Y-79011744D01*
X185694774Y-79200102D01*
X185655000Y-79400061D01*
X185655000Y-79603939D01*
X185694774Y-79803898D01*
X185772795Y-79992256D01*
X185886063Y-80161774D01*
X186030226Y-80305937D01*
X186199744Y-80419205D01*
X186388102Y-80497226D01*
X186588061Y-80537000D01*
X186791939Y-80537000D01*
X186991898Y-80497226D01*
X187180256Y-80419205D01*
X187349774Y-80305937D01*
X187493937Y-80161774D01*
X187607205Y-79992256D01*
X187685226Y-79803898D01*
X187725000Y-79603939D01*
X187725000Y-79400061D01*
X187685226Y-79200102D01*
X187607205Y-79011744D01*
X187510490Y-78867000D01*
X187523359Y-78847740D01*
X191047000Y-78847740D01*
X191047000Y-79140260D01*
X191104068Y-79427158D01*
X191216010Y-79697411D01*
X191378525Y-79940632D01*
X191585368Y-80147475D01*
X191759760Y-80264000D01*
X191585368Y-80380525D01*
X191378525Y-80587368D01*
X191216010Y-80830589D01*
X191104068Y-81100842D01*
X191047000Y-81387740D01*
X191047000Y-81680260D01*
X191104068Y-81967158D01*
X191216010Y-82237411D01*
X191378525Y-82480632D01*
X191585368Y-82687475D01*
X191767534Y-82809195D01*
X191650645Y-82878822D01*
X191434412Y-83073731D01*
X191260359Y-83307080D01*
X191135175Y-83569901D01*
X191090524Y-83717110D01*
X191211845Y-83947000D01*
X192405000Y-83947000D01*
X192405000Y-83927000D01*
X192659000Y-83927000D01*
X192659000Y-83947000D01*
X192679000Y-83947000D01*
X192679000Y-84201000D01*
X192659000Y-84201000D01*
X192659000Y-85394814D01*
X192888891Y-85515481D01*
X193163252Y-85418157D01*
X193413355Y-85269178D01*
X193609502Y-85092374D01*
X193632498Y-85168180D01*
X193691463Y-85278494D01*
X193770815Y-85375185D01*
X193867506Y-85454537D01*
X193977820Y-85513502D01*
X194097518Y-85549812D01*
X194222000Y-85562072D01*
X195922000Y-85562072D01*
X196046482Y-85549812D01*
X196166180Y-85513502D01*
X196276494Y-85454537D01*
X196373185Y-85375185D01*
X196452537Y-85278494D01*
X196511502Y-85168180D01*
X196547812Y-85048482D01*
X196560072Y-84924000D01*
X196560072Y-83224000D01*
X196547812Y-83099518D01*
X196511502Y-82979820D01*
X196452537Y-82869506D01*
X196373185Y-82772815D01*
X196276494Y-82693463D01*
X196166180Y-82634498D01*
X196093620Y-82612487D01*
X196225475Y-82480632D01*
X196387990Y-82237411D01*
X196499932Y-81967158D01*
X196557000Y-81680260D01*
X196557000Y-81387740D01*
X196499932Y-81100842D01*
X196387990Y-80830589D01*
X196225475Y-80587368D01*
X196018632Y-80380525D01*
X195844240Y-80264000D01*
X196018632Y-80147475D01*
X196225475Y-79940632D01*
X196296676Y-79834072D01*
X200852817Y-79834072D01*
X200852817Y-80037950D01*
X200892591Y-80237909D01*
X200970612Y-80426267D01*
X201028278Y-80512571D01*
X201012795Y-80535744D01*
X200934774Y-80724102D01*
X200895000Y-80924061D01*
X200895000Y-81127939D01*
X200934774Y-81327898D01*
X201012795Y-81516256D01*
X201126063Y-81685774D01*
X201270226Y-81829937D01*
X201439744Y-81943205D01*
X201628102Y-82021226D01*
X201732541Y-82042000D01*
X201628102Y-82062774D01*
X201439744Y-82140795D01*
X201270226Y-82254063D01*
X201126063Y-82398226D01*
X201012795Y-82567744D01*
X200934774Y-82756102D01*
X200895000Y-82956061D01*
X200895000Y-83159939D01*
X200934774Y-83359898D01*
X201012795Y-83548256D01*
X201109510Y-83693000D01*
X201012795Y-83837744D01*
X200934774Y-84026102D01*
X200895000Y-84226061D01*
X200895000Y-84429939D01*
X200934774Y-84629898D01*
X201012795Y-84818256D01*
X201109510Y-84963000D01*
X201012795Y-85107744D01*
X200934774Y-85296102D01*
X200895000Y-85496061D01*
X200895000Y-85699939D01*
X200934774Y-85899898D01*
X201012795Y-86088256D01*
X201126063Y-86257774D01*
X201270226Y-86401937D01*
X201439744Y-86515205D01*
X201628102Y-86593226D01*
X201828061Y-86633000D01*
X202031939Y-86633000D01*
X202231898Y-86593226D01*
X202420256Y-86515205D01*
X202589774Y-86401937D01*
X202733937Y-86257774D01*
X202847205Y-86088256D01*
X202925226Y-85899898D01*
X202965000Y-85699939D01*
X202965000Y-85496061D01*
X202925226Y-85296102D01*
X202847205Y-85107744D01*
X202750490Y-84963000D01*
X202847205Y-84818256D01*
X202925226Y-84629898D01*
X202965000Y-84429939D01*
X202965000Y-84226061D01*
X202925226Y-84026102D01*
X202847205Y-83837744D01*
X202841684Y-83829480D01*
X208056000Y-83829480D01*
X208056000Y-84238521D01*
X208072062Y-84401598D01*
X208135532Y-84610834D01*
X208238604Y-84803666D01*
X208377315Y-84972686D01*
X208546335Y-85111396D01*
X208739167Y-85214468D01*
X208948403Y-85277938D01*
X209166000Y-85299370D01*
X209383598Y-85277938D01*
X209592834Y-85214468D01*
X209785666Y-85111396D01*
X209954686Y-84972686D01*
X210093396Y-84803666D01*
X210196468Y-84610833D01*
X210259938Y-84401597D01*
X210276000Y-84238520D01*
X210276000Y-83829479D01*
X210259938Y-83666402D01*
X210196468Y-83457166D01*
X210093396Y-83264334D01*
X209954686Y-83095314D01*
X209785666Y-82956604D01*
X209592833Y-82853532D01*
X209383597Y-82790062D01*
X209166000Y-82768630D01*
X208948402Y-82790062D01*
X208739166Y-82853532D01*
X208546334Y-82956604D01*
X208377314Y-83095314D01*
X208238604Y-83264334D01*
X208135532Y-83457167D01*
X208072062Y-83666403D01*
X208056000Y-83829480D01*
X202841684Y-83829480D01*
X202750490Y-83693000D01*
X202847205Y-83548256D01*
X202925226Y-83359898D01*
X202965000Y-83159939D01*
X202965000Y-82956061D01*
X202925226Y-82756102D01*
X202847205Y-82567744D01*
X202733937Y-82398226D01*
X202589774Y-82254063D01*
X202420256Y-82140795D01*
X202231898Y-82062774D01*
X202127459Y-82042000D01*
X202231898Y-82021226D01*
X202420256Y-81943205D01*
X202589774Y-81829937D01*
X202733937Y-81685774D01*
X202847205Y-81516256D01*
X202882079Y-81432061D01*
X205213000Y-81432061D01*
X205213000Y-81635939D01*
X205252774Y-81835898D01*
X205330795Y-82024256D01*
X205342651Y-82042000D01*
X205330795Y-82059744D01*
X205252774Y-82248102D01*
X205213000Y-82448061D01*
X205213000Y-82651939D01*
X205252774Y-82851898D01*
X205330795Y-83040256D01*
X205444063Y-83209774D01*
X205588226Y-83353937D01*
X205757744Y-83467205D01*
X205946102Y-83545226D01*
X206146061Y-83585000D01*
X206349939Y-83585000D01*
X206549898Y-83545226D01*
X206738256Y-83467205D01*
X206907774Y-83353937D01*
X207051937Y-83209774D01*
X207165205Y-83040256D01*
X207243226Y-82851898D01*
X207283000Y-82651939D01*
X207283000Y-82448061D01*
X207243226Y-82248102D01*
X207165205Y-82059744D01*
X207153349Y-82042000D01*
X207165205Y-82024256D01*
X207243226Y-81835898D01*
X207283000Y-81635939D01*
X207283000Y-81432061D01*
X207243226Y-81232102D01*
X207165205Y-81043744D01*
X207051937Y-80874226D01*
X206907774Y-80730063D01*
X206738256Y-80616795D01*
X206549898Y-80538774D01*
X206349939Y-80499000D01*
X206146061Y-80499000D01*
X205946102Y-80538774D01*
X205757744Y-80616795D01*
X205588226Y-80730063D01*
X205444063Y-80874226D01*
X205330795Y-81043744D01*
X205252774Y-81232102D01*
X205213000Y-81432061D01*
X202882079Y-81432061D01*
X202925226Y-81327898D01*
X202965000Y-81127939D01*
X202965000Y-80924061D01*
X202925226Y-80724102D01*
X202847205Y-80535744D01*
X202789539Y-80449440D01*
X202805022Y-80426267D01*
X202883043Y-80237909D01*
X202922817Y-80037950D01*
X202922817Y-79834072D01*
X202883043Y-79634113D01*
X202805022Y-79445755D01*
X202691754Y-79276237D01*
X202647614Y-79232097D01*
X202733937Y-79145774D01*
X202847205Y-78976256D01*
X202908002Y-78829480D01*
X208056000Y-78829480D01*
X208056000Y-79238521D01*
X208072062Y-79401598D01*
X208135532Y-79610834D01*
X208238604Y-79803666D01*
X208377315Y-79972686D01*
X208546335Y-80111396D01*
X208739167Y-80214468D01*
X208948403Y-80277938D01*
X209166000Y-80299370D01*
X209383598Y-80277938D01*
X209592834Y-80214468D01*
X209785666Y-80111396D01*
X209954686Y-79972686D01*
X210093396Y-79803666D01*
X210196468Y-79610833D01*
X210259938Y-79401597D01*
X210276000Y-79238520D01*
X210276000Y-78829479D01*
X210259938Y-78666402D01*
X210196468Y-78457166D01*
X210093396Y-78264334D01*
X209954686Y-78095314D01*
X209785666Y-77956604D01*
X209592833Y-77853532D01*
X209383597Y-77790062D01*
X209166000Y-77768630D01*
X208948402Y-77790062D01*
X208739166Y-77853532D01*
X208546334Y-77956604D01*
X208377314Y-78095314D01*
X208238604Y-78264334D01*
X208135532Y-78457167D01*
X208072062Y-78666403D01*
X208056000Y-78829480D01*
X202908002Y-78829480D01*
X202925226Y-78787898D01*
X202965000Y-78587939D01*
X202965000Y-78384061D01*
X202925226Y-78184102D01*
X202847205Y-77995744D01*
X202733937Y-77826226D01*
X202631711Y-77724000D01*
X202733937Y-77621774D01*
X202847205Y-77452256D01*
X202925226Y-77263898D01*
X202965000Y-77063939D01*
X202965000Y-76860061D01*
X202925226Y-76660102D01*
X202847205Y-76471744D01*
X202764122Y-76347401D01*
X205471660Y-76347401D01*
X205471660Y-76551279D01*
X205511434Y-76751238D01*
X205589455Y-76939596D01*
X205702723Y-77109114D01*
X205846886Y-77253277D01*
X206016404Y-77366545D01*
X206204762Y-77444566D01*
X206404721Y-77484340D01*
X206608599Y-77484340D01*
X206808558Y-77444566D01*
X206996916Y-77366545D01*
X207166434Y-77253277D01*
X207310597Y-77109114D01*
X207423865Y-76939596D01*
X207501886Y-76751238D01*
X207519867Y-76660843D01*
X207538774Y-76755898D01*
X207616795Y-76944256D01*
X207730063Y-77113774D01*
X207874226Y-77257937D01*
X208043744Y-77371205D01*
X208232102Y-77449226D01*
X208432061Y-77489000D01*
X208635939Y-77489000D01*
X208835898Y-77449226D01*
X209024256Y-77371205D01*
X209193774Y-77257937D01*
X209337937Y-77113774D01*
X209451205Y-76944256D01*
X209529226Y-76755898D01*
X209569000Y-76555939D01*
X209569000Y-76352061D01*
X209529226Y-76152102D01*
X209451205Y-75963744D01*
X209337937Y-75794226D01*
X209193774Y-75650063D01*
X209024256Y-75536795D01*
X208835898Y-75458774D01*
X208635939Y-75419000D01*
X208432061Y-75419000D01*
X208232102Y-75458774D01*
X208043744Y-75536795D01*
X207874226Y-75650063D01*
X207730063Y-75794226D01*
X207616795Y-75963744D01*
X207538774Y-76152102D01*
X207520793Y-76242497D01*
X207501886Y-76147442D01*
X207423865Y-75959084D01*
X207310597Y-75789566D01*
X207166434Y-75645403D01*
X206996916Y-75532135D01*
X206808558Y-75454114D01*
X206608599Y-75414340D01*
X206404721Y-75414340D01*
X206204762Y-75454114D01*
X206016404Y-75532135D01*
X205846886Y-75645403D01*
X205702723Y-75789566D01*
X205589455Y-75959084D01*
X205511434Y-76147442D01*
X205471660Y-76347401D01*
X202764122Y-76347401D01*
X202733937Y-76302226D01*
X202589774Y-76158063D01*
X202420256Y-76044795D01*
X202231898Y-75966774D01*
X202031939Y-75927000D01*
X201828061Y-75927000D01*
X201628102Y-75966774D01*
X201439744Y-76044795D01*
X201270226Y-76158063D01*
X201126063Y-76302226D01*
X201012795Y-76471744D01*
X200934774Y-76660102D01*
X200895000Y-76860061D01*
X200895000Y-77063939D01*
X200934774Y-77263898D01*
X201012795Y-77452256D01*
X201126063Y-77621774D01*
X201228289Y-77724000D01*
X201126063Y-77826226D01*
X201012795Y-77995744D01*
X200934774Y-78184102D01*
X200895000Y-78384061D01*
X200895000Y-78587939D01*
X200934774Y-78787898D01*
X201012795Y-78976256D01*
X201126063Y-79145774D01*
X201170203Y-79189914D01*
X201083880Y-79276237D01*
X200970612Y-79445755D01*
X200892591Y-79634113D01*
X200852817Y-79834072D01*
X196296676Y-79834072D01*
X196387990Y-79697411D01*
X196499932Y-79427158D01*
X196557000Y-79140260D01*
X196557000Y-78847740D01*
X196499932Y-78560842D01*
X196387990Y-78290589D01*
X196225475Y-78047368D01*
X196018632Y-77840525D01*
X195775411Y-77678010D01*
X195505158Y-77566068D01*
X195218260Y-77509000D01*
X194925740Y-77509000D01*
X194638842Y-77566068D01*
X194368589Y-77678010D01*
X194125368Y-77840525D01*
X193918525Y-78047368D01*
X193802000Y-78221760D01*
X193685475Y-78047368D01*
X193478632Y-77840525D01*
X193235411Y-77678010D01*
X192965158Y-77566068D01*
X192678260Y-77509000D01*
X192385740Y-77509000D01*
X192098842Y-77566068D01*
X191828589Y-77678010D01*
X191585368Y-77840525D01*
X191378525Y-78047368D01*
X191216010Y-78290589D01*
X191104068Y-78560842D01*
X191047000Y-78847740D01*
X187523359Y-78847740D01*
X187607205Y-78722256D01*
X187685226Y-78533898D01*
X187725000Y-78333939D01*
X187725000Y-78130061D01*
X187685226Y-77930102D01*
X187607205Y-77741744D01*
X187493937Y-77572226D01*
X187349774Y-77428063D01*
X187180256Y-77314795D01*
X186991898Y-77236774D01*
X186791939Y-77197000D01*
X186588061Y-77197000D01*
X186388102Y-77236774D01*
X186199744Y-77314795D01*
X186030226Y-77428063D01*
X185886063Y-77572226D01*
X185772795Y-77741744D01*
X185694774Y-77930102D01*
X185655000Y-78130061D01*
X183195975Y-78130061D01*
X183116256Y-78076795D01*
X182927898Y-77998774D01*
X182727939Y-77959000D01*
X182524061Y-77959000D01*
X182324102Y-77998774D01*
X182135744Y-78076795D01*
X181966226Y-78190063D01*
X181822063Y-78334226D01*
X181708795Y-78503744D01*
X181630774Y-78692102D01*
X181591000Y-78892061D01*
X151511000Y-78892061D01*
X151511000Y-76860061D01*
X155175000Y-76860061D01*
X155175000Y-77063939D01*
X155214774Y-77263898D01*
X155292795Y-77452256D01*
X155406063Y-77621774D01*
X155550226Y-77765937D01*
X155719744Y-77879205D01*
X155908102Y-77957226D01*
X156108061Y-77997000D01*
X156311939Y-77997000D01*
X156511898Y-77957226D01*
X156700256Y-77879205D01*
X156869774Y-77765937D01*
X157013937Y-77621774D01*
X157127205Y-77452256D01*
X157205226Y-77263898D01*
X157245000Y-77063939D01*
X157245000Y-76860061D01*
X157205226Y-76660102D01*
X157127205Y-76471744D01*
X157013937Y-76302226D01*
X156869774Y-76158063D01*
X156700256Y-76044795D01*
X156511898Y-75966774D01*
X156311939Y-75927000D01*
X156108061Y-75927000D01*
X155908102Y-75966774D01*
X155719744Y-76044795D01*
X155550226Y-76158063D01*
X155406063Y-76302226D01*
X155292795Y-76471744D01*
X155214774Y-76660102D01*
X155175000Y-76860061D01*
X151511000Y-76860061D01*
X151511000Y-74828061D01*
X175241000Y-74828061D01*
X175241000Y-75031939D01*
X175280774Y-75231898D01*
X175358795Y-75420256D01*
X175472063Y-75589774D01*
X175616226Y-75733937D01*
X175785744Y-75847205D01*
X175974102Y-75925226D01*
X176174061Y-75965000D01*
X176377939Y-75965000D01*
X176577898Y-75925226D01*
X176766256Y-75847205D01*
X176935774Y-75733937D01*
X177079937Y-75589774D01*
X177193205Y-75420256D01*
X177271226Y-75231898D01*
X177301032Y-75082049D01*
X179813000Y-75082049D01*
X179813000Y-75285927D01*
X179852774Y-75485886D01*
X179930795Y-75674244D01*
X180044063Y-75843762D01*
X180188226Y-75987925D01*
X180315538Y-76072992D01*
X180188226Y-76158059D01*
X180044063Y-76302222D01*
X179930795Y-76471740D01*
X179852774Y-76660098D01*
X179813000Y-76860057D01*
X179813000Y-77063935D01*
X179852774Y-77263894D01*
X179930795Y-77452252D01*
X180044063Y-77621770D01*
X180188226Y-77765933D01*
X180357744Y-77879201D01*
X180546102Y-77957222D01*
X180746061Y-77996996D01*
X180949939Y-77996996D01*
X181149898Y-77957222D01*
X181338256Y-77879201D01*
X181507774Y-77765933D01*
X181651937Y-77621770D01*
X181765205Y-77452252D01*
X181843226Y-77263894D01*
X181883000Y-77063935D01*
X181883000Y-76860057D01*
X181843226Y-76660098D01*
X181765205Y-76471740D01*
X181685239Y-76352061D01*
X191751000Y-76352061D01*
X191751000Y-76555939D01*
X191790774Y-76755898D01*
X191868795Y-76944256D01*
X191982063Y-77113774D01*
X192126226Y-77257937D01*
X192295744Y-77371205D01*
X192484102Y-77449226D01*
X192684061Y-77489000D01*
X192887939Y-77489000D01*
X193087898Y-77449226D01*
X193276256Y-77371205D01*
X193445774Y-77257937D01*
X193589937Y-77113774D01*
X193703205Y-76944256D01*
X193781226Y-76755898D01*
X193821000Y-76555939D01*
X193821000Y-76352061D01*
X193781226Y-76152102D01*
X193703205Y-75963744D01*
X193589937Y-75794226D01*
X193445774Y-75650063D01*
X193276256Y-75536795D01*
X193087898Y-75458774D01*
X192887939Y-75419000D01*
X192684061Y-75419000D01*
X192484102Y-75458774D01*
X192295744Y-75536795D01*
X192126226Y-75650063D01*
X191982063Y-75794226D01*
X191868795Y-75963744D01*
X191790774Y-76152102D01*
X191751000Y-76352061D01*
X181685239Y-76352061D01*
X181651937Y-76302222D01*
X181507774Y-76158059D01*
X181380462Y-76072992D01*
X181507774Y-75987925D01*
X181651937Y-75843762D01*
X181765205Y-75674244D01*
X181843226Y-75485886D01*
X181883000Y-75285927D01*
X181883000Y-75082049D01*
X181843226Y-74882090D01*
X181820847Y-74828061D01*
X184893000Y-74828061D01*
X184893000Y-75031939D01*
X184932774Y-75231898D01*
X185010795Y-75420256D01*
X185124063Y-75589774D01*
X185268226Y-75733937D01*
X185437744Y-75847205D01*
X185626102Y-75925226D01*
X185826061Y-75965000D01*
X186029939Y-75965000D01*
X186229898Y-75925226D01*
X186418256Y-75847205D01*
X186587774Y-75733937D01*
X186731937Y-75589774D01*
X186845205Y-75420256D01*
X186923226Y-75231898D01*
X186963000Y-75031939D01*
X186963000Y-74828061D01*
X186923226Y-74628102D01*
X186845205Y-74439744D01*
X186731937Y-74270226D01*
X186587774Y-74126063D01*
X186418256Y-74012795D01*
X186240248Y-73939061D01*
X199488680Y-73939061D01*
X199488680Y-74142939D01*
X199528454Y-74342898D01*
X199606475Y-74531256D01*
X199719743Y-74700774D01*
X199863906Y-74844937D01*
X200033424Y-74958205D01*
X200221782Y-75036226D01*
X200421741Y-75076000D01*
X200625619Y-75076000D01*
X200825578Y-75036226D01*
X201013936Y-74958205D01*
X201183454Y-74844937D01*
X201327617Y-74700774D01*
X201440885Y-74531256D01*
X201518906Y-74342898D01*
X201558680Y-74142939D01*
X201558680Y-73939061D01*
X201518906Y-73739102D01*
X201440885Y-73550744D01*
X201327617Y-73381226D01*
X201183454Y-73237063D01*
X201013936Y-73123795D01*
X200825578Y-73045774D01*
X200625619Y-73006000D01*
X200421741Y-73006000D01*
X200221782Y-73045774D01*
X200033424Y-73123795D01*
X199863906Y-73237063D01*
X199719743Y-73381226D01*
X199606475Y-73550744D01*
X199528454Y-73739102D01*
X199488680Y-73939061D01*
X186240248Y-73939061D01*
X186229898Y-73934774D01*
X186029939Y-73895000D01*
X185826061Y-73895000D01*
X185626102Y-73934774D01*
X185437744Y-74012795D01*
X185268226Y-74126063D01*
X185124063Y-74270226D01*
X185010795Y-74439744D01*
X184932774Y-74628102D01*
X184893000Y-74828061D01*
X181820847Y-74828061D01*
X181765205Y-74693732D01*
X181651937Y-74524214D01*
X181507774Y-74380051D01*
X181338256Y-74266783D01*
X181149898Y-74188762D01*
X180949939Y-74148988D01*
X180746061Y-74148988D01*
X180546102Y-74188762D01*
X180357744Y-74266783D01*
X180188226Y-74380051D01*
X180044063Y-74524214D01*
X179930795Y-74693732D01*
X179852774Y-74882090D01*
X179813000Y-75082049D01*
X177301032Y-75082049D01*
X177311000Y-75031939D01*
X177311000Y-74828061D01*
X177271226Y-74628102D01*
X177193205Y-74439744D01*
X177079937Y-74270226D01*
X176935774Y-74126063D01*
X176766256Y-74012795D01*
X176577898Y-73934774D01*
X176377939Y-73895000D01*
X176174061Y-73895000D01*
X175974102Y-73934774D01*
X175785744Y-74012795D01*
X175616226Y-74126063D01*
X175472063Y-74270226D01*
X175358795Y-74439744D01*
X175280774Y-74628102D01*
X175241000Y-74828061D01*
X151511000Y-74828061D01*
X151511000Y-72796061D01*
X179051000Y-72796061D01*
X179051000Y-72999939D01*
X179090774Y-73199898D01*
X179168795Y-73388256D01*
X179282063Y-73557774D01*
X179426226Y-73701937D01*
X179595744Y-73815205D01*
X179784102Y-73893226D01*
X179984061Y-73933000D01*
X180187939Y-73933000D01*
X180387898Y-73893226D01*
X180576256Y-73815205D01*
X180745774Y-73701937D01*
X180889937Y-73557774D01*
X181003205Y-73388256D01*
X181081226Y-73199898D01*
X181121000Y-72999939D01*
X181121000Y-72796061D01*
X189211000Y-72796061D01*
X189211000Y-72999939D01*
X189250774Y-73199898D01*
X189328795Y-73388256D01*
X189442063Y-73557774D01*
X189586226Y-73701937D01*
X189755744Y-73815205D01*
X189944102Y-73893226D01*
X190144061Y-73933000D01*
X190347939Y-73933000D01*
X190547898Y-73893226D01*
X190736256Y-73815205D01*
X190905774Y-73701937D01*
X191049937Y-73557774D01*
X191163205Y-73388256D01*
X191241226Y-73199898D01*
X191281000Y-72999939D01*
X191281000Y-72796061D01*
X204166988Y-72796061D01*
X204166988Y-72999939D01*
X204206762Y-73199898D01*
X204284783Y-73388256D01*
X204398051Y-73557774D01*
X204542214Y-73701937D01*
X204711732Y-73815205D01*
X204900090Y-73893226D01*
X205100049Y-73933000D01*
X205303927Y-73933000D01*
X205503886Y-73893226D01*
X205692244Y-73815205D01*
X205861762Y-73701937D01*
X206005925Y-73557774D01*
X206119193Y-73388256D01*
X206197214Y-73199898D01*
X206236988Y-72999939D01*
X206236988Y-72796061D01*
X206197214Y-72596102D01*
X206119193Y-72407744D01*
X206005925Y-72238226D01*
X205861762Y-72094063D01*
X205729314Y-72005564D01*
X209305497Y-72005564D01*
X209305497Y-72209442D01*
X209345271Y-72409401D01*
X209423292Y-72597759D01*
X209536560Y-72767277D01*
X209680723Y-72911440D01*
X209850241Y-73024708D01*
X210038599Y-73102729D01*
X210238558Y-73142503D01*
X210442436Y-73142503D01*
X210642395Y-73102729D01*
X210830753Y-73024708D01*
X211000271Y-72911440D01*
X211144434Y-72767277D01*
X211257702Y-72597759D01*
X211335723Y-72409401D01*
X211375497Y-72209442D01*
X211375497Y-72005564D01*
X211335723Y-71805605D01*
X211257702Y-71617247D01*
X211144434Y-71447729D01*
X211000271Y-71303566D01*
X210830753Y-71190298D01*
X210642395Y-71112277D01*
X210442436Y-71072503D01*
X210238558Y-71072503D01*
X210038599Y-71112277D01*
X209850241Y-71190298D01*
X209680723Y-71303566D01*
X209536560Y-71447729D01*
X209423292Y-71617247D01*
X209345271Y-71805605D01*
X209305497Y-72005564D01*
X205729314Y-72005564D01*
X205692244Y-71980795D01*
X205503886Y-71902774D01*
X205303927Y-71863000D01*
X205100049Y-71863000D01*
X204900090Y-71902774D01*
X204711732Y-71980795D01*
X204542214Y-72094063D01*
X204398051Y-72238226D01*
X204284783Y-72407744D01*
X204206762Y-72596102D01*
X204166988Y-72796061D01*
X191281000Y-72796061D01*
X191241226Y-72596102D01*
X191163205Y-72407744D01*
X191049937Y-72238226D01*
X190905774Y-72094063D01*
X190736256Y-71980795D01*
X190547898Y-71902774D01*
X190347939Y-71863000D01*
X190144061Y-71863000D01*
X189944102Y-71902774D01*
X189755744Y-71980795D01*
X189586226Y-72094063D01*
X189442063Y-72238226D01*
X189328795Y-72407744D01*
X189250774Y-72596102D01*
X189211000Y-72796061D01*
X181121000Y-72796061D01*
X181081226Y-72596102D01*
X181003205Y-72407744D01*
X180889937Y-72238226D01*
X180745774Y-72094063D01*
X180576256Y-71980795D01*
X180387898Y-71902774D01*
X180187939Y-71863000D01*
X179984061Y-71863000D01*
X179784102Y-71902774D01*
X179595744Y-71980795D01*
X179426226Y-72094063D01*
X179282063Y-72238226D01*
X179168795Y-72407744D01*
X179090774Y-72596102D01*
X179051000Y-72796061D01*
X151511000Y-72796061D01*
X151511000Y-70993000D01*
X211709000Y-70993000D01*
X211709000Y-76954000D01*
G37*
G04 #@! TD.AperFunction*
G04 #@! TD*
M02*
